<mxfile host="app.diagrams.net" agent="Mozilla/5.0 (Windows NT 10.0; Win64; x64; rv:133.0) Gecko/20100101 Firefox/133.0" version="26.0.1">
  <diagram name="Strona-1" id="Km7fuWsw_ut9yk8H52ne">
    <mxGraphModel dx="2165" dy="1912" grid="1" gridSize="10" guides="1" tooltips="1" connect="1" arrows="1" fold="1" page="1" pageScale="1" pageWidth="827" pageHeight="1169" math="0" shadow="0">
      <root>
        <mxCell id="0" />
        <mxCell id="1" parent="0" />
        <mxCell id="S9dilDW7TyfF1VimtBwa-48" value="" style="shape=mxgraph.bpmn.data;labelPosition=center;verticalLabelPosition=bottom;align=center;verticalAlign=top;size=16;html=1;bpmnTransferType=none;isCollection=1;strokeColor=#FF8000;" vertex="1" parent="1">
          <mxGeometry x="778" y="760" width="49" height="67.38" as="geometry" />
        </mxCell>
        <mxCell id="sL5bWm0NDH6Qrq-3R1cP-1" value="" style="shape=image;verticalLabelPosition=bottom;labelBackgroundColor=default;verticalAlign=top;aspect=fixed;imageAspect=0;image=data:image/png,iVBORw0KGgoAAAANSUhEUgAAAgAAAAIACAYAAAD0eNT6AAAACXBIWXMAAA7DAAAOwwHHb6hkAAAAGXRFWHRTb2Z0d2FyZQB3d3cuaW5rc2NhcGUub3Jnm+48GgAAIABJREFUeJzt3XeYVPXd/vH7O7OFLbAVkLKwZdhFUTEhSkAUG1gTYzQ+irEkRvAxBlNMTDTlF1uMRomakESNlRRbjF1jQEysIDZE2GULXWA7sH1mzvOHmp9R0N09Z+Y7M+f9ui6vyz84n3OvXuy5T/seCQAAAAAAAAAAAAAAAAAAAAAAAAAAAAAAAAAAAAAAAAAAAAAAAAAAAAAAAAAAAAAAAAAAAAAAAAAAAAAAAAAAAAAAAAAAAAAAAAAAAAAAAAAAAAAAAAAAAAAAAAAAAAAAAAAAAAAAAAAAAAAAAAAAAAAAAAAAAACQTIztADaUl5fnpff15ThZWUNsZwEA2GO6urr70tM76uvr221nibeULACTJk3K6OrqOihozCTHcaokTZRUKWmEpKF20wEAEtROSdsl1UhaY4ypjjjOqqysrGWrVq3qtZzNcylTACoqKqYYx5kl6XBJMyRlW44EAEgNnZKel7TEMeafdXV1K2wH8kJSF4DKysoxTjh8iiN9TdJk23kAAL6wRtK9gbS0u2tqaupthxmspCwAFRUVhxvH+aGkoyQFbOcBAPhSVNI/HWOuqaure9Z2mIFKqgJQWV5+VNRxLpcx02xnAQDgQ16U41xT29DwmCTHdpj+SIoCUFZWtn/QmIWSDradBQCAT/BCxHEuaGhoeMt2kE+T0AVg/5Ejczpzcr4v6UeSMmznAQCgH8KO4yw0weBPamtrd9gOsycJWwBCodBhikbvkTTWdhYAAAZhk6LRr9auW/ec7SC7E7QdYDfMhPLyi+Q490gqsB0GAIBBGiZjziwsKAi0tLb+Wwn2bEBCXQGorKwsjoTDfzHvPd0PAECqeCaQljanpqamyXaQDyRMASgrKxsfNOYpvbdqHwAAqWZNVDq6vr5+g+0gUoK8Qx8KhfYJGvNvcfAHAKSuiUZ6ubKsLCEWrrN+BaC8vPxzAelpSYW2swAAEActjjGzbS8pbLUAVFRUhIzjPC9ppM0cAADEWVPQcWZUNzRU2wpg7RZAVUnJaDnOM+LgDwDwn+KIMc9UVFSU2Apg5QrApEmTcnu6ul6UtJ+N/efm5mpIVrYyMtJt7B4AkCB6e/vU3dWpXbt22YrwZnZHx8FvbdvWEe8dp8V7h5LU09X1O8Xh4J+Rkal999tXUw48SJWVlRpfWqbRY8YoLc3Kjw0ASFDhcFhbNm/W+nUNqqmp0avLl+vtlW+pr7c31rue3JmdvVDS2bHe0UfF/QpAqKzsXBlzW6zmB4NBTf38NB17wgk6dOZMZWYOidWuAAAprLu7W/9+bqmefOwxvfLKy4pEIjHbl5G+vra+/o6Y7WD3+4yfioqKfY3jvCIp2+vZGRmZOuGLX9SZZ5+jUaNHez0eAOBjWzZv1j133anHHn0kVlcFOhUIHFRbW7sqFsN3J54FIBAqL39R0lSvBx81e7bmf+d7GjFihNejAQD4j23btunX11+nZxcv9n6447xU29AwQ1LU++EfF7dvAVRUVJxnpPO9nDl8+Ahd/ctrddbXvq6cnBwvRwMA8DG5ubk6atZs7bPffnp1+XJ1dXZ6N9yYksL8/E0tbW2veTf0E3YXj51MnDixKNzbu0ZSsVczDzzoIP2/K69SUZFnIwEA6Le21lb9/Cc/1ksvvejl2JZAWlpVPL4ZEJcrAHnDhi0w0qFezTv1tNP18yuv5qwfAGDNkKwszT7mWLW3t+udVZ7dus9yotHcltbWJ7wauCcxLwChUGiscZw7vNrXvAu+qQsu/JaMsb6KMQDA54wxmj5jhqLRqF5/zbMr9/sXDx9+R3Nz806vBu5OzAtAQV7eFcaY6V7M+vo3ztM35s7zYhQAAJ6ZcuCB2rljp1a9vdKLcWlONGpaWluf9mLYnsS0AFRUVIww0t2SXC+5d+JJX9ZF3/0eZ/4AgIQ0ddo0NdTVq6Gh3otxkwuLim5taWnx8CnD/xbTbwEEpLny4J3/iXvvrYt/cAkHfwBAwgoEAvrBpZeptKzci3HZTiQy14tBexLLAmAcxznL7ZCcnBxddc21Ss/I8CITAAAxk5efpx9ccqmGDHG/Cq0xxvUx9JPErABUVFRMkzTB7Zx537xQY8aO9SARAACxZYxR1d4Tder/zPFiXOWE0lLPF8/7QOy+iuM4Z7odUVlVpZNP+YoXaVS9Zo3+/dxS1dfXqbmxSc0tzYpG47LYEgAgQQUCARUVFqloeLHKyyt0yMzDVDVxoquZOTnZ+tJJX9ZzS5do/fp1rmY5gcBZkl5xNWQPYnVT3YTKy7dKcrU2742/Waip06YNevtoNKqnn3xCt93yB23etMlNFACAT4wZO1bnzTtfs485VoHA4C6Ut7W06d/PLdVVV/7cVRZHereuvn7Me//qrZgUgPc/+uPqXYh9Jk3S7XcvGvT2Gzds0GU//IFqqqvdxAAA+FTVxIm66pprNbakZMDb9vb0avvW7fr+9y5y/1ZAIDCptrb2HXdDdjPW64HvDz3C7Yw5Xx38sw/Lly3TueecxcEfADBo1WvW6Otnn6lXly8f8LYZmRlKz0jXl0462X2QSORw90M+LiYFwIlGXRWAYcOGaeZhhw1q2+o1a/T971ykHe3tbiIAAKAd7e367vxv6Z233x7wtpmZmTpo6jT3y9YbkzwFQMYM/sa9pCNmzRrUa39Njdv13Yvmq7u7283uAQD4j97eHl1y8ffU3Dyw7/NkDhmijIwMfX7awW4juB6wO54XgHHjxhXI5cN/M2YcMqjtbr7xRjU3NbrZNQAAH9PYuF0Lb7ppQNtkDnnvRHbK5w50u/u9SktL890O+SjPC0BGIFDlZvtgMKjJn/nsgLdbW1OjZ55+ys2uAQDYoyefeFzVa9b0+88HAgGlpQW17777KxBwt/J+IBBwva7Ox2Z6PdAJBl0VgNCECRo6dOiAt7v/3r/yXj8AIGai0aj+9uD9A9omLT1NOTk5Gjd+nKt9BxzH3eIEu5vp9UBFoyE3mw9mDeVoNKrn//0vN7sFAOBTPf/cvwZ0spmW9t638MaOGfirhP/FGFfH1t3xvAAEpDw3248vLR3wNmtratTS3OxmtwAAfKrm5ibVrV3b7z8fTHvv0v/oMe6WtHccJ/GfAYgaM/Dr9x8ycuTIAW+zdeu7bnYJAEC/DeSY88FXbIuLi13t07g8tu6O5wXASK5CZmcP/H3Jpkae/AcAxEfjAI45HywlnJWV5Xa3iV8AZEyum80H8x+pq7PTzS4BAOi3zo6Ofv9ZY94vAIM4uf3IoCQoAI6T7mbztHRXmwMAkDDevwOgYNDda4Buj627E5uVAAEAQEJLsx0gERzzpdN0yjnzbMcAAMRQV69Rd0R6/M+/19JH/2o7jnUUAEk5Q4dpr9Eu39EEACS0jl6jrrCUleP57fSkxC0AAAB8iAIAAIAPUQAAAPAhCgAAAD5EAQAAwIcoAAAA+BAFAAAAH6IAAADgQxQAAAB8iAIAAIAPUQAAAPAhCgAAAD7Ex4Bc6OvrVWtTo3a0t9qOAiQMEwgov6BIBYXFCrj9BnqKa2ttVltzk8LhPttR9igYCCq/qFh5BUUKBDhnTCUUgEF445Xn9fBf79Kby19Ub2+P7ThAQsodlqcDDz5cp5w1V+MrKm3HSRhtrc168O5b9cKSJ7X93c224/RbQfEITT9stk45e56GjxxlOw48QJ0bgJ7uLv3ysov042+do+UvPMvBH/gEu3a069kn/675X/2CFv3h13Icx3Yk615c8pTOO+kIPfSn25Lq4C9JrU3b9fgDizTv5KP09N/vtR0HHuAKQD+F+/r0s4vO1duvL7MdBUgqkUhEf/3jb7SjrVUXXPJz23GsWfrUw7r+ZxcnfRHq7e3RzVdfpu6uTp14+tdsx4ELXAHop7sWXs/BH3DhiQf/pKVPPWw7hhWb19frpisvTfqD/4fdftM1qn77Ddsx4AIFoB8at27Ro/fdZTsGkPTuWni9IuGw7Rhxt+iWG1PulmEkEtGdv7nOdgy4QAHoh38985jCfYn7lC6QLBq3btHKFS/bjhFXXZ0dennpM7ZjxMTK117R9i2bbMfAIFEA+mHVGytsRwBSxsrXl9uOEFfVK19XX1+v7Rgx885b/H5MVhSAfmhp3GY7ApAymn3296m5udF2hJjy2//PVEIB6IdUu3cH2NTb46+/T3093bYjxFRPd2r/fKmMAgAAgA9RAAAA8CEKAAAAPkQBAADAhygAAAD4EAUAAAAf4mNAcVAwJqS0jCG2YwCuRBypNyr1dbarp2mj7Ti+UZieodFDsrwfHIlKkYi2RfrUGGalUz+iAMTBUd++WQVjJ9iOAbjS3iNt7jBqXP6Iqu/8ju04vjF7+ChdPnF/z+c6O3ZK7Tt1c/MW/ablXc/nI/FxCwAAAB+iAAAA4EMUAAAAfIgCAACAD1EAAADwIQoAAAA+RAEAAMCHKAAAAPgQBQAAAB+iAAAA4EMUAAAAfIgCAACAD1EAAADwIQoAAAA+RAEAAMCHKAAAAPgQBQAAAB+iAAAA4EMUAAAAfIgCAACAD1EAAADwoTTbAQAAe/bmzjb9qm6153Odnl6pp1evde3yfDaSAwUAABLY6p3tWr2z3XYMpCBuAQAA4EMUAAAAfIgCAACAD1EAAADwIQoAAAA+RAEAAMCHKAAAEEOBQNB2hJgKBlP750tlFAAAiKH8wiLbEWKqsHiE7QgYJAoAAMRQ2YS9ZYyxHSNmyir3th0Bg0QBAIAYGr7XaFVOmmw7RkzsNbpEFVWTbMfAIFEAACDG5pw333aEmDh97vyUvrqR6igAABBjU6YdquNOPsN2DE9NO/xoHXHsl2zHgAsUAACIg/Mv/qmOOel02zE8ccis43Xx5ddz9p/k+BogAMRBIBjUhT+6QlOmH6pFv1+g9XU1tiMN2Kgx4zRn7nwddsyJHPxTAAUAAOJo2sxZmjZzljY21Grt6pVqa2lSNBq1HWuPjDHKLyxW6YSJqqjcx3YceIgCAAAWlJSFVFIWsh0DPsYzAAAA+BAFAAAAH6IAAADgQzwDAACWtLU2q625SeFwn+0oexQMBJVfVKy8giIFApwzphIKAADEUVtrsx68+1a9sORJbX93s+04/VZQPELTD5utU86ep+EjR9mOAw9Q5wAgTl5c8pTOO+kIPfSn25Lq4C9JrU3b9fgDizTv5KP09N/vtR0HHqAAAEAcLH3qYf3iR99SV2eH7Siu9Pb26OarL9PDf7nDdhS4RAEAgBjbvL5eN115qRzHsR3FM7ffdI2q337Ddgy4QAEAgBhbdMuN6u3tsR3DU5FIRHf+5jrbMeACBQAAYqirs0MvL33GdoyYWPnaK9q+ZZPtGBgkCgAAxFD1ytfV19drO0bMvPPWCtsRMEgUAACIoebmRtsRYqq5cZvtCBgkCgAAxFBfT7ftCDHV053aP18qowAAAOBDFAAAAHyIAgAAgA9RAAAA8CEKAAAAPkQBAADAh/gcMAAksML8TI0eke394GhUcqLa1tKrxtbUWqYY/UMBAIAENvuQMbriu1O8H9zVKXV36aZ7G3TzvQ3ez0fC4xYAAAA+RAEAAMCHKAAAAPgQBQAAAB+iAAAA4EMUAAAAfIgCAACAD1EAAADwIQoAAAA+RAEAAMCHWAo4DlY8eLMys4fZjgG40huVOvqk7sb1tqMA8AAFIA7qX37CdgQAAP4LtwAAAPAhCgAAAD5EAQAAwIcoAAAA+BAFAAAAH6IAAADgQxSAfkhLS7cdAUgZ6Wm8fQwkAgpAP+QXFduOAKSMwuEjbUcAIApAv0zYez/bEYCUUbkPf5+ARMC1uH6YceSxuu+OhXIcx3YUIKnlDh2mz3z+ENsxksqbq1t03S0rvR8c7pPCYa1Y3eb9bCQFCkA/lE2YqEOOOk7/euZx21GApPaVc87XkKxs2zGSyuraNq2u5SAN73ELoJ8u+MHPNWrseNsxgKR1wNQZOmnOubZjAHgfBaCfcvPydfXCe1ReuY/tKEDSmXb40frxtQsVCAZtRwHwPm4BDMDwvUbr+jse0GP33aNH7r1LjVu32I4EJLSyCXvr1HPO14yjjpMxxnYcAB9CARig9PQMnXTGuTrpjHO1rrZa27ZsVGtLk+1YQMIIBoLKLyrW+LIJGjF6rO04APaAAuBCaahKpaEq2zEAABgwngEAAMCHKAAAEEOBQGo/+Bjkwc6kRQEAgBjKLyyyHSGmCotH2I6AQaIAAEAMlU3YO6XfgCir3Nt2BAwSBQAAYmj4XqNVOWmy7RgxsdfoElVUTbIdA4NEAQCAGJtz3nzbEWLi9LnzU/rqRqqjAABAjE2ZdqiOO/kM2zE8Ne3wo3XEsV+yHQMuUAAAIA7Ov/inOuak023H8MQhs47XxZdfz9l/kmMhIACIg0AwqAt/dIWmTD9Ui36/QOvramxHGrBRY8Zpztz5OuyYEzn4pwAKAADE0bSZszRt5ixtbKjV2tUr1dbSpGg0ajvWHhljlF9YrNIJE1XBx9BSCgUAACwoKQuppCxkOwZ8jGcAAADwIQoAAAA+xC2AGOrp6VZfT4/tGMCgpaenKzMr23YMADFAAfBQb2+P/vHwfXpxydOqr3lHu3busB0JcC0zK1uloSpNm3mUjv3yHOXkDrUdKWW0tTarrblJ4XCf7Sh7FAwElV9UrLyCIgUCXDROJRQAj6x641X96qffVePWLbajAJ7q6epU9crXVb3ydT14z62af+lVmnb40bZjJa221mb97Z7b9PziJ7T93c224/RbQfEITT9stk45e56GjxxlOw48QJ3zwPIXl+qyb57JwR8pb2d7m67+4YV66qG/2I6SlF569mmdd9IR+tuiW5Pq4C9JrU3b9fgDizTv5KP0j4fvsx0HHqAAuLRt80Zdd9m3Fe5L3Et4gJccx9Hvrvu5qle+bjtKUnnu6Ud09Q8vVFdnh+0orvT29uimqy7VI3+903YUuEQBcOnu3y9QZ8cu2zGAuIqEw7rtxl/YjpE0Nm9o0I1X/EiO49iO4pk/3vgL1ax603YMuEABcKFj1069sORJ2zEAK1a/9Zo21K+1HSMpLPrDr9Xbm1pvBEUiEd35m+tsx4ALFAAXVr2+jEv/8LU3lr1gO0LC6+zYpZeXPmM7RkysfO0Vnn1KYhQAFxq3vWs7AmBV47attiMkvJq331BfX6/tGDHhOI5WvbHcdgwMEgXABd6Jhd/xRbhP19zcaDtCTDU3brMdAYPEEcyF4XuNsR0BsGrkaP4OfJq+nm7bEWKqpzu1f75URgFwYb/PHqTMIVm2YwDWfGbqDNsRAAwSBcCFzCFZOvyYE23HAKw4YOoMjS4ptR0DwCBRAFw6Y+585eUX2o4BxFVm5hB946If2Y4BwAUKgEsFxSN06bULlZWdYzsKEBfBtDR9+6e/VGmoynYUAC5QADww6YDP6brb7lPZhL1tRwFiauSYEl35m7t0yKzjbUcB4BJfA/RIaahKN97zsF569mk9v+Qp1Ve/o/a2FtuxANdyc4dpXEWlps08Socde6LS0zNsRwLgAQqAhwKBgA4+8lgdfOSxtqMASBEZBUOVNarI87kd0bA6nLCCTbuU1sz3TPyIAgAACWzkUVM06afneD53WVeT1nQ3qvCO51V4B0s6+xHPAAAA4EMUAAAAfIgCAACAD1EAAADwIQoAAAA+RAEAAMCHKAAAAPgQBQAAAB+iAAAA4EMUAAAAfIgCAACAD1EAAADwIQoAAAA+RAEAAMCH+BxwDESjUbW3NKmtpVmRaMR2HGDQjDHKLyxWQWGxAsGg7TgAPEQB8FDT9q164O5b9MKSp9TatN12HMAzucPyNHXGETrl7HkqKQvZjgPAA9wC8Mjixx7UvJOP0mP33c3BHyln1452LX7iIX1zzvG69/bfynEc25EAuEQB8MDjDyzSgssvUU9Pt+0oQExFIxHd8/sFuuPma21HAeASBcCl2jVv6w/XX2E7BhBXf1t0q17+1z9txwDgAgXApbsWXq9ohAf94D933HytotGo7RgABokC4EJbS5PeXPaC7RiAFZvX12vtO2/ZjgFgkHgLwIVVry/nDAi+tuqN5ara9wDbMVJa28oGVS+43/O5neFOFYU7lbVyk+ezkRwoAC60NDfajgBY1dzIGy+xtnPNeu1csz4mswtiMhXJglsALmRkZNqOAFiVOSTLdgQAg0QBcGFUyXjbEQCrRo0psR0BwCBRAFzYZ/8pyskdajsGYEUgENDnps+0HQPAIFEAXEhLT9cJp55lOwZgxcyjv6iC4hG2YwAYJAqAS6ecNVdjxpfbjgHEVX5Bkc7+5sW2YwBwgQLgUlZ2jn52wy0aMWqM7ShAXOTm5euy636n4hF72Y4CwAUKgAdGl5Tqhjv/phlHHSdjjO04QMwccOB0LbjjQe29/2dtR0kagUBqf0Y5yGeikxbrAHgkv6BIP7z6Jq2rrdaLzz6luurVamtpUiQcth0NGDRjjPILi1VSFtL0w2dr4n6fsR0p6eQXFtmOEFMFRcNtR8AgUQA8VhqqUmmoynYMAAmibMLeMsak7CeUy6v2sR0Bg8QtAACIoeF7jVblpMm2Y8TEXqNLVFE1yXYMDBIFAABibM55821HiInT587nuackRgEAgBibMu1QHXfyGbZjeGra4UfriGO/ZDsGXKAAAEAcnH/xT3XMSafbjuGJQ2Ydr4svv56z/yTHQ4AAEAeBYFAX/ugKTZl+qBb9foHW19XYjjRgo8aM05y583XYMSdy8E8BFAAAiKNpM2dp2sxZ2thQq7WrV6qtpUnRaNR2rD364FXQ0gkTVVHJE/+phAIAABaUlIVUUhayHQM+xjMAAAD4EAUAAAAfogAAAOBDFAAAAHyIAgAAgA9RAAAA8CEKAAAAPkQBAADAhygAAAD4EAUAAAAfogAAAOBDFAAAAHyIAgAAgA9RAAAA8CEKAAAAPpRmO0AiaGtuVO2at23HAADEUFefUU9Eam9psh0lIVAAJC1+4iEtfuIh2zEAAIgbbgEAAOBDFAAAAHyIAgAAgA9RAAAA8CEKAAAAPkQBAADAh1KiABhjbEcAAPhEqhxzUqIA5A4dajsCAMAnhuXl2Y7giZQoAGNLxtmOAADwibFjx9qO4ImUKAD7T56s3Nxc2zEAAClu2LBh2m/yAbZjeCIlCkB6erq+8j+n2Y4BAEhxp552utLSUmMV/ZQoAJJ05jlf07jSUtsxAAApqrSsXGecdbbtGJ5JmQKQnZ2t6xfcqFGjRtmOAgBIMaNGj9avFvxaWVlZtqN4JmUKgCSVjBun2+9epCNnzUqZ1zQAAPYYYzRr9mzdcfcijS0psR3HU6lxI+NDCgoLddU116q2dq2WLl6s6upqtbQ0KxIO244GAEgCwbQ0FRYWqWriRB1+5JGqqAjZjhQTKVcAPhAKTVAoNMF2DAAAElJK3QIAAAD9QwEAAMCHKAAAAPgQBQAAAB+iAAAA4EMUAAAAfIgCAACAD1EAAADwIQoAAAA+RAEAAMCHKAAAAPgQBQAAAB+iAAAA4EMUAAAAfIgCAACAD3leAIzU7Wb73t4er6IAAGCV4ziSpN4eV4dGSep0HeYjPC8AjuPsdLN9R4fnPyMAAFZ8UAC6urrczZFcHVt3x/tbAIGAuwKw0/OfEQAAK5zoewWgo6PD1ZyAy5Pr3c70eqBchty4aaNXSQAAsCoSjUqStm5919Ucx+XJ9e7E4iHA7W42Xr9unUcxAACwK9zXJ0nasnmTqznG5bF1d7x/BsCYajfb19a42hwAgIQR7gtLkhoaGlzNcXts3R3v3wJwGXLr1q3avMldUwIAIBGEw2Ft2bxJLS3NruYEI5E1HkX6j1jcAqiTFHEz4NVlyzyKAgCAHeFwn6LRqFaufMv1qNzCwnovMn2Y5wWgtra2R9JaNzMWL37GozQAANjR090rSXrxhefdjqpZsWJFn+tAHxGTlQAd6Tk327+6bJm2b/f8eQcAAOKmp7tHLS3Neuedt92OWupBnI+JSQEwjrPEzfbRaFSPPfKwV3EAAIgrx3HU092tfzz9lKLvvwo4WEZydUzdk9hcAQgElkpy3My4989/cr1yEgAANnR3daujo0NPPvGo21FRk5bm6qr6nsSkANTV1W2X9KabGe3t7frb/fd5lAgAgPjp3NWpxx97VLt27XI76vWampomLzJ9VMy+BmiM+YvbGbffdquaGnkWAACQPCKRiLZs2ayH/na/F+P+7MWQ3YlZAQj09i6Sy9cBOzo6dOMNN3iUCACA2NvZvlN/vO0WdXe7/gJgJD0ScX0yvScxKwDVGzdukbTY7Zxn/vG0nnricQ8SAQAQW9FoRP946km9/NIL7oc5zjOr16939xGBTxCzAiBJjjF3eDHn2l9crQ3r13sxCgCAmFn11ir99rc3eTLLCQTu9GTQHsS0ANTV1d0vl4sCSVJnZ6e+M/9CtTS7W0oRAIBYaWxs1M9+cql63F/6l6S6kpKSB70YtCfBWA6X5BTk53cbY77gdtDOHTv02opXNfuYY5Wenu5FNgAAPNHR0aFvzj1PGzZ4dLXacX7w2htvrPBm2O7F9AqAJOUXFt4paYMXs1a/846+Oe88tba0eDEOAADXWpqb9b/fOFd1dbVejdyYmZ19j1fD9iTWVwD07rvvRgvy8zu8uAogSU2Njfr3v57T56dNV15enhcjAQAYlA3r1unC/53n+nO/H/Hd6pqaV70cuDsxLwCS1NrW9kZhfv5sGVPixbz29nY9/ugjGjV6tCpCE7wYCQDAgDy7eLEu/s5Famrybp0eIy2vra+/UC5X0+2PuBQASU5hcfHrcpxvyKPbDn19fXp2yWJt3LhR+0+erOzsbC/GAgDwiZqbGvWLK6/ULb9fqN7eXi9Hh000+sWWtraYvfr3YfEqAGppaXm3KD+/WMZM9XJuXe1aPfLQQ0pLT9eEyiqlpaV5OR4AAElSd1eX7v3Ln3XpJT/QmtX4B5c3AAAMMklEQVSrPZ/vSDfXNjTc6fngPTDx2pEkjR49Ojt7yJBXJO0bi/kFhYU6/Yyv6oQvfFGFRUWx2AUAwGdampv16CMP6y9/WqS21tZY7WZld2/v1E2bNsXtK3hxLQCSFAqF9lE0ukxSTqz2EQwGNXXadB05a5YOPGiqRowYEatdAQBS0Pbt27X8lZe1+Jln9MrLLykScbWy/afZFYhGD6xZt25NLHfyUXEvAJJUUVFxtnGcO+O1v3Hjx6uyqkolJeM0bvx45ebmKjsnVzk5MesgAIAk0NHRoc6OXdq1a5c2rF+vDRvWq6a6Whs3ePL2ev84zpm1DQ2L4rfD91gpAJIUKi9fIOnbtvYPAIB1xlxfW1d3sY1dx+0hwI9qaW39R0FBwXgjHWArAwAAFv25tr7+AsXhlb/diflKgJ/AyS8omCvpSYsZAACIOyMtzszK+pqkqMUMdu0/cmROZ27ug3Kco21nAQAg5ox5OnvXrpPf2ratw2YMm1cAJElvbdvWMbak5ARJt9vOAgBAjP0pLz//C7YP/lICXAH4EBMqL79BPBgIAEhNC2rr678nS/f8P8raQ4C709La+nRBYWGDkWZLyrCdBwAAD3Q5xlxYV19/te0gH5ZIVwD+o7K0dGI0ELhP0n62swAA4MKaqHRqfX39SttBPiqhrgB8oLmtrWlIVtZd6Wlp+ZKmKAGeVQAAYAAikn7X2d39lQ0bNmy2HWZ3EvIKwIeFQqHPyHEWynE+bzsLAAD98JqJRi9Yu27dK7aDfJKELwDvC0woL5/rGPMTOc5o22EAAPgYY7YY6fK1dXW3yuL7/f2VLAVAkjRp0qSM7u7u04zj/FjSBNt5AACQtN5IC7p6e2+J59f83EqqAvCBKVOmpLe3tJwm6esy5lDxjAAAIL6icpx/SfpjXmHhvStWrOizHWigkrIAfFh5efk44zhnGmNOlzTJdh4AQEpbJcf5c9SYRfX19XH8ZKD3kr4AfFhVScnoSFrakY4xRxhppqQy25kAAEmtwZGeM46zJBgOL67euHGL7UBeSakC8FGTJk3K7e7urgo4TqUjVRnHGRU1ZqiRcvXeP8NsZ4RrJZJGDHbjvGF5ysnO8TAOEl0kElE4HFZ3d7c6ulytxtooKanPACFJ2iFplyPtCjjOTseYd41UHTWmZsiQIdWrVq3aZTtgrKR0AUDqqygv/7WRLhrs9sfPOkGf/9w0LyMhwbW1tampsUlralfrlTdedjPqt7X19Rd6lQuINx6eAwDAhygAAAD4EAUAAAAfogAAAOBDFAAAAHyIAgAAgA9RAAAA8CEKAAAAPkQBAADAhygAAAD4EAUAAAAfogAAAOBDFAAAAHyIAgAAgA9RAAAA8CEKAAAAPkQBAADAhygAAAD4EAUAAAAfogAAAOBDFAAAAHyIAgAAgA9RAAAA8CEKAAAAPkQBAADAhygAAAD4EAUAAAAfogAAAOBDFAAAAHyIAgAAgA9RAAAA8CEKAAAAPkQBAADAhygAAAD4EAUAAAAfogAAAOBDFAAAAHyIAgAAgA8Z2wEQX+PGjSvIyMgoM9FomYwZ4zhOlqQ8GZNhotGhtvMNlGPMdEn7Dnb7cWPGaeTwkR4mQqLr6e1Rd1e32na0aXvzdjejVhnHecGrXPHiBAI75Ti9ktqNMV1ynM1OINDQ29vbsGHDhlbb+RA/FIAUVl5enifp4IA0VcZMleMcKKnQdi4ACatFjrNMxiyLSq9IeqG+vr7ddijEBgUgxYRCobGKRE6UMSdKOkxSuuVIAJJXr6TnJP1dgcAjtbW1m2wHgncoAKkhUFlefkTUmLlynC9LCtoOBCDlRB1piXGcW8aOH//Q0qVLw7YDwR0KQBIrLS0dkhYInC/pYkljbOcB4BubjPSrvmj0D+vWreu2HQaDQwFIQlOmTElvb209T9Kl4sAPwJ5NRrpqWEHBH1esWNFnOwwGhgKQZCoqKqYbx/mDXDz5DgAeW6lAYF5tbe1LtoOg/ygASWLSpEm5PV1d10qaJ9ZvAJB4opJ+l93Rcclb27Z12A6DT0cBSAJVZWVVEWMeEGf9ABLfGseYr9TV1b1tOwg+GWeSCS5UVnZqxJhXxcEfQHKYaBznpVBZ2am2g+CT8bpYAqsoK7vQGHObpEzbWQBgADJkzCkF+fkdrW1tL9oOg92jACSoUHn5JcaYG8RtGgDJyRhjZhcWFGS1tLb+03YYfBwFIAFVlJVdYYy53HYOAPDAjMKCAtPS2rrUdhD8NwpAgqkoKzvPGHOd7RwA4KHDCvPzm1ra2pbbDoL/j8vLCSRUWnq0AoHHRTEDkHrCcpzjaxsa/mE7CN5DAUgQFRUVI4zjvClpL9tZACBGtoej0cnr1q3bajsIpDTbASBJChjHuUdxOvinp6ervKJCY0tKNGLESBUUFioYCCgnd2g8dg/Aoo5dOxWJRtXS3KzGxu3atHGj6uvq1NcXl5V8R6QZc4ek4yQ58dgh9owrAAng/fv+t8RqvjFGkycfoOmHHKIDD5qqCZWVSkuj+wF4TzgcVk11tZYve0UvPf+83nzzDTlOTI/P59bW198eyx3g01EALAuFQsMUjdZIGun17ILCQp38lVN1whdP1F57cWcBQP9s3bpVjz38dz34wP1qbWmJyS6C6emV1dXVO2MxHP1DAbAsVF5+jaRLvJyZl5enc879hk4+5SvKyGQNIQCD09vTowcfuF93/vE2tbe3ez3+l7X19T/0eij6jwJg0bhx4woy0tI2SsrxauZxx5+gb1/8fQ0bNsyrkQB8bseOHfr1r67TE48/5uXYjt5wuGTDhg2tXg5F//G6mUUjiovn672HYVzLysrS5Vf9Quec+w1lctYPwEOZmZmaefgRKq8I6cUXnlc4HPZibEZaMNjc0trKUsGWcAXAnmCovLxe0ji3g4qKinXjwoUKhSZ4EAsA9qy2dq0uuuACNTc3eTFufW19fYWkiBfDMDB8DdCSUGnpDHlw8C8oLNTvbr2Ngz+AuAiFJuh3t96mgsJCL8aNrywrm+7FIAwcBcCWYPALbkekZ2TouhsWaNz48V4kAoB+GTd+vH55/Q1KT093PSsaCJzoQSQMAgXAFsf5otsRc+f9r/bdb38v0gDAgOy//2R97dzz3A/y4HchBocCYEEoFBouydU1+7Kycs0580yPEgHAwJ025wyNHVvidsyE938nIs4oABZEo1HXp+3nzp2nYJCXOADYEwwGdeppc1zP8eJ3IgaOAmCBcZwD3Gw/LC9PMw8/3Ks4ADBoU6dO09Ch7tYdCUiTPYqDAaAA2GCMq2tm0w+e4cnDNwDgVlpamj7z2SmuZjiOw5PMFlAA7Mhzs/E+++7rVQ4AcG1CZZWr7QMufydicCgAFhjHKXCz/YjhPC8DIHEUuVwTwJHyPYqCAaAA2GBMtpvNs7M9+3QAALiWleXqV5qMMbkeRcEAUAAAAO4YVpVPRhQAAAB8iAIAAIAPUQAAAPAhCgAAAD5EAQAAwIcoAAAA+BAFAAAAH6IAAADgQxQAAAB8iAIAAIAPUQAAAPAhCgAAAD6UZjsABq61uUVbt2y1HQOA3zm2A8ANCkASikSiioQjtmMAAJIYBSAJ3XTTAmVmZNiOAQCSpJ7eXtsRMAgUgCTU1tpiOwIAIMnxECAAAD5EAQAAwIcoAAAA+BAFAAAAH6IAAADgQxQAAAB8iAJggzFdtiMAQKJwpE7bGfyIAmCD42y2HQEAEsgm2wH8iAJgg+MstR0BABKG4zxrO4IfUQAsyMzOfkLSdts5ACABbM/Mzn7Sdgg/CtoO4EeNjY29RYWFOyWdYDsLANjkGPPd6urql2zn8CMKgCUtra0rCgoKSo10gO0sAGCDI91ZV1//U9s5/IoCYFFra+ujhYWF6ZKmi9sxAPwjImOuqauv/7Ykx3YYv6IA2OW0tLYuKSwqekCOM0RSiaQc26EAIEYaJd2rQOCs2rq6e8XB3ypjOwD+W3l5eV5aWlqR7RwA4KVwONxcX1/fbjsHAAAAAAAAAAAAAAAAAAAAAAAAAAAAAAAAAAAAAAAAAAAAAAAAAAAAAAAAAAAAAAAAAAAAAAAAAAAAAAAAAAAAAAAAAAAAAAAAAAAAAAAAAAAAAAAAAAAAAAAAAAAAAAAAAAAAAAAAAAAAAAAAAAAAAAAAAAAAAADJ6v8A8zXjwnrg/FgAAAAASUVORK5CYII=;" parent="1" vertex="1">
          <mxGeometry x="-419.82" y="-290" width="140" height="140" as="geometry" />
        </mxCell>
        <mxCell id="sL5bWm0NDH6Qrq-3R1cP-4" value="&lt;b&gt;serwis do obsługi danych systemu agentowego&lt;/b&gt;" style="text;html=1;align=center;verticalAlign=middle;whiteSpace=wrap;rounded=0;" parent="1" vertex="1">
          <mxGeometry x="-429.81999999999994" y="310" width="130" height="50" as="geometry" />
        </mxCell>
        <mxCell id="sL5bWm0NDH6Qrq-3R1cP-9" value="&lt;b&gt;baza CRM klienta&lt;/b&gt;" style="shape=datastore;whiteSpace=wrap;html=1;strokeColor=#000000;fillColor=#CCCCCC;" parent="1" vertex="1">
          <mxGeometry x="-409.82" y="120" width="130" height="150" as="geometry" />
        </mxCell>
        <mxCell id="sL5bWm0NDH6Qrq-3R1cP-11" value="" style="rounded=1;whiteSpace=wrap;html=1;points=[[0,0,0,0,0],[0,0.25,0,0,0],[0,0.5,0,0,0],[0,0.75,0,0,0],[0,1,0,0,0],[0.25,0,0,0,0],[0.25,1,0,0,0],[0.5,0,0,0,0],[0.5,1,0,0,0],[0.75,0,0,0,0],[0.75,1,0,0,0],[1,0,0,0,0],[1,0.25,0,0,0],[1,0.5,0,0,0],[1,0.75,0,0,0],[1,1,0,0,0]];strokeColor=#0000FF;shadow=0;" parent="1" vertex="1">
          <mxGeometry x="70" y="310" width="120" height="160" as="geometry" />
        </mxCell>
        <mxCell id="sL5bWm0NDH6Qrq-3R1cP-13" value="&lt;b&gt;baza danych Agenta&lt;/b&gt;" style="shape=datastore;whiteSpace=wrap;html=1;strokeColor=#000000;fillColor=#CCCCCC;" parent="1" vertex="1">
          <mxGeometry x="-409.82" y="585" width="130" height="150" as="geometry" />
        </mxCell>
        <mxCell id="sL5bWm0NDH6Qrq-3R1cP-14" value="" style="rounded=1;whiteSpace=wrap;html=1;strokeColor=#0000FF;" parent="1" vertex="1">
          <mxGeometry x="-13.84" y="530" width="120" height="160" as="geometry" />
        </mxCell>
        <mxCell id="sL5bWm0NDH6Qrq-3R1cP-15" value="" style="rounded=1;whiteSpace=wrap;html=1;strokeColor=#0000FF;" parent="1" vertex="1">
          <mxGeometry x="166.16" y="530" width="120" height="160" as="geometry" />
        </mxCell>
        <mxCell id="sL5bWm0NDH6Qrq-3R1cP-29" value="" style="shape=image;verticalLabelPosition=bottom;labelBackgroundColor=default;verticalAlign=top;aspect=fixed;imageAspect=0;image=data:image/avif,AAAAHGZ0eXBhdmlmAAAAAGF2aWZtaWYxbWlhZgAAAYRtZXRhAAAAAAAAACFoZGxyAAAAAAAAAABwaWN0AAAAAAAAAAAAAAAAAAAAAA5waXRtAAAAAAABAAAANGlsb2MAAAAAREAAAgACAAAAAAGoAAEAAAAAAAAIcAABAAAAAAoYAAEAAAAAAAAvvQAAADhpaW5mAAAAAAACAAAAFWluZmUCAAAAAAEAAGF2MDEAAAAAFWluZmUCAAAAAAIAAGF2MDEAAAAAw2lwcnAAAACdaXBjbwAAABNjb2xybmNseAABAA0ABoAAAAAMYXYxQ4EAHAAAAAAUaXNwZQAAAAAAAAFCAAABQgAAAA5waXhpAAAAAAEIAAAAOGF1eEMAAAAAdXJuOm1wZWc6bXBlZ0I6Y2ljcDpzeXN0ZW1zOmF1eGlsaWFyeTphbHBoYQAAAAAMYXYxQ4EgAgAAAAAQcGl4aQAAAAADCAgIAAAAHmlwbWEAAAAAAAAAAgABBAGGAwcAAgSCAwSFAAAAGmlyZWYAAAAAAAAADmF1eGwAAgABAAEAADg1bWRhdBIACgYYIig0FhUy4xARAAMMQN1L2InGswLifrIx5yrnH3vIiQP/Vye6+Rlx+VOnJs7OECVAlhKiorAIXHCHeVwmtuu+wYGfvwQunpcliLXu6tWEolZSH6+LYkBcMChVS6iPR0C5MQjNOIKLoI3OsCde6VL0wgAicsqcC5LeB7dLoqarWqx/GUsFQJEkQQDvjZ8HIa+QF5ByZfct+gW5qTHI6HOEwbMzZ0hVuYaIjiGGME+AEtRT16lpaKzm0g7XRKpmZ55SSMQeS0sXi5T/hzM2XKDda9ZdqDr49JOHCMK/INuohfpm/MzQpwVBhT0N3E9QP8BmaWM6q2hSpYtplZ2y3TfOex7Lf7gd1cCm4UTjtAbQg/zBFdI2VOItJ+aybdp4R+DuO0fXJ9bM9as8g8a/85O5Fc8OUszM9z19F1RpV+jAOXQAAQIYjEODnm4cH5dzocFijBvAJwx0ZOeveXYQofBUlBQv3TG6YibwaWDfVs2dvHQbQg1gHp0wEFQYOcifS1XLMbxiVHzwCdtrEAhPsFSHrfgz/p/SXXhrgVNS8vg7MgnyiEaX08ktOJY8iek1myCZtAZulmDuqLFjLLhb2rqFLUoiL+6ZZTU+/OhXtsYDc52osmN6kzcwCqUKcY9QTWNPFlLj2fF6sT5Mt+w2gJGhbrOynyd4UMMd/6vQNVOiSZYjVNgpBoqigf6GeGNya3vbIYBn3SiNtd8/////2UKmWqOxn+mBkpWAJQC4d0z5VgndP7wvJE6abtwZICT4FEBbSV1YQ+CQqlgMbobLhv4AMCDBPOlPdQtnXZmmQybXPuNmivZoIuNDb+ahsNpShUUEOvnqVfVZCqYKHsQrypASU1Cfx6/2D/0Uma1bZFbFrTXdvrJnDCqNGaPZ+cA+JY4gpaxkJGNC9LSX9sqw8S+iyGEPrUnXVGNJ4UmbIniqd3rFuDZAWPSYcWQMgITjsi9NKy2n85h4oNdLyIVXOtR2mBoDnkhLD8rbcSaXRQ+j45fYcWHS+4vPqZRu6paEW9Y6VZ6Te+E7HnOq3p/mA8bMTRJ4gGHA1+CwD/Xtnd7kBGXce6lns9x3mizNcKE83io1QDkm3UHMVQS9QOK+zII1Cw8ow/k/JRRSCzqSiwlieNNRclm4HNUz3ADW2Ql2WVROiBpiyrlelkxHXZWxesHFTZWp3BjXZLBVgXa5S6/16WddTRoGD7ZAflaN0+PsG8xcgDYbAzfcxNTj4sXti6Bq4q2kiWbaeHJeesfQiCeq/DZfmY/00bI/fNxpfr+JkogOWnPBr01zOGcAWJbcEEfHTzXV98li+Yc+wGue7AYZUbE8u8wlUA8mVTvoULVDGW5opUtqiQO8TirNk25wYzKlKcJJ/85llmcTiPhBFYNIhEN6RFjpQJBEI8G/nVIWsfATguou8x35KbUoBQsnUFdaltPJBZUw/V6M9QdQrZP9LAmJoaJlpMHY+RNYx1hqE3jQinuKmU9uJg3enDKYfCt4VoCCRe21ei23zG32Ho6Qbxu39NYvmZVBEOzbCcEd3ldkTS8A0kSTpyGgT2UnlppB87VPEl1vNodoEA+9lvsnrPkZlklC1gVxmTeMAAAAYQxKbZCTf2e8RBK9ix4LooCEbLVS1T61EQnYVUDevO1DToLWqvM0nnRPMrFehhpkTVa4zWgFgOXf5wg9OvSFTWAMZSQvWvvQdMPjfuYShDHn4uiqGXpskJpmiOTHnyOjRoGb7/Sb4SAQeACAVBtoMlrIbGzS7/Vro4WqDccRoHKaOKXNS3SouPFEh3EntgrqOqxT8ZHD6WntV4ZAPXhVMrRzN8jFW7Xi6pMWqXsR2rzzIwsnn3hVy/gjCDLpTS+8Fubkk2NHyzLlIdzV3ZfuWrc5N3RvE7xWnTbm7zr7a1Dr720gf7Yb6eHAa3S2+Nx0Yr3jN17IMVAlNASSe4WG4q/rQ5tYV5lwcE2gm6jmOBGYYmAWR3rb3aBytgMx4j7OMjpomaoektPe9f/hA6kPOKfHHnNr7FeUqlbCrR9qRDUtnekyRSfFO4qBHWAgiyIvAS5BQX/o5VJ6KX69PJtAtYcp15jO+Ks86BSWBIMvLuh17P3UKHF75YwkddIEGGLzBWYNfLVmpH3q5HDN3TkSFhLv//bgWKInSNxk80cAE+YECNhWMDIJWCHrwUcPV5G97DkH71Uihtk630rFjHzV4UgHr/DIwPwhEbQK+Ux9skKxqZYgxtKtfTcd/SFn9A952DNhjNU7TOV+XuAs8g2zJo8CtaU2MG/TwqwlFJxA9nOlVgFCNZzSMcACAZXxPFCtSVc+dIytQXtCWf8GO611fZ39VK1EfiooHu2JDENAohfIISNHcgiyDpn/IkLZsexAV5Tkv+WjFvBnoamfM20WqAb9EkLyN/Dv6wr8NTTZaAgEmkTMRxYKApV6s7i8TnyZA+8xKRP5uAeQJQ626GeIIjcUf0aw6Aqw3phI8FDh/Z22DkncCgIzFdbV3BABBrQRWXwHGC2vSNs+cUkH+X47OeqtFHn72soXduL0hPYo31osUXynuH8kXhrXieGahDnk/PiZaSRh1EkLwTAHOIMoqpLEH5CL0KQAY/0bW41322RMJBfNC/WgU6GCiV8zLPrQkQAPHuOydNAg+VRn8HRUWNZu5xZN1/vGPd9QzQ4Wni2/tuO0rqg/qHB4c4aSgzeA5GyxxlMSbolZcOd0fMMdOaWWncoTh00EHjf05Uxkks3AA69YJGKj5z9RlLD60Nf365BLzLOiJVl+CgQK+PBKSpiB8CNOLZ9738Sx5PX+aUP9hVcC/csklrNzu9YoZkLZSQGPqcRlLaLnV3ZQzGjo3hIc8O8fcGn6LnTR51t9BjM0m58PnVZ5MqP4LHpPWRIACgk4Iig0FhAQ0GkyrV8RAADDDDEA3UuTFKLeinW4WizN4yL3CvKvUw/ieU6Etpi5mTDGg6X6d2cIocqaqE4wxlg2xnM+aah7ReZaX83WF9utoxzgD8dagZWOKp2DJ4r+HZXGGvdOM2q81ULY7u3Lc5NMJ2uOxS2ku5oMe2htiVNAePn44vvisTA9Fsmgl96tWZiX499/NpyWyHCghr31dgjjNN12RQlXZ73YgjfuB4ESYtr9rRArY6BzThE1hegkhyVfFairPJLj4sTkoitZnAOgOR3op41KXrxNZXG/lTstqmicA4A/d0BlpGZMPS0JLDJoZqHmUoT+md2aleioKrf9NbB+lcN7SipHettMv6BKfhkGcp9lQgrFsB2LH0Ptjwjkeui5OXQz0ftCH/hED9j9TijmITU3RC9qmcFyqZwwF+5S9DtWmkaxvhmNaZltL3EdTDC+PtXFJkLAprjizdGXo2ELw9nY8C85DzEy0D6+LT6hyAeGjUw6mnZoOWzXZ1E/SpaWQxtASPvPTOk6Cf72c+Ogqp14sDd5WzUocVrfLXcVSmz8OnlnJfUpHx/fFrlJrYpPY4WvP4H+ww9FLee3qTCCEoS1y36w0nvmkv43KfuYZo9WfX+JimUid60mfGG4UDdIA4V6JMxKWMHeV/FX8zQKnNAWWxoiBZf25cVvouL/3ZuVOfOkFKITyNZXjO/oHvtP1aIgU38vmrp2QaUy9ILh7ab/YaNtIFRx+QKQpBjZQxRx4xIQSzB9JdGo22cEDVrcUVlUICMDe+8IWVWqHrbU62+xEkmFhdV/2BwBHC9HCG9c1H1twuD2A8CeJQE7+g+NVoXxVw5qg3etCk2C0pyisoxkOTjdr3agLdWOVk47AqxjIMLd6fF0aAtj0QiKiXFVsNbibRhtigG+MBEUyMde+XaXQG1UU5hUR3EJFpuDqtbj2XdLRV1SsaVNyVrA0ghAGzDDyw0sEkaUIFeYsBjgjZU7UQp5zjqufCnC0pS4x5w0lkPu8KAcfZ3eO7V5IE1/VK4Ju5RkFPEfTzE+Fl76QHzy9WglX3C5GzGlVh81z9a3wbZjrNWYcO+LxbEV/sV/w/7eJC7LKeqItTd+uKtwSUT/lyZAFQ4eTIzt1G9GL4bfKahMqcPL7hyZi3Ilgm8dpDTnPLaVlIZH5qysLNy/Puqz7zYz/Ku5igkwwyJs2e5ywjdlu1LR5iAcTJLMgj6sp+ebLklPVI87T6nMh3vG/ZA2KTmquYFBCcurClSg7z7zTmF5nhPNoO0EJyyPE4WIVKpD1ISUnQRe7dTWAX6pEPaa5dpAABupRdLuo3PUGy7OF0tvplGGsfQ53+yvciJdEaxI62lMT+fiN8/MJfBGu2k7bC3rfT/uYWUP30mRnM3kiiGcxfA4uvveaWzK1cFPfXHdBwKIUX2JDW2552J9qX+++zPPKMjXu9GfihmjLQWgBAsEytFENccWO8GI/HeDaZ8LhNcag6B8hWxJ0hTa0Bt3Ct5Ncne7OvCELdRkQy0/IqyrrsxqQFkO0O1wnjAmkBg5rtDcZjdOhJYQrJN0DrflytDK3nsz5Que+JntizKdPOyrbzdBUuRwSHSSPP4QF6VRjWWwDyryR4yKg1gDu+mku/k4TEQY8kK9cjiBZ3YcoYhjBVFSHzg/U9L6n1xetK8BMX1SgsUIfWEuui4g0LE9BfmKcbGYK8hc/m4gL/REAM2Mo5xmb0SAIPRwXLEg4mOYIDMf3QVYi3aFOx/b/dxG1tQ4XPj677ccEQQkz41s/ly7lXa+5iER1J8eBsvPcsuEvTADS/23Rc+GF0khFZ0wh7EtobSQdhXS77czIXK5MDcatSrbkPQ4S960a/bMie61r4o0o1aIxzIUIK9a2vc9t+b1JZffbRNy6EvQHnuKHE8IhMugtyAoVM2lnHm2Dyz2eoe3/+QbX1/4s4wX7NASJKc/BPy1t4JdLjBgFn6Tz7HhJ1DcURacKN8/HjSZR5p1UKSGu4thmCQiyeC1SZuHTPgGFHQp22n5y4YhDqRzKf3I0S44G+wK7wqAyLdSXgUsHsSIUh6vO072WTYF+OnXHZu2Du4y7/ClWc4xYRDidjYtwOXKP3/Faw1VLTYZgy2oGw9TDB+rb6+jrH/CI2OAaWdbOKprE2bN8c3F2VFMxn7VGyo0aTPoKWvWQ0+i4J9RF80OjCg3twjpbTyOig19qPMW2u6cqc4Al2u8/SqYJNJwkQzlkSDn190qd/nWf017OVFnDj3pq9arXdlreX+9AoiEOcAwlQfiXO8hno5ETkwvFgz9dF/HUq93VneyhSDaW8hFxXLbwFS7i66BptKeFCp0Ji17xW5kw/ruICM34dVUw9GCeoXxbtMIeBHJOzdkN5mD6vi8x4XxzRjKTU8ujky4flH6IyBm+4ItRSFh28WuCX5yeUZqSYwdZbgTkARKvl3G1utwXHNppV0hBt88sJSeQtNnfMfhdlwAJMRjYW7u53PukFKHEd/fYSE5LVTp4vLsHg6o1B+KdFO1s/J0jYYF7mxCCQgf66JhJFLsq8s12U+vmICiyctqDBG9IlTzhjfiMK+MOv9ZAU++TKSi4WULqRLHIYWppk6RlaUv4JhWun5wyn9Xfpzcph/znMfyPI/JlW6nErhOzvUl3jWq3CwbSyOmbnT10ypL5cCTBsIVRny6H+IQoPU7rIgT42qB/nMZy8V74fEi8KcjV0TJb+4Q2aOxHz1tHrpi3kIPKesYGhtacaNWqwkrCgyJ2kxd0h5lqtxKzeMAAKeEDLhbx+Pc4OWl1hMeMQmxtGqCdNmfdfMaT+VTd7XXLt+Qt8KQ5XSWBrYAhraTU9tkQffNwsSlEexxV9OiczH/zAlTcsox3DYSRfqzfYJwppmizkNC22F8ddxPi/cONX5y+t7g3uk0iEZ4KyJH4Li/N/5U8uJzb00qBuS1gZQ7PRVcrF72ZvR0AtwX/nTy4HIeVRz5XCSZ9HYG+40DLY/qbmUd9EfZ4L8F3dPFbivlwIakpVG9ZmtyzLv6Gxh2MVFZruekS7RRimtlGJoVDklfMFuaRDs7JGml9T2suwzfAqPQLJtnJx3M7HIM+FSYoJM4+54E5bhUMhTkv3sSThPRispByQVbQUT/fqTLa5GuQuDCuTU2OYzStIKDX4BgWpTa5s1SK8tqVLBDTimubi8eHbeQuq/6FnITQC9wcua4W/2U7Tk6m3giv5xNL0vuWxOk2+BWSt8bzdj1fyI/Ke3L0TqFZPeOJSnEyZXsQ/yuG4guth4om6Qf56fYMwNnS2FKBZ+69V5K/us+OEwUGC9FFO203qT/V3vVDGpe6cs4F8fNbvLOfdgNzT82YIPMMYgRqTwj4LLF8wNGYWaaKCFq4AzpfUt/WMV37UPUHHWSf/zp67lLg2+zFk6bbJBzIZkWTQ3VrlhyjPPaXJEkjxGYvwCaOApAz3OGglFUAmu5NMeglRU29R67tlxK9y3xOtQ5v6wt5K99HIiD38TkVb84j9K3EBUx51Rd/IpTby8qzHrQNryJyW8i4HtLbiFmLNIVll5F+RLLT5m2111W0PfjLnKdOmrFrNVXUO+ay0eNXWajd4jDonDjHsexalqxTUG8X8JP1GtQssC29vJOXtkQmpJAQReECqkgOdd03JO667qG1vrPHOcKBpPIZHTsSivfZiRHyJBvL/OO1zJ4vwCjAcuWuYBZHahfJKA6vvAzRkSn41aq2iHoAY52TaC/d6wlVVsa8kvZmFRLhqSS47bA6GYzVWtP8Evw2cvGzNi0sY10W5Ycd62q0nsbH/Eb8qhHSeBJH9jnA5R73OqOhVQ/e69qSf/vpX6oFQF3P+O1mSnUe3qjiVBhnMV3ArtfrnBj1UErtyA8X6nYRJdUIM+yaJG6XbF5iAfIQMzs6xFUYo7UaOV52hTI3bWf+cqGrEm+w9VZlHCXCmSu0nbWTMyUm+M76M1HOmlqtHDNBZxS1WTognGDA4SusYeSbUOPHII2k8cQoez7+rvbq1ecuWk+MoP5masJoGBdMWelFHLQviFMf3he/WCljbvrjE0L18Ej44gkXx6V4t1SCJPeYLBD67qLMQZPMzUKR6/iA0VBf38kO6p1NqsSFzVejTEpI3ro1PRYIzw0SEvYYJ2nDTZ95aIGT5yVhvRDrDF6Ti+9aqxizLs93ufBKrABz+WNeBRrgg2L/weYZ+b0Jg5RX9mW8kuvwmnnbIkhx0IWkzdw6CAGZvZL+Ne2QSswIr/3wNWd8k600dEyiWD4g9V6cb5r8okMEtsVarb4yCNtgK01myckTxDKVehSxXUeIIu7GidzfMp1zNOpUssQ6HUrLmf76ZQavZgmIdJmXny56iQcnFjwauTyd8xRyY1raeuANq8gd2oF11B22Wfe/C/a9f+YvwSdUN6Uf+2Y6jb+3N9RWaP6YXF1P7MY/NoGUqCMbiQtHla58LfLAIy+6fZEGc8xDvWD0goY3lwJOBei/Kx3GTBDJ+zHKTJXeggUw7IxfazumJQn5q+KAmTxXlbxwqsk5eYX4zAuiUiFaaLx58V745gRmeiuzrP8s9172yf2xHA9zZUGkOYNV7HEP+zpZFrV6q4zyvS5bMkWBWgydlxBQiwcECRXfQNqL0AjlmyHpYJQpwNR8du9jwtMX/K/yM66DEFfI+ZjyLySmkSH1osGA1YC+qz9WhA8RgZ+8JY5DJU+qoz1TQ2YYoGpaI3+e2XkLteRtXBwVbzXZBhw2hjfyazaF29tnvh7FIWYTk4glUVogWwXBaxAT9mch8BdGxPDm0iGSkQjmZ2qwmkRZR5KC05+GQdKirrWhgQMOUNrjzLCYzGCtQcQiNKAVJCCp2rVSVpBG98rja5o83V6DqXUhj4zsseKisHSolxWpnJcveGIEV0e6LS/LbdE1HKjCh95XGmW4d3GDTamzpLP7uUAqtKBSkMzWr2vsrlb4jxY3ZYQ/40F//2g3GAystHmyVvzM5MaSDk24smJkHo3Ps3eM9L7JW6kUm0+N0tR09PEmwelLWDxI7an9WCKZTtYxp+C7Cy3Htqy/3lV5Sw7dnE9uKvIUcvAZw2vMIJ0cUbIwLxgMEi40bZVbZPJIeAHRO595qJmms8br4sFNAh0plFzNjBqR/+XnXLhXw28ZVF9kScswun34wSZSYCAI+eZ2hOOOZV5GFdshX7O2jnuSE9b1khvtpfc6vNiqUJEGD4XpTLvPBr8Hi0VsT689YBkVQAvaWBME2Gtsz3jIeqNJpl45iOAKdZZ+M+TybsD5du1cUQmkWHBoGBz7kUEOMQnM9n5oHIOiIz9hF/LHoS+earhHnN+hY1s4eRgOkjkQFdsgMgc8P2T4uNMsW5+3V2I67MnIRM2pTuybG2nf2bUFrvHD8OTkC40Mg9ryNLjHugACjr1y25GzcM+0wqP/36/ngbdyAH6ZCBqKbqOkyafqq7Uqj8qpGcTJqR8cHOfcjZGJw3/kXX5/HObLENgZKLYapeN8RJgKp8P/Vl4vdma6uo4t+KHZ15SSm2Qsu9aSaowT0V5IN71L2KnmjWLzfXhzroNH1T6mUHrehP5Q5sA2OcEeJ4HPVFwkN+xKpbig6KupFKGSwPRXWqKtfOrhCjKrKIa/hG9Ag+rPejKQRHgimwJpewF3FYFtUbSQc60T0sBj+a5AImhI/wdTE/rK3VMyhr/ph23LdWRNdgcxtDwxPasdwg8g/1a3OTmRlSqYccel5o4tG2pcH4BB16llWudTcDqchwgY/FYaTgrhVoIpvy5ZKSu6E600Pj6WxdfR1eX/dU0j1+/c/J8ytUv/ulRqX3/jElqrmOa4I7E7QjBSvQYbJ8EhjLQlE2B175iuUWg3nCMUzP0yKqMVxxWCwxDhzYlQUyNX+OZrAMmsblI4byJSEr0SwM7d1Xkwe5tOIT28x/nGDhrGKpmPY1LIhJfNBoVt5Yj3FihbTIAQGZTuz5Gpb6eFjWAEUC/RKyWkRkASejcx0hZ+jq2sOYZm8XoTA87ZkqDy8R5ULlYd7nUfF5ju4nqhlf9Vq7GIQ1MJp+7X2rXr7Btp7ZZuFxRhf/O9WDHcdzOkV2D4smvXhWwfrvkmIs/Pg5fBuZ0/vDBfJLvECoQBuGcE4tDt5k+xA8F5cj7Fq2DFjwtDS6KfcYpHB34fNqveRrF7pSUilTxM76wwnzaNTTl2J7Sf75nKPdTPzrK9d/NuugD6O1/utrQSu4An74i2PbwYhI0wTPbu7pzbBii+gdO+a0qmocS6gyMW7zB1ivMzCRVFZEXPJK6V6Me8zwo7oegUMDs+gNUWjmlydSVcui34c0rcNnnhQ9n7LnT3ELaMVL6zgqaVRFAbe9RaDGe8Z5OxR7RRxXIkig20iEmLGCepaSXo4mdOhc/SNikrvQLD3ZCk9riQWLP2GOq9rVT/D/rMDG7JV/CWOZSrFcpRHshH+B8wiQq1LE9h3PEnuEZUYO6LegkvgHQ3qC4SDa/JKmLfmSmA9uzcHFp4VVDwOKnxnU4mlp19ihskIpz0Wsr+s69C1M8xAnFRnpZdNIW9gTYKDQ0meDRJaeOfEKn/9h/pMGY0F2ZXAtBXfCM3k9o4/Ubm8gQb2crxlvuOpILq3Wraoq+VNtZA3IHxRvpkpF6YY5UE5VJYtBHB+ftv1waG4Ga7Sd3Nm1hBjjfT59m5qtCrby37hsa0XeqnDVGYMvf5bYzjsUQgpkokLZn6EdUpH1uEfJY5Kx5qHfUCNccL1vXzfHeUQbFb+RAl//vk/DIdqmpL53fAOSoVlfCRSXWEr/7mFWEt5eLMaQ9hwLTsaTA1RpYuVCP9rZ44jmxFybK+YaekgtemrDnPSdwCWSF/5D/cKq8NgbhiMN4lbUhkHi0Z+wKGX97pZH1Ovzvws+ARBV6Bp7riNwRWuc9A2J3oH/F9cMOowmiA63vT0tyfcH5yavsgUr6II0DbxtgAiUDxW6VCDCXh/YQfXMCQviLLOPOGGiZZ1M8QABLHnm92UV/X67fX5ISoZgEusQAADNaNnTwx8I3d+HdVYA7TLHsO2ToX0vQP0kkDZ5UuVGi0paeR/sG/GdVXwpZsCUvvkU7UFs/hAsHNep+kWJUvvxAyZnJMbH82ARqvWTX812xbsdMOf8DyTeBSdVjDZMr3dDmE4U80fSDuLF01fQ6eAgAFZ8cuLwqQWYw0N4b9+CJt211WgK7wLEdooMWa1TTeBhx+tWArYZUAs/1cmvf+lG0Jebr5u93jpTVyk17aPL+eIUwEz/snQVm72VR6Z93rN3fsCCD0OBGfjYEt6l6ogfZJXOo6g6dMAHgbkAnLDr0YBXf/7VzEo2QO/rQa6iOs/8k6wYfZze1hH9JoMKF3ze1pOFGAShUA8bN3gKm+0giPxMyo589CA9+necpxm5pQFrzgDCJCJLHS0xBKve7ytO8milW1cRvbAENB/O4+q1ym5Sib+g/V3VJI8M2kSDRUgmGMP6yonHjVk/KvZZG+haF/zq4AcMlahkOlZW0CjCdR0Ug4gIRFZUaWuHnao0ybo/KdbEbfuCzfo+P70/bjpWB0u8qxz3VP4Rx20TC9/wKG+3PnU0fbJozXzJBULcLy3o3tMLBImTp6B/pUDAEFl+ZtSRxjhhC0gaYlBgDIWsx9ODdPCcKqJi/4neuju+DKsLlke4i+VfXEHlhnji3eVP52QnNR0zk865VdHyFjfh2AlUsNOIGvIRe90iaIminswIMgq0AWfvSflWVkz3J2o8NUKEFFIYNjK+lJppzbXCp+8lkC4YaUNZAjy1gNyoaMp26iYeyS3N6v6nelAiGdY/Rvm+p83P3/MNsDfEaLsLjB08e/LClY1ZjyDM6E0TiJvfmn2Cv8UyzRb/zAzF9ryAeq+luxS1rkAom+NKZM6KUjvJtMn6Lk1MquBcx3YvdmWkFk3gqWk+GZ2pnylKUA9xujmeI7ecuogIpQbAXbOYAW64zflr8N3y/G7HC5qsX7rbvNgXW/ONY3dUpcZbvgVFmh1ZOBZsjpFhPFJ7f2339UCKtr101rUXB2+ShX0PeBmZCfBxRr3yWXQtdiudPUaATOd9Xi6ckCMslcYDH8bl/hleWSpNuO+7xXbqZexF+j64jQZ2tXBq0TJY3CSPlkrJE/zrFd2ExEqcE2qiaRnWTQGdNrxzsFTAOpgl1VQvdPx8KDzJuVLMoKYklV/5QrQL/tQkJ9c3LidIpdBzcft+d5W3zoODXiDinwHI8eZafxoGmpqxAagOlbP3IRxk5rirWFid6cEgR4wxPwoYeF//KaEBijCsp2Kkp4jgtckXPAR+WR26WXpvBPxysrpFrPLZyuIziWGpamVr/kVCPi4LPjYJGaVq6IGcjuwRCTjj09yLR3af3Ed14bifmFPUzXpC0KxYYs/IeQWxLqUBAR6B5CLnIx9ADq0itHMxolzr17QHE3SpByy3DSXvcbnp1WuSCn/wOMpdiyMho9qVzQWl7GWQBUFRs2I7tGlzZkskFt1avCKBj+XrfqlB3SqCb6JZUZdn5gQTi2M76O12y2FfdUCz7BAaifq5TXFrWfh0crwG6zcUJfuCoQhOmntaHnBYL0PRUnlCegd6X37G18b/EO32qeFUcavZSqeVhX+yP/t69Cc9Qws//VSHkMOQdhyiJfMvMNJBOTAPXFApIpGy7SiPBZ/CVpEh4aH8RmxTztS57dzwkfB9Xzena+lCh9FyaCnPzZhqRWagw1r7u9ijZ2vI+g4nIrYPG8BIfNE8TATVkB1hFg/ChSUbkTH44olD64HaULXEps3aSljCVPrAe0cHYqMQegCoSztNHtp7xaB4f/lRBpR8qAyCihF9QOId3wY5xV6DWG99dhT0YRfktqxY1cxXvHvBy/jMAuyuC9VWuRCegupJh209HpVt3VjUDJ34qYwk4ZTDLSMLLpfgm/+YOZZhrF4kxHn9VNyMBDRebhrr8BhN4BbZ8qndYMaiRhYOyusq5wlFIVeO00wk+L4iqMhWSvSWtE4mrEYqKAB+9iwLu8QC+Dd6/wDCGp2UGSSr0F7une0Fiviw0F+gE9Qu4BmVdgG8OspWtL3TeG6kI2QMfkADVmvzHAuI4tSKt+sGBxz/Mk6zVtD/wy6f6iz9YbdWfX/pqk4NGBioOmr0AIDfq+NQPv+FOh/0+IqMTiIlQOarvRj0mIcCg0mTmaobdly/pcEVpRnBnJma2kSbw4jKq7hZcQYWuL4kErR9lMkxzOjN1Bq7FwuUugWblgwtnWvXQZDoyDPGxxas0GJNa6UWnIz2EhqnkozLEfvqBWoBmzs2FvUpxgzjpv6PfII6tTDq3d7sTjhpEDDG2BMRpRxF2DtAXyi+3RdaLD0aJ+I1rdmE51HF1+XG50CqVKBe4jQf3Avy9owLG58YKDBp5Arh3YuW3Qwaw0evfOE28GzlR0GQR6gpx/uvQ2H23za95Ev13Rkr7EaUjiEjy6jayK1eqHo+mTyrURUCuk2JdBzsQ8/pFQL7BL+69ylSUHbvt4U9wQXUWLnsi7J3fevmcDS0Pcvev5g1ql9CXeJgsWSRyWBo7JZmnCLYkUqnjtO7auZtkeAHxdQ0HMyR/2XjsDelW5mQwgTNQS6nLbmy9ryWMX+cX3yGpSOeOh9T3cD52osKhn+WPEIMuQPN6W/tQe9WnIZeEHbXGZlzPKMGqcBINy3SfvR51PyZ7KXKpogUWBqzwwyxILdbFWfUQ+9pvAoRmDuvYAZhTBolmdfiH/FgBCrjwWTK23jitOcTdkzGJ3OaoyJf59Xx5y1KRxK6Q6K2WQiBCgmf6AIL8pPOtQo7+aBGZEi9aCbYFXlOjvYAiSSOQN1K5/lmFLx3sBnuT995n6CHPHwuiVY+gCQozoxzhFz/N/Kig7OdnTh2/Hgv9iMNnT/vgi1sEfMg+mS+72+kR8aVq731KNh+iUDTv2zn6Gbldx8A/BAPRJ7qEqdZIvPJu8LoQB0V/EcUbVQWTtapZsSAAhQjVpCbEcXBx0mP4rSEMOPJcaVqRHvPq5kqqT/GHATKHXxL+xRVUjxqxYjy+9gVMA41nve1XLf1y0m6iroOnZx7TETqvGQLEflaqwnmrhKoKgPRhDeoyzzp3CwqZ89um/Z7q1AKlAf3mVHomPRLJGDIcCrlgyYxVHr4Dk9w+VeopxDYafGZmcpzrcwopyEPEsuB4ecABQ8VsNxQ2P8YowLOdK3P/+1TB/7Ge0/fIHQdyaSPm4zbThXxufJPxAAvLwpFJNHS4bB9My5OHPsCGY0sH7YMCu6kBijGS1durKxhSaM6iNnpTznMBu6GxAXwE70TlcTo49/96Ux04OsLElszKOMwvMBJmZEWYYa8sc/uup287F17N3pdDPmo6zwO/M4OkDAitFlqPUuJT2Tela62eyQChySvEPBZ9kCyPFWjaA9V1Fu+Yn+0LXgFgBHE/ve4OM2cZaoYrF77cYmF/fih7fy9GdkBhQOEYJt8oxfA0EJcycDW7NkwT+5ocXOjUqDgOkJp9XKfZCZWUGpyt1mcFPe9Gs3xivYzh+nmABS/uRYyXYMH2Ep/+ZfBv1VOXyVQOnniSqeVr2NqGuS9rfFD8uYDFbbXihAFtmcQET/kKHDWAqx4r3jUq2a5U5RjQUIIR4vuafpODDa3TMGzydhylbwhWs8luA5DkZkti4H7HDQNxF2XpkM9h/prtzK6GDtQlolY18WMgzfOJ4zZKHaXCqJGzFGstkO+wKysslgYBTLCxfhC3FUbbpgOV90EzHhF6xrTjgzx45KDxqA3iwRfg7B+nOWzSMRHmC/muNUK9U9sVTmh/qfoo8iGF8m2cdt2oSp7o55wxJttfza8m8AzZe9Dsby8af+a5r3p69Rs1Ll+g77PIYoMAoMvIOoDIZrZB1mcVwbuT7RxTFlajevNmFuIMcBbcwwiHndDLc2nbZf3I89nNAPkFz29IJbxMAfqNXqG4BkQ4Jbsm3od12YehIKMaEiRjwIVMUle4RB4o2Mi1miP3o1dwnXJflKDQr8bQvJfIU4ybla0yYtihh106r3rQ+MnDFjrnd3upsOFnTiF6AUx6PeFV28VgyAOD+Ni1aSwptVzCGTU4T/jE+9GMXhJ6kaTb33hTam8E6M3TNgq8qdEl/ziKiR3d04xkQ9mRDIW+I6K1CRah7BKjYu1OlLAqEZNch9tf1MeYbOTedKYDHls/nEdRI8o3LkXJD7SpGBmq6nW6+pw2gAKeXcaz8TXAT9XLrPqyGgd/YHp7cZ4uD72YWY6KCQfTYSArJU0bXft0vSnmYo1cvA1tjTzi5rTCkVH7J6l52+yweg4/ec6UteD2TtHL0oMFfGtRmB7lcy1pTepgHLPLeQ8FzdVCnB8WPtHUmY65HcLG0bzJIoKlCvR4PqlNe0XUB+u3GsYCjSQHqhr8bER12lqKGqp0MxAFkPLxlXVqmw0fXfhkVyIzu5WoiXrz7Y8MTQdlC8752rmIc1jpQvAAGBxWCxbrulpxIJVbtdM43oZaiPhn6uLWxoXPF/IRJZnbd4X7QMImfTomPBngvVo9i9Hz9uB2GLYlnbiHiw9uU1S3geYBXs5R3Wkx16etVlfTcb8Jla7s3QNscQPLu/0Rvu4ruIbHsGvAoCRYrOM6t8wK4XIztdIg3Qzsm3r3EDgeilcbud2yECP8RydNId114pQrEVuOjJyv3pxYIaaTiEDYHGtwXjYOeL/p8OrlJBZ5qe72o12C5nW88nOdD43WcdxVwljl98B6dHdAXzaUhUf/HeF5Mqit3so+T05FEHzUDdNcQMEyiIoi6v3w2lqm/yZTuFj7D0Yvv/7LP1tCoJ76r4Jy9wR3iqf0SZHPzzwJACodx8AS8x1XjbhtvQlUi9bgjgRlX/Tv6vKJMHaEQQSx4OJg8g1Oim6gSfiOFOcQpkLM8THx1leuLZ9lLTs/lJ/XOvAcKD4qpagzwmNojVabDZm9+2IxBUZ58GnW7Wsh/i/7gRpWxjVBoNWYfK7Q3TRbv5xtS+mZ8piD/XrZfc+h93FI2YCTI0M9Ig/3iHVObWu7dEGDOO/K5o+FHKAHP3plkrdadZjzUstz1mQ+iQud0cTACSIZ2jvb/OJepXP6yzp2cDK2cO7IR2xc7tMIhzr7e4y+zloD9mj0WPvyN2Vd3OzcmpMAyxsAohaICu0iVdTSVsHd7WclMwQOZcZzTSB9nXUpQRRcVoFLeOWpH1IVPNvDjQAqH6my7dPvRYhgx7dz8qMFqOc115E35YFPygqJy20fZKgrv/5RxhVlx3+vCUVaVHwA90vZBkbsGAndmthBwfQy/bQmldSp65TZUjK5xS849CYKKsyZ115xL6iIwEOwkx44ewNzo8TcpR5/c+dsmqU0G4UbxKttt2YjtEVJmWo2fgoec9yWvrdaPi+KpeHR39O3jC+vB7Xhq2XBU2+W2C92oemrzSBaECWRk1I2ACqNPffVZC54lHAX6oK6P1y9QMCvfqZ8YMRuIMRQEyt1zrXxTWvpJSMBXr+n6rWl7qni8PE6etmq4Cy7EWUCIjOBi2IzYZ+dUvAPmG1PQgH+Tzg4Swbf0v5DUW1TTFbQHvEer1cxIHwSiD2TBhCGV2agRp7u3AqIYEJklcviGnn9FJ52By6OASksMQTUJsr/DhRufThd1XukiLNIJFtuCf2NC/3fNmCg/36L5WISkKgIXiW9GZdRW8uzvDmB0XyNrjzbbfnqTYd8penjiTB4Ilm2PGDcpNdIW2F31e0k69aHU8eqZtgiBIYxZsAdK+0sJC3Avmm3PfGrjKp0nJJ9tKHT+xlLGwdCN9bMIrJxMUEKEBy6vHVwE2JImFPTrR51NyEffeq/V0Kzhmw974r3YOSZwQD9ksp1DCdgvYDI0G3rT3ETtFSS6W2B08/I/Vg2glAEfXH+3ZXT2r7XcWkTQJpfO0GRTySFQ6E9tYpHuhg6RG7/NlCNiHeHB2DfncQVQCFr8QQNlOGlMgvou7UpE99RvJMr0MN/Qhfqq08CZML1Rfl1M61yaGsLxSyO9WPHalUMJAF1OoWBDwv4M1DQ1caTqWetAr44Dmksgs4A+unbsXXlL9vRckl1KZ8cI9n+MaHzT+taECVYuHGzQbC3eZaMFbA9JDk6wlcuH/uBVPCiC6Juy9ZhdXWlt2qM07rsJ2h6fZ2S+S6bmHfQCLuS/vhLDNtESA4WQUUCCDrNd6MqjoeKKLtxhHX6YSlOsQKQjYnumNa1Eg2TDZ2PBFsy8MIthQJjtSZEwAc7KZPexLBcJfxWAbiJwEbPD0ayAAAUtsh8PUsHPQChvdoDh5AckBHwkf/qSzfrJOKba8VvD0gP59XigOajFIr6ULADV6kVM9h5/UeKz0Ev8jDGCtH8SaF6ZZOD7ttonG4TwwXEFLlgnJjmDZt3+kosktogvhYSUrG1LufPvcYMKxJ2gHAh7pKQ32YgBYtTIg19GiUcN6COTFqigkLjaTdCoEk5+1JLNd8lmcQErGNlye9uaThV+gLQdxO8Nfc6VQ7iBJPNuOxaQi62NM03nMuyZV9OKBaGbIylU65hH4FOoRzSfdnAB1fvowhVUxGpbXqvpGAnwh8MnaY5N0ZtwwYT3tDWjhjYf95x+A8IdFHAFB5j531QLYJf5oGTUXZcZWi7HLFSmWVUOruiaiLwDNmYZDX7t0S4SoVXwOwqajoVLb1FPrske6mRWf7IhOr96yjfsG3DxQ6l4LCEsnih0Mp00Q2QV9a7qBH62WkoFPG10KpGFWYg/G6i5+vPQ1INTViojUnmETVqFIlz10EyDWhnSrYrA0VzS3VjTRB2o+8cVVARIbUqiIVNvJxz64rWfvIDr16ef9A1NkNFAsXjl6RNszsqfzwuQnu8LETkTAiTvOZfIuJN1zKtc/aZfkVWAlO3SD/bYLYZkL/H4NvFGT1jb5RdRb9kr8iNirDUPJQKzdvxuCaRkhTnj6c/C4bsVODWoyH9qjD38YvMQf8PySmtwB7WKq/frvIVeAsoIRcdbVvgP2y5XT3B3cfQ0/9f6oL9JVsZoG0txfNO8lxjG6K+1qZ8XF3imcJT6XhMe1f5sYKUHPsyl0lyy2tock2Kjl+U3TprP6jz63ki70F3PxzYOQEKbdYcmgtNnylbKLYp367ieVmxenkn/rLuD3OWm2DTjPQOmQP/4IvrS6XU429JNWiwjSbAuarS/07ra6kBfaX+ARinuXBk1/QPsXsWSATPi6k0ewBRlKJlI8O14XciDD4pmC7uw+HyLEtF6EFcMVs/o0kqhRWWJ7ExXry0yANQJOQYWJovcDTHNt9FeplUm2/Gbfk4PAbONHmxxLotP+SH3tfLfefz7RonKeUWAToX5bBDRkecA7fTC33wc5vdoB2CUEDQeUeIQNxXQ3GHqQGpqY3K6wpADKPBk5LbUfcCbAZ/2b7lgnkTAZz3pXIVOcrFO8/zwLECRbVTRSdv1MPmOc0V8tw9xK5cE78SM81kkjtpzCPkrMfBkxyes3GPaufAUXp5bu0DIXilp1rkz/zbcPI0ENPNQWcUunPnFneYN8gOLK80ehwI/BJxF7VK3dcEoiyCuxh0zTeDl5sC7CS453zb1EC/rkgN2iE9mTYKwPrTCtydWJlW8zfN/KSdIkxQiiVx8LuBl+TGCNW+XaIOUFBP7OCwtzzBAKTBJKUQCo+g6sMUKTZ1XRwmUVob+7updpuKId9aAtZLTEYCt9AqFoH2Dh+4JwbW5+qsOLJljpwPFj0Dj3aeULgL+N4cDflds0Ntr+RaY2rZrzmNFel2b5ftQfSsR5YlF79YYcGrRzZ2biByaBCAopNcU31aXmkHlyXTZvL2HDiPaaKvFrGMtI5WhQY5pxu9wu2wUQJWyUDADl8771K3sQ/YljLUhtibY3nI8PubUrWWC2MIudP+Q2ZZO6Lp9SnIZEPm9PYQWQ3DSotqDTLXLidDhHUAA5dLSa75M8n3dDpt/kCy2UInSYJwoaEp4FZIzabsRrHWYA46P5tx8dfjd00Q4iRJTQ2tcyYkI3ONcAOHd2Wfeg1/vlev8wzB+RPFvTrgSurxhHmu1D92h0cAyRr4/1m1scL8dB8gXmW1/vr2pAgVCU1MRrd6zgZH6N1SsNbWLIhHyZb0E98od4WOCnmTRQqsORH8z1cvIQdMrauzf4o6fszZ32OMWEJEX7Zj4o/UkgZg9otbV4HQP+RP57fjqAMxiz9ZYA7WTtZ5hTtdFugrLXsTvOhoPIpFlkgR3F4CoOFryQXtPApZbos9DlORjUhJaddI3neDMHhq9GM5Xl1MsUezyGhyvQWNjAUYA7PplgKLuNA0x9J0ZBIimZF7HSiDa0IuIF/xEpPkbI7aYQ7WkPP3WVTymcSk8UWDd+Nf5NAdWRYR7z9ZLco4+qwRqdhVaP7X+TapMWFMYcQy7VTkMRbdeZ7QdCCD7dn21hTaTKtq53tPSBMu5vkvdZ6CRTBlkTgJqN16M6cG2RtYQ5Sqjk5SMczl6owGelsjWdYCGPWsCZ6vg0cZ72VpJNBITdoau2S9vQtc60wO3xmyDsFzCeE7ogG7eYuUx5Ab5vTKXrNA/vf0FjELsgIYlA4krIGIK+dG/WgdZtrE8c4AEZkf7gHOgeQZwF/cWmIXTyZiDv7tETf6Ql59OU1J87IKRzGDoGFAeP1cYHVKyPpkg9D/0Ji7ppmEqSNwqqmtOWaCg5xUBhCkMoBrfJv3rZ/8mjFm4IrlQ0afDtYxkPAogYnZ3/Mtxix9WXFNt/h0SGhixEKb3lBeIoh91ktStD3nr9IUcOrZnppcGm5y4F9zbqYqQ4JdF4K4OLlGxzGf1uCtUcYAipu7mf7MTE+Av0SWDjpF9o9Cp4ht3aa8k24drm9Sbvd3EuD++LyKL6tcB812f115odn+fdynEkNZ+WUWm+jKIAAcTxj2rvbhIdUGB94gb/0KH3keUmbwKOOmOxQaNXfXWSkmY5o1aJkML2cfY0B7eT4XBg/iLjryWudC1fQyUQ1B5w/L0fEg/Vk5Wg4UgV0ka1Fc6EJL5ctubhgqod0TqeykwESHNyhMInmNdtEcSqt08miwoWjkx1CVeMyLh3UopSgQdUZnEhX98OFmly8j/Dj8Z4lpGn9RyfvOi5YnSCNfaQ4mONVW1IO1pMZynaWb2+gvwgmsejHHgOi9TukF+wRdnkk/zJg9N3zYXAVnytWE89vBZA1yhnKUsveGISUpxdc5mfLfZfJfC+QqyZGv6qGxgYut++9yKx3vh/iGbcAiYn1f5NzDc/2NkCHi5sVpmLE7XLhWR594MZXDA1z+5twshNAx1WFURoB+B+BqId014/hmperEY5aoCUcd9KMuBZGA;" parent="1" vertex="1">
          <mxGeometry x="-429.81999999999994" y="360" width="170" height="170" as="geometry" />
        </mxCell>
        <mxCell id="sL5bWm0NDH6Qrq-3R1cP-31" value="trigger procesu (na podstawie harmonogramu)" style="text;html=1;align=center;verticalAlign=middle;whiteSpace=wrap;rounded=0;" parent="1" vertex="1">
          <mxGeometry x="66.91" y="-210" width="130" height="50" as="geometry" />
        </mxCell>
        <mxCell id="sL5bWm0NDH6Qrq-3R1cP-32" value="" style="endArrow=classic;startArrow=classic;html=1;rounded=0;entryX=0.5;entryY=1;entryDx=0;entryDy=0;exitX=0.5;exitY=0;exitDx=0;exitDy=0;" parent="1" source="sL5bWm0NDH6Qrq-3R1cP-13" target="sL5bWm0NDH6Qrq-3R1cP-29" edge="1">
          <mxGeometry width="50" height="50" relative="1" as="geometry">
            <mxPoint x="-659.8199999999999" y="400" as="sourcePoint" />
            <mxPoint x="-609.8199999999999" y="350" as="targetPoint" />
          </mxGeometry>
        </mxCell>
        <mxCell id="sL5bWm0NDH6Qrq-3R1cP-36" value="" style="rounded=1;whiteSpace=wrap;html=1;strokeColor=#FF8000;" parent="1" vertex="1">
          <mxGeometry x="740" y="310" width="120" height="160" as="geometry" />
        </mxCell>
        <mxCell id="sL5bWm0NDH6Qrq-3R1cP-37" value="&lt;b&gt;email sender&lt;/b&gt;" style="text;html=1;align=center;verticalAlign=middle;whiteSpace=wrap;rounded=0;" parent="1" vertex="1">
          <mxGeometry x="1200" y="284" width="200" height="30" as="geometry" />
        </mxCell>
        <mxCell id="sL5bWm0NDH6Qrq-3R1cP-38" value="" style="shape=image;verticalLabelPosition=bottom;labelBackgroundColor=default;verticalAlign=top;aspect=fixed;imageAspect=0;image=data:image/avif,AAAAHGZ0eXBhdmlmAAAAAGF2aWZtaWYxbWlhZgAAAYRtZXRhAAAAAAAAACFoZGxyAAAAAAAAAABwaWN0AAAAAAAAAAAAAAAAAAAAAA5waXRtAAAAAAABAAAANGlsb2MAAAAAREAAAgACAAAAAAGoAAEAAAAAAAAIcAABAAAAAAoYAAEAAAAAAAAvvQAAADhpaW5mAAAAAAACAAAAFWluZmUCAAAAAAEAAGF2MDEAAAAAFWluZmUCAAAAAAIAAGF2MDEAAAAAw2lwcnAAAACdaXBjbwAAABNjb2xybmNseAABAA0ABoAAAAAMYXYxQ4EAHAAAAAAUaXNwZQAAAAAAAAFCAAABQgAAAA5waXhpAAAAAAEIAAAAOGF1eEMAAAAAdXJuOm1wZWc6bXBlZ0I6Y2ljcDpzeXN0ZW1zOmF1eGlsaWFyeTphbHBoYQAAAAAMYXYxQ4EgAgAAAAAQcGl4aQAAAAADCAgIAAAAHmlwbWEAAAAAAAAAAgABBAGGAwcAAgSCAwSFAAAAGmlyZWYAAAAAAAAADmF1eGwAAgABAAEAADg1bWRhdBIACgYYIig0FhUy4xARAAMMQN1L2InGswLifrIx5yrnH3vIiQP/Vye6+Rlx+VOnJs7OECVAlhKiorAIXHCHeVwmtuu+wYGfvwQunpcliLXu6tWEolZSH6+LYkBcMChVS6iPR0C5MQjNOIKLoI3OsCde6VL0wgAicsqcC5LeB7dLoqarWqx/GUsFQJEkQQDvjZ8HIa+QF5ByZfct+gW5qTHI6HOEwbMzZ0hVuYaIjiGGME+AEtRT16lpaKzm0g7XRKpmZ55SSMQeS0sXi5T/hzM2XKDda9ZdqDr49JOHCMK/INuohfpm/MzQpwVBhT0N3E9QP8BmaWM6q2hSpYtplZ2y3TfOex7Lf7gd1cCm4UTjtAbQg/zBFdI2VOItJ+aybdp4R+DuO0fXJ9bM9as8g8a/85O5Fc8OUszM9z19F1RpV+jAOXQAAQIYjEODnm4cH5dzocFijBvAJwx0ZOeveXYQofBUlBQv3TG6YibwaWDfVs2dvHQbQg1gHp0wEFQYOcifS1XLMbxiVHzwCdtrEAhPsFSHrfgz/p/SXXhrgVNS8vg7MgnyiEaX08ktOJY8iek1myCZtAZulmDuqLFjLLhb2rqFLUoiL+6ZZTU+/OhXtsYDc52osmN6kzcwCqUKcY9QTWNPFlLj2fF6sT5Mt+w2gJGhbrOynyd4UMMd/6vQNVOiSZYjVNgpBoqigf6GeGNya3vbIYBn3SiNtd8/////2UKmWqOxn+mBkpWAJQC4d0z5VgndP7wvJE6abtwZICT4FEBbSV1YQ+CQqlgMbobLhv4AMCDBPOlPdQtnXZmmQybXPuNmivZoIuNDb+ahsNpShUUEOvnqVfVZCqYKHsQrypASU1Cfx6/2D/0Uma1bZFbFrTXdvrJnDCqNGaPZ+cA+JY4gpaxkJGNC9LSX9sqw8S+iyGEPrUnXVGNJ4UmbIniqd3rFuDZAWPSYcWQMgITjsi9NKy2n85h4oNdLyIVXOtR2mBoDnkhLD8rbcSaXRQ+j45fYcWHS+4vPqZRu6paEW9Y6VZ6Te+E7HnOq3p/mA8bMTRJ4gGHA1+CwD/Xtnd7kBGXce6lns9x3mizNcKE83io1QDkm3UHMVQS9QOK+zII1Cw8ow/k/JRRSCzqSiwlieNNRclm4HNUz3ADW2Ql2WVROiBpiyrlelkxHXZWxesHFTZWp3BjXZLBVgXa5S6/16WddTRoGD7ZAflaN0+PsG8xcgDYbAzfcxNTj4sXti6Bq4q2kiWbaeHJeesfQiCeq/DZfmY/00bI/fNxpfr+JkogOWnPBr01zOGcAWJbcEEfHTzXV98li+Yc+wGue7AYZUbE8u8wlUA8mVTvoULVDGW5opUtqiQO8TirNk25wYzKlKcJJ/85llmcTiPhBFYNIhEN6RFjpQJBEI8G/nVIWsfATguou8x35KbUoBQsnUFdaltPJBZUw/V6M9QdQrZP9LAmJoaJlpMHY+RNYx1hqE3jQinuKmU9uJg3enDKYfCt4VoCCRe21ei23zG32Ho6Qbxu39NYvmZVBEOzbCcEd3ldkTS8A0kSTpyGgT2UnlppB87VPEl1vNodoEA+9lvsnrPkZlklC1gVxmTeMAAAAYQxKbZCTf2e8RBK9ix4LooCEbLVS1T61EQnYVUDevO1DToLWqvM0nnRPMrFehhpkTVa4zWgFgOXf5wg9OvSFTWAMZSQvWvvQdMPjfuYShDHn4uiqGXpskJpmiOTHnyOjRoGb7/Sb4SAQeACAVBtoMlrIbGzS7/Vro4WqDccRoHKaOKXNS3SouPFEh3EntgrqOqxT8ZHD6WntV4ZAPXhVMrRzN8jFW7Xi6pMWqXsR2rzzIwsnn3hVy/gjCDLpTS+8Fubkk2NHyzLlIdzV3ZfuWrc5N3RvE7xWnTbm7zr7a1Dr720gf7Yb6eHAa3S2+Nx0Yr3jN17IMVAlNASSe4WG4q/rQ5tYV5lwcE2gm6jmOBGYYmAWR3rb3aBytgMx4j7OMjpomaoektPe9f/hA6kPOKfHHnNr7FeUqlbCrR9qRDUtnekyRSfFO4qBHWAgiyIvAS5BQX/o5VJ6KX69PJtAtYcp15jO+Ks86BSWBIMvLuh17P3UKHF75YwkddIEGGLzBWYNfLVmpH3q5HDN3TkSFhLv//bgWKInSNxk80cAE+YECNhWMDIJWCHrwUcPV5G97DkH71Uihtk630rFjHzV4UgHr/DIwPwhEbQK+Ux9skKxqZYgxtKtfTcd/SFn9A952DNhjNU7TOV+XuAs8g2zJo8CtaU2MG/TwqwlFJxA9nOlVgFCNZzSMcACAZXxPFCtSVc+dIytQXtCWf8GO611fZ39VK1EfiooHu2JDENAohfIISNHcgiyDpn/IkLZsexAV5Tkv+WjFvBnoamfM20WqAb9EkLyN/Dv6wr8NTTZaAgEmkTMRxYKApV6s7i8TnyZA+8xKRP5uAeQJQ626GeIIjcUf0aw6Aqw3phI8FDh/Z22DkncCgIzFdbV3BABBrQRWXwHGC2vSNs+cUkH+X47OeqtFHn72soXduL0hPYo31osUXynuH8kXhrXieGahDnk/PiZaSRh1EkLwTAHOIMoqpLEH5CL0KQAY/0bW41322RMJBfNC/WgU6GCiV8zLPrQkQAPHuOydNAg+VRn8HRUWNZu5xZN1/vGPd9QzQ4Wni2/tuO0rqg/qHB4c4aSgzeA5GyxxlMSbolZcOd0fMMdOaWWncoTh00EHjf05Uxkks3AA69YJGKj5z9RlLD60Nf365BLzLOiJVl+CgQK+PBKSpiB8CNOLZ9738Sx5PX+aUP9hVcC/csklrNzu9YoZkLZSQGPqcRlLaLnV3ZQzGjo3hIc8O8fcGn6LnTR51t9BjM0m58PnVZ5MqP4LHpPWRIACgk4Iig0FhAQ0GkyrV8RAADDDDEA3UuTFKLeinW4WizN4yL3CvKvUw/ieU6Etpi5mTDGg6X6d2cIocqaqE4wxlg2xnM+aah7ReZaX83WF9utoxzgD8dagZWOKp2DJ4r+HZXGGvdOM2q81ULY7u3Lc5NMJ2uOxS2ku5oMe2htiVNAePn44vvisTA9Fsmgl96tWZiX499/NpyWyHCghr31dgjjNN12RQlXZ73YgjfuB4ESYtr9rRArY6BzThE1hegkhyVfFairPJLj4sTkoitZnAOgOR3op41KXrxNZXG/lTstqmicA4A/d0BlpGZMPS0JLDJoZqHmUoT+md2aleioKrf9NbB+lcN7SipHettMv6BKfhkGcp9lQgrFsB2LH0Ptjwjkeui5OXQz0ftCH/hED9j9TijmITU3RC9qmcFyqZwwF+5S9DtWmkaxvhmNaZltL3EdTDC+PtXFJkLAprjizdGXo2ELw9nY8C85DzEy0D6+LT6hyAeGjUw6mnZoOWzXZ1E/SpaWQxtASPvPTOk6Cf72c+Ogqp14sDd5WzUocVrfLXcVSmz8OnlnJfUpHx/fFrlJrYpPY4WvP4H+ww9FLee3qTCCEoS1y36w0nvmkv43KfuYZo9WfX+JimUid60mfGG4UDdIA4V6JMxKWMHeV/FX8zQKnNAWWxoiBZf25cVvouL/3ZuVOfOkFKITyNZXjO/oHvtP1aIgU38vmrp2QaUy9ILh7ab/YaNtIFRx+QKQpBjZQxRx4xIQSzB9JdGo22cEDVrcUVlUICMDe+8IWVWqHrbU62+xEkmFhdV/2BwBHC9HCG9c1H1twuD2A8CeJQE7+g+NVoXxVw5qg3etCk2C0pyisoxkOTjdr3agLdWOVk47AqxjIMLd6fF0aAtj0QiKiXFVsNbibRhtigG+MBEUyMde+XaXQG1UU5hUR3EJFpuDqtbj2XdLRV1SsaVNyVrA0ghAGzDDyw0sEkaUIFeYsBjgjZU7UQp5zjqufCnC0pS4x5w0lkPu8KAcfZ3eO7V5IE1/VK4Ju5RkFPEfTzE+Fl76QHzy9WglX3C5GzGlVh81z9a3wbZjrNWYcO+LxbEV/sV/w/7eJC7LKeqItTd+uKtwSUT/lyZAFQ4eTIzt1G9GL4bfKahMqcPL7hyZi3Ilgm8dpDTnPLaVlIZH5qysLNy/Puqz7zYz/Ku5igkwwyJs2e5ywjdlu1LR5iAcTJLMgj6sp+ebLklPVI87T6nMh3vG/ZA2KTmquYFBCcurClSg7z7zTmF5nhPNoO0EJyyPE4WIVKpD1ISUnQRe7dTWAX6pEPaa5dpAABupRdLuo3PUGy7OF0tvplGGsfQ53+yvciJdEaxI62lMT+fiN8/MJfBGu2k7bC3rfT/uYWUP30mRnM3kiiGcxfA4uvveaWzK1cFPfXHdBwKIUX2JDW2552J9qX+++zPPKMjXu9GfihmjLQWgBAsEytFENccWO8GI/HeDaZ8LhNcag6B8hWxJ0hTa0Bt3Ct5Ncne7OvCELdRkQy0/IqyrrsxqQFkO0O1wnjAmkBg5rtDcZjdOhJYQrJN0DrflytDK3nsz5Que+JntizKdPOyrbzdBUuRwSHSSPP4QF6VRjWWwDyryR4yKg1gDu+mku/k4TEQY8kK9cjiBZ3YcoYhjBVFSHzg/U9L6n1xetK8BMX1SgsUIfWEuui4g0LE9BfmKcbGYK8hc/m4gL/REAM2Mo5xmb0SAIPRwXLEg4mOYIDMf3QVYi3aFOx/b/dxG1tQ4XPj677ccEQQkz41s/ly7lXa+5iER1J8eBsvPcsuEvTADS/23Rc+GF0khFZ0wh7EtobSQdhXS77czIXK5MDcatSrbkPQ4S960a/bMie61r4o0o1aIxzIUIK9a2vc9t+b1JZffbRNy6EvQHnuKHE8IhMugtyAoVM2lnHm2Dyz2eoe3/+QbX1/4s4wX7NASJKc/BPy1t4JdLjBgFn6Tz7HhJ1DcURacKN8/HjSZR5p1UKSGu4thmCQiyeC1SZuHTPgGFHQp22n5y4YhDqRzKf3I0S44G+wK7wqAyLdSXgUsHsSIUh6vO072WTYF+OnXHZu2Du4y7/ClWc4xYRDidjYtwOXKP3/Faw1VLTYZgy2oGw9TDB+rb6+jrH/CI2OAaWdbOKprE2bN8c3F2VFMxn7VGyo0aTPoKWvWQ0+i4J9RF80OjCg3twjpbTyOig19qPMW2u6cqc4Al2u8/SqYJNJwkQzlkSDn190qd/nWf017OVFnDj3pq9arXdlreX+9AoiEOcAwlQfiXO8hno5ETkwvFgz9dF/HUq93VneyhSDaW8hFxXLbwFS7i66BptKeFCp0Ji17xW5kw/ruICM34dVUw9GCeoXxbtMIeBHJOzdkN5mD6vi8x4XxzRjKTU8ujky4flH6IyBm+4ItRSFh28WuCX5yeUZqSYwdZbgTkARKvl3G1utwXHNppV0hBt88sJSeQtNnfMfhdlwAJMRjYW7u53PukFKHEd/fYSE5LVTp4vLsHg6o1B+KdFO1s/J0jYYF7mxCCQgf66JhJFLsq8s12U+vmICiyctqDBG9IlTzhjfiMK+MOv9ZAU++TKSi4WULqRLHIYWppk6RlaUv4JhWun5wyn9Xfpzcph/znMfyPI/JlW6nErhOzvUl3jWq3CwbSyOmbnT10ypL5cCTBsIVRny6H+IQoPU7rIgT42qB/nMZy8V74fEi8KcjV0TJb+4Q2aOxHz1tHrpi3kIPKesYGhtacaNWqwkrCgyJ2kxd0h5lqtxKzeMAAKeEDLhbx+Pc4OWl1hMeMQmxtGqCdNmfdfMaT+VTd7XXLt+Qt8KQ5XSWBrYAhraTU9tkQffNwsSlEexxV9OiczH/zAlTcsox3DYSRfqzfYJwppmizkNC22F8ddxPi/cONX5y+t7g3uk0iEZ4KyJH4Li/N/5U8uJzb00qBuS1gZQ7PRVcrF72ZvR0AtwX/nTy4HIeVRz5XCSZ9HYG+40DLY/qbmUd9EfZ4L8F3dPFbivlwIakpVG9ZmtyzLv6Gxh2MVFZruekS7RRimtlGJoVDklfMFuaRDs7JGml9T2suwzfAqPQLJtnJx3M7HIM+FSYoJM4+54E5bhUMhTkv3sSThPRispByQVbQUT/fqTLa5GuQuDCuTU2OYzStIKDX4BgWpTa5s1SK8tqVLBDTimubi8eHbeQuq/6FnITQC9wcua4W/2U7Tk6m3giv5xNL0vuWxOk2+BWSt8bzdj1fyI/Ke3L0TqFZPeOJSnEyZXsQ/yuG4guth4om6Qf56fYMwNnS2FKBZ+69V5K/us+OEwUGC9FFO203qT/V3vVDGpe6cs4F8fNbvLOfdgNzT82YIPMMYgRqTwj4LLF8wNGYWaaKCFq4AzpfUt/WMV37UPUHHWSf/zp67lLg2+zFk6bbJBzIZkWTQ3VrlhyjPPaXJEkjxGYvwCaOApAz3OGglFUAmu5NMeglRU29R67tlxK9y3xOtQ5v6wt5K99HIiD38TkVb84j9K3EBUx51Rd/IpTby8qzHrQNryJyW8i4HtLbiFmLNIVll5F+RLLT5m2111W0PfjLnKdOmrFrNVXUO+ay0eNXWajd4jDonDjHsexalqxTUG8X8JP1GtQssC29vJOXtkQmpJAQReECqkgOdd03JO667qG1vrPHOcKBpPIZHTsSivfZiRHyJBvL/OO1zJ4vwCjAcuWuYBZHahfJKA6vvAzRkSn41aq2iHoAY52TaC/d6wlVVsa8kvZmFRLhqSS47bA6GYzVWtP8Evw2cvGzNi0sY10W5Ycd62q0nsbH/Eb8qhHSeBJH9jnA5R73OqOhVQ/e69qSf/vpX6oFQF3P+O1mSnUe3qjiVBhnMV3ArtfrnBj1UErtyA8X6nYRJdUIM+yaJG6XbF5iAfIQMzs6xFUYo7UaOV52hTI3bWf+cqGrEm+w9VZlHCXCmSu0nbWTMyUm+M76M1HOmlqtHDNBZxS1WTognGDA4SusYeSbUOPHII2k8cQoez7+rvbq1ecuWk+MoP5masJoGBdMWelFHLQviFMf3he/WCljbvrjE0L18Ej44gkXx6V4t1SCJPeYLBD67qLMQZPMzUKR6/iA0VBf38kO6p1NqsSFzVejTEpI3ro1PRYIzw0SEvYYJ2nDTZ95aIGT5yVhvRDrDF6Ti+9aqxizLs93ufBKrABz+WNeBRrgg2L/weYZ+b0Jg5RX9mW8kuvwmnnbIkhx0IWkzdw6CAGZvZL+Ne2QSswIr/3wNWd8k600dEyiWD4g9V6cb5r8okMEtsVarb4yCNtgK01myckTxDKVehSxXUeIIu7GidzfMp1zNOpUssQ6HUrLmf76ZQavZgmIdJmXny56iQcnFjwauTyd8xRyY1raeuANq8gd2oF11B22Wfe/C/a9f+YvwSdUN6Uf+2Y6jb+3N9RWaP6YXF1P7MY/NoGUqCMbiQtHla58LfLAIy+6fZEGc8xDvWD0goY3lwJOBei/Kx3GTBDJ+zHKTJXeggUw7IxfazumJQn5q+KAmTxXlbxwqsk5eYX4zAuiUiFaaLx58V745gRmeiuzrP8s9172yf2xHA9zZUGkOYNV7HEP+zpZFrV6q4zyvS5bMkWBWgydlxBQiwcECRXfQNqL0AjlmyHpYJQpwNR8du9jwtMX/K/yM66DEFfI+ZjyLySmkSH1osGA1YC+qz9WhA8RgZ+8JY5DJU+qoz1TQ2YYoGpaI3+e2XkLteRtXBwVbzXZBhw2hjfyazaF29tnvh7FIWYTk4glUVogWwXBaxAT9mch8BdGxPDm0iGSkQjmZ2qwmkRZR5KC05+GQdKirrWhgQMOUNrjzLCYzGCtQcQiNKAVJCCp2rVSVpBG98rja5o83V6DqXUhj4zsseKisHSolxWpnJcveGIEV0e6LS/LbdE1HKjCh95XGmW4d3GDTamzpLP7uUAqtKBSkMzWr2vsrlb4jxY3ZYQ/40F//2g3GAystHmyVvzM5MaSDk24smJkHo3Ps3eM9L7JW6kUm0+N0tR09PEmwelLWDxI7an9WCKZTtYxp+C7Cy3Htqy/3lV5Sw7dnE9uKvIUcvAZw2vMIJ0cUbIwLxgMEi40bZVbZPJIeAHRO595qJmms8br4sFNAh0plFzNjBqR/+XnXLhXw28ZVF9kScswun34wSZSYCAI+eZ2hOOOZV5GFdshX7O2jnuSE9b1khvtpfc6vNiqUJEGD4XpTLvPBr8Hi0VsT689YBkVQAvaWBME2Gtsz3jIeqNJpl45iOAKdZZ+M+TybsD5du1cUQmkWHBoGBz7kUEOMQnM9n5oHIOiIz9hF/LHoS+earhHnN+hY1s4eRgOkjkQFdsgMgc8P2T4uNMsW5+3V2I67MnIRM2pTuybG2nf2bUFrvHD8OTkC40Mg9ryNLjHugACjr1y25GzcM+0wqP/36/ngbdyAH6ZCBqKbqOkyafqq7Uqj8qpGcTJqR8cHOfcjZGJw3/kXX5/HObLENgZKLYapeN8RJgKp8P/Vl4vdma6uo4t+KHZ15SSm2Qsu9aSaowT0V5IN71L2KnmjWLzfXhzroNH1T6mUHrehP5Q5sA2OcEeJ4HPVFwkN+xKpbig6KupFKGSwPRXWqKtfOrhCjKrKIa/hG9Ag+rPejKQRHgimwJpewF3FYFtUbSQc60T0sBj+a5AImhI/wdTE/rK3VMyhr/ph23LdWRNdgcxtDwxPasdwg8g/1a3OTmRlSqYccel5o4tG2pcH4BB16llWudTcDqchwgY/FYaTgrhVoIpvy5ZKSu6E600Pj6WxdfR1eX/dU0j1+/c/J8ytUv/ulRqX3/jElqrmOa4I7E7QjBSvQYbJ8EhjLQlE2B175iuUWg3nCMUzP0yKqMVxxWCwxDhzYlQUyNX+OZrAMmsblI4byJSEr0SwM7d1Xkwe5tOIT28x/nGDhrGKpmPY1LIhJfNBoVt5Yj3FihbTIAQGZTuz5Gpb6eFjWAEUC/RKyWkRkASejcx0hZ+jq2sOYZm8XoTA87ZkqDy8R5ULlYd7nUfF5ju4nqhlf9Vq7GIQ1MJp+7X2rXr7Btp7ZZuFxRhf/O9WDHcdzOkV2D4smvXhWwfrvkmIs/Pg5fBuZ0/vDBfJLvECoQBuGcE4tDt5k+xA8F5cj7Fq2DFjwtDS6KfcYpHB34fNqveRrF7pSUilTxM76wwnzaNTTl2J7Sf75nKPdTPzrK9d/NuugD6O1/utrQSu4An74i2PbwYhI0wTPbu7pzbBii+gdO+a0qmocS6gyMW7zB1ivMzCRVFZEXPJK6V6Me8zwo7oegUMDs+gNUWjmlydSVcui34c0rcNnnhQ9n7LnT3ELaMVL6zgqaVRFAbe9RaDGe8Z5OxR7RRxXIkig20iEmLGCepaSXo4mdOhc/SNikrvQLD3ZCk9riQWLP2GOq9rVT/D/rMDG7JV/CWOZSrFcpRHshH+B8wiQq1LE9h3PEnuEZUYO6LegkvgHQ3qC4SDa/JKmLfmSmA9uzcHFp4VVDwOKnxnU4mlp19ihskIpz0Wsr+s69C1M8xAnFRnpZdNIW9gTYKDQ0meDRJaeOfEKn/9h/pMGY0F2ZXAtBXfCM3k9o4/Ubm8gQb2crxlvuOpILq3Wraoq+VNtZA3IHxRvpkpF6YY5UE5VJYtBHB+ftv1waG4Ga7Sd3Nm1hBjjfT59m5qtCrby37hsa0XeqnDVGYMvf5bYzjsUQgpkokLZn6EdUpH1uEfJY5Kx5qHfUCNccL1vXzfHeUQbFb+RAl//vk/DIdqmpL53fAOSoVlfCRSXWEr/7mFWEt5eLMaQ9hwLTsaTA1RpYuVCP9rZ44jmxFybK+YaekgtemrDnPSdwCWSF/5D/cKq8NgbhiMN4lbUhkHi0Z+wKGX97pZH1Ovzvws+ARBV6Bp7riNwRWuc9A2J3oH/F9cMOowmiA63vT0tyfcH5yavsgUr6II0DbxtgAiUDxW6VCDCXh/YQfXMCQviLLOPOGGiZZ1M8QABLHnm92UV/X67fX5ISoZgEusQAADNaNnTwx8I3d+HdVYA7TLHsO2ToX0vQP0kkDZ5UuVGi0paeR/sG/GdVXwpZsCUvvkU7UFs/hAsHNep+kWJUvvxAyZnJMbH82ARqvWTX812xbsdMOf8DyTeBSdVjDZMr3dDmE4U80fSDuLF01fQ6eAgAFZ8cuLwqQWYw0N4b9+CJt211WgK7wLEdooMWa1TTeBhx+tWArYZUAs/1cmvf+lG0Jebr5u93jpTVyk17aPL+eIUwEz/snQVm72VR6Z93rN3fsCCD0OBGfjYEt6l6ogfZJXOo6g6dMAHgbkAnLDr0YBXf/7VzEo2QO/rQa6iOs/8k6wYfZze1hH9JoMKF3ze1pOFGAShUA8bN3gKm+0giPxMyo589CA9+necpxm5pQFrzgDCJCJLHS0xBKve7ytO8milW1cRvbAENB/O4+q1ym5Sib+g/V3VJI8M2kSDRUgmGMP6yonHjVk/KvZZG+haF/zq4AcMlahkOlZW0CjCdR0Ug4gIRFZUaWuHnao0ybo/KdbEbfuCzfo+P70/bjpWB0u8qxz3VP4Rx20TC9/wKG+3PnU0fbJozXzJBULcLy3o3tMLBImTp6B/pUDAEFl+ZtSRxjhhC0gaYlBgDIWsx9ODdPCcKqJi/4neuju+DKsLlke4i+VfXEHlhnji3eVP52QnNR0zk865VdHyFjfh2AlUsNOIGvIRe90iaIminswIMgq0AWfvSflWVkz3J2o8NUKEFFIYNjK+lJppzbXCp+8lkC4YaUNZAjy1gNyoaMp26iYeyS3N6v6nelAiGdY/Rvm+p83P3/MNsDfEaLsLjB08e/LClY1ZjyDM6E0TiJvfmn2Cv8UyzRb/zAzF9ryAeq+luxS1rkAom+NKZM6KUjvJtMn6Lk1MquBcx3YvdmWkFk3gqWk+GZ2pnylKUA9xujmeI7ecuogIpQbAXbOYAW64zflr8N3y/G7HC5qsX7rbvNgXW/ONY3dUpcZbvgVFmh1ZOBZsjpFhPFJ7f2339UCKtr101rUXB2+ShX0PeBmZCfBxRr3yWXQtdiudPUaATOd9Xi6ckCMslcYDH8bl/hleWSpNuO+7xXbqZexF+j64jQZ2tXBq0TJY3CSPlkrJE/zrFd2ExEqcE2qiaRnWTQGdNrxzsFTAOpgl1VQvdPx8KDzJuVLMoKYklV/5QrQL/tQkJ9c3LidIpdBzcft+d5W3zoODXiDinwHI8eZafxoGmpqxAagOlbP3IRxk5rirWFid6cEgR4wxPwoYeF//KaEBijCsp2Kkp4jgtckXPAR+WR26WXpvBPxysrpFrPLZyuIziWGpamVr/kVCPi4LPjYJGaVq6IGcjuwRCTjj09yLR3af3Ed14bifmFPUzXpC0KxYYs/IeQWxLqUBAR6B5CLnIx9ADq0itHMxolzr17QHE3SpByy3DSXvcbnp1WuSCn/wOMpdiyMho9qVzQWl7GWQBUFRs2I7tGlzZkskFt1avCKBj+XrfqlB3SqCb6JZUZdn5gQTi2M76O12y2FfdUCz7BAaifq5TXFrWfh0crwG6zcUJfuCoQhOmntaHnBYL0PRUnlCegd6X37G18b/EO32qeFUcavZSqeVhX+yP/t69Cc9Qws//VSHkMOQdhyiJfMvMNJBOTAPXFApIpGy7SiPBZ/CVpEh4aH8RmxTztS57dzwkfB9Xzena+lCh9FyaCnPzZhqRWagw1r7u9ijZ2vI+g4nIrYPG8BIfNE8TATVkB1hFg/ChSUbkTH44olD64HaULXEps3aSljCVPrAe0cHYqMQegCoSztNHtp7xaB4f/lRBpR8qAyCihF9QOId3wY5xV6DWG99dhT0YRfktqxY1cxXvHvBy/jMAuyuC9VWuRCegupJh209HpVt3VjUDJ34qYwk4ZTDLSMLLpfgm/+YOZZhrF4kxHn9VNyMBDRebhrr8BhN4BbZ8qndYMaiRhYOyusq5wlFIVeO00wk+L4iqMhWSvSWtE4mrEYqKAB+9iwLu8QC+Dd6/wDCGp2UGSSr0F7une0Fiviw0F+gE9Qu4BmVdgG8OspWtL3TeG6kI2QMfkADVmvzHAuI4tSKt+sGBxz/Mk6zVtD/wy6f6iz9YbdWfX/pqk4NGBioOmr0AIDfq+NQPv+FOh/0+IqMTiIlQOarvRj0mIcCg0mTmaobdly/pcEVpRnBnJma2kSbw4jKq7hZcQYWuL4kErR9lMkxzOjN1Bq7FwuUugWblgwtnWvXQZDoyDPGxxas0GJNa6UWnIz2EhqnkozLEfvqBWoBmzs2FvUpxgzjpv6PfII6tTDq3d7sTjhpEDDG2BMRpRxF2DtAXyi+3RdaLD0aJ+I1rdmE51HF1+XG50CqVKBe4jQf3Avy9owLG58YKDBp5Arh3YuW3Qwaw0evfOE28GzlR0GQR6gpx/uvQ2H23za95Ev13Rkr7EaUjiEjy6jayK1eqHo+mTyrURUCuk2JdBzsQ8/pFQL7BL+69ylSUHbvt4U9wQXUWLnsi7J3fevmcDS0Pcvev5g1ql9CXeJgsWSRyWBo7JZmnCLYkUqnjtO7auZtkeAHxdQ0HMyR/2XjsDelW5mQwgTNQS6nLbmy9ryWMX+cX3yGpSOeOh9T3cD52osKhn+WPEIMuQPN6W/tQe9WnIZeEHbXGZlzPKMGqcBINy3SfvR51PyZ7KXKpogUWBqzwwyxILdbFWfUQ+9pvAoRmDuvYAZhTBolmdfiH/FgBCrjwWTK23jitOcTdkzGJ3OaoyJf59Xx5y1KRxK6Q6K2WQiBCgmf6AIL8pPOtQo7+aBGZEi9aCbYFXlOjvYAiSSOQN1K5/lmFLx3sBnuT995n6CHPHwuiVY+gCQozoxzhFz/N/Kig7OdnTh2/Hgv9iMNnT/vgi1sEfMg+mS+72+kR8aVq731KNh+iUDTv2zn6Gbldx8A/BAPRJ7qEqdZIvPJu8LoQB0V/EcUbVQWTtapZsSAAhQjVpCbEcXBx0mP4rSEMOPJcaVqRHvPq5kqqT/GHATKHXxL+xRVUjxqxYjy+9gVMA41nve1XLf1y0m6iroOnZx7TETqvGQLEflaqwnmrhKoKgPRhDeoyzzp3CwqZ89um/Z7q1AKlAf3mVHomPRLJGDIcCrlgyYxVHr4Dk9w+VeopxDYafGZmcpzrcwopyEPEsuB4ecABQ8VsNxQ2P8YowLOdK3P/+1TB/7Ge0/fIHQdyaSPm4zbThXxufJPxAAvLwpFJNHS4bB9My5OHPsCGY0sH7YMCu6kBijGS1durKxhSaM6iNnpTznMBu6GxAXwE70TlcTo49/96Ux04OsLElszKOMwvMBJmZEWYYa8sc/uup287F17N3pdDPmo6zwO/M4OkDAitFlqPUuJT2Tela62eyQChySvEPBZ9kCyPFWjaA9V1Fu+Yn+0LXgFgBHE/ve4OM2cZaoYrF77cYmF/fih7fy9GdkBhQOEYJt8oxfA0EJcycDW7NkwT+5ocXOjUqDgOkJp9XKfZCZWUGpyt1mcFPe9Gs3xivYzh+nmABS/uRYyXYMH2Ep/+ZfBv1VOXyVQOnniSqeVr2NqGuS9rfFD8uYDFbbXihAFtmcQET/kKHDWAqx4r3jUq2a5U5RjQUIIR4vuafpODDa3TMGzydhylbwhWs8luA5DkZkti4H7HDQNxF2XpkM9h/prtzK6GDtQlolY18WMgzfOJ4zZKHaXCqJGzFGstkO+wKysslgYBTLCxfhC3FUbbpgOV90EzHhF6xrTjgzx45KDxqA3iwRfg7B+nOWzSMRHmC/muNUK9U9sVTmh/qfoo8iGF8m2cdt2oSp7o55wxJttfza8m8AzZe9Dsby8af+a5r3p69Rs1Ll+g77PIYoMAoMvIOoDIZrZB1mcVwbuT7RxTFlajevNmFuIMcBbcwwiHndDLc2nbZf3I89nNAPkFz29IJbxMAfqNXqG4BkQ4Jbsm3od12YehIKMaEiRjwIVMUle4RB4o2Mi1miP3o1dwnXJflKDQr8bQvJfIU4ybla0yYtihh106r3rQ+MnDFjrnd3upsOFnTiF6AUx6PeFV28VgyAOD+Ni1aSwptVzCGTU4T/jE+9GMXhJ6kaTb33hTam8E6M3TNgq8qdEl/ziKiR3d04xkQ9mRDIW+I6K1CRah7BKjYu1OlLAqEZNch9tf1MeYbOTedKYDHls/nEdRI8o3LkXJD7SpGBmq6nW6+pw2gAKeXcaz8TXAT9XLrPqyGgd/YHp7cZ4uD72YWY6KCQfTYSArJU0bXft0vSnmYo1cvA1tjTzi5rTCkVH7J6l52+yweg4/ec6UteD2TtHL0oMFfGtRmB7lcy1pTepgHLPLeQ8FzdVCnB8WPtHUmY65HcLG0bzJIoKlCvR4PqlNe0XUB+u3GsYCjSQHqhr8bER12lqKGqp0MxAFkPLxlXVqmw0fXfhkVyIzu5WoiXrz7Y8MTQdlC8752rmIc1jpQvAAGBxWCxbrulpxIJVbtdM43oZaiPhn6uLWxoXPF/IRJZnbd4X7QMImfTomPBngvVo9i9Hz9uB2GLYlnbiHiw9uU1S3geYBXs5R3Wkx16etVlfTcb8Jla7s3QNscQPLu/0Rvu4ruIbHsGvAoCRYrOM6t8wK4XIztdIg3Qzsm3r3EDgeilcbud2yECP8RydNId114pQrEVuOjJyv3pxYIaaTiEDYHGtwXjYOeL/p8OrlJBZ5qe72o12C5nW88nOdD43WcdxVwljl98B6dHdAXzaUhUf/HeF5Mqit3so+T05FEHzUDdNcQMEyiIoi6v3w2lqm/yZTuFj7D0Yvv/7LP1tCoJ76r4Jy9wR3iqf0SZHPzzwJACodx8AS8x1XjbhtvQlUi9bgjgRlX/Tv6vKJMHaEQQSx4OJg8g1Oim6gSfiOFOcQpkLM8THx1leuLZ9lLTs/lJ/XOvAcKD4qpagzwmNojVabDZm9+2IxBUZ58GnW7Wsh/i/7gRpWxjVBoNWYfK7Q3TRbv5xtS+mZ8piD/XrZfc+h93FI2YCTI0M9Ig/3iHVObWu7dEGDOO/K5o+FHKAHP3plkrdadZjzUstz1mQ+iQud0cTACSIZ2jvb/OJepXP6yzp2cDK2cO7IR2xc7tMIhzr7e4y+zloD9mj0WPvyN2Vd3OzcmpMAyxsAohaICu0iVdTSVsHd7WclMwQOZcZzTSB9nXUpQRRcVoFLeOWpH1IVPNvDjQAqH6my7dPvRYhgx7dz8qMFqOc115E35YFPygqJy20fZKgrv/5RxhVlx3+vCUVaVHwA90vZBkbsGAndmthBwfQy/bQmldSp65TZUjK5xS849CYKKsyZ115xL6iIwEOwkx44ewNzo8TcpR5/c+dsmqU0G4UbxKttt2YjtEVJmWo2fgoec9yWvrdaPi+KpeHR39O3jC+vB7Xhq2XBU2+W2C92oemrzSBaECWRk1I2ACqNPffVZC54lHAX6oK6P1y9QMCvfqZ8YMRuIMRQEyt1zrXxTWvpJSMBXr+n6rWl7qni8PE6etmq4Cy7EWUCIjOBi2IzYZ+dUvAPmG1PQgH+Tzg4Swbf0v5DUW1TTFbQHvEer1cxIHwSiD2TBhCGV2agRp7u3AqIYEJklcviGnn9FJ52By6OASksMQTUJsr/DhRufThd1XukiLNIJFtuCf2NC/3fNmCg/36L5WISkKgIXiW9GZdRW8uzvDmB0XyNrjzbbfnqTYd8penjiTB4Ilm2PGDcpNdIW2F31e0k69aHU8eqZtgiBIYxZsAdK+0sJC3Avmm3PfGrjKp0nJJ9tKHT+xlLGwdCN9bMIrJxMUEKEBy6vHVwE2JImFPTrR51NyEffeq/V0Kzhmw974r3YOSZwQD9ksp1DCdgvYDI0G3rT3ETtFSS6W2B08/I/Vg2glAEfXH+3ZXT2r7XcWkTQJpfO0GRTySFQ6E9tYpHuhg6RG7/NlCNiHeHB2DfncQVQCFr8QQNlOGlMgvou7UpE99RvJMr0MN/Qhfqq08CZML1Rfl1M61yaGsLxSyO9WPHalUMJAF1OoWBDwv4M1DQ1caTqWetAr44Dmksgs4A+unbsXXlL9vRckl1KZ8cI9n+MaHzT+taECVYuHGzQbC3eZaMFbA9JDk6wlcuH/uBVPCiC6Juy9ZhdXWlt2qM07rsJ2h6fZ2S+S6bmHfQCLuS/vhLDNtESA4WQUUCCDrNd6MqjoeKKLtxhHX6YSlOsQKQjYnumNa1Eg2TDZ2PBFsy8MIthQJjtSZEwAc7KZPexLBcJfxWAbiJwEbPD0ayAAAUtsh8PUsHPQChvdoDh5AckBHwkf/qSzfrJOKba8VvD0gP59XigOajFIr6ULADV6kVM9h5/UeKz0Ev8jDGCtH8SaF6ZZOD7ttonG4TwwXEFLlgnJjmDZt3+kosktogvhYSUrG1LufPvcYMKxJ2gHAh7pKQ32YgBYtTIg19GiUcN6COTFqigkLjaTdCoEk5+1JLNd8lmcQErGNlye9uaThV+gLQdxO8Nfc6VQ7iBJPNuOxaQi62NM03nMuyZV9OKBaGbIylU65hH4FOoRzSfdnAB1fvowhVUxGpbXqvpGAnwh8MnaY5N0ZtwwYT3tDWjhjYf95x+A8IdFHAFB5j531QLYJf5oGTUXZcZWi7HLFSmWVUOruiaiLwDNmYZDX7t0S4SoVXwOwqajoVLb1FPrske6mRWf7IhOr96yjfsG3DxQ6l4LCEsnih0Mp00Q2QV9a7qBH62WkoFPG10KpGFWYg/G6i5+vPQ1INTViojUnmETVqFIlz10EyDWhnSrYrA0VzS3VjTRB2o+8cVVARIbUqiIVNvJxz64rWfvIDr16ef9A1NkNFAsXjl6RNszsqfzwuQnu8LETkTAiTvOZfIuJN1zKtc/aZfkVWAlO3SD/bYLYZkL/H4NvFGT1jb5RdRb9kr8iNirDUPJQKzdvxuCaRkhTnj6c/C4bsVODWoyH9qjD38YvMQf8PySmtwB7WKq/frvIVeAsoIRcdbVvgP2y5XT3B3cfQ0/9f6oL9JVsZoG0txfNO8lxjG6K+1qZ8XF3imcJT6XhMe1f5sYKUHPsyl0lyy2tock2Kjl+U3TprP6jz63ki70F3PxzYOQEKbdYcmgtNnylbKLYp367ieVmxenkn/rLuD3OWm2DTjPQOmQP/4IvrS6XU429JNWiwjSbAuarS/07ra6kBfaX+ARinuXBk1/QPsXsWSATPi6k0ewBRlKJlI8O14XciDD4pmC7uw+HyLEtF6EFcMVs/o0kqhRWWJ7ExXry0yANQJOQYWJovcDTHNt9FeplUm2/Gbfk4PAbONHmxxLotP+SH3tfLfefz7RonKeUWAToX5bBDRkecA7fTC33wc5vdoB2CUEDQeUeIQNxXQ3GHqQGpqY3K6wpADKPBk5LbUfcCbAZ/2b7lgnkTAZz3pXIVOcrFO8/zwLECRbVTRSdv1MPmOc0V8tw9xK5cE78SM81kkjtpzCPkrMfBkxyes3GPaufAUXp5bu0DIXilp1rkz/zbcPI0ENPNQWcUunPnFneYN8gOLK80ehwI/BJxF7VK3dcEoiyCuxh0zTeDl5sC7CS453zb1EC/rkgN2iE9mTYKwPrTCtydWJlW8zfN/KSdIkxQiiVx8LuBl+TGCNW+XaIOUFBP7OCwtzzBAKTBJKUQCo+g6sMUKTZ1XRwmUVob+7updpuKId9aAtZLTEYCt9AqFoH2Dh+4JwbW5+qsOLJljpwPFj0Dj3aeULgL+N4cDflds0Ntr+RaY2rZrzmNFel2b5ftQfSsR5YlF79YYcGrRzZ2biByaBCAopNcU31aXmkHlyXTZvL2HDiPaaKvFrGMtI5WhQY5pxu9wu2wUQJWyUDADl8771K3sQ/YljLUhtibY3nI8PubUrWWC2MIudP+Q2ZZO6Lp9SnIZEPm9PYQWQ3DSotqDTLXLidDhHUAA5dLSa75M8n3dDpt/kCy2UInSYJwoaEp4FZIzabsRrHWYA46P5tx8dfjd00Q4iRJTQ2tcyYkI3ONcAOHd2Wfeg1/vlev8wzB+RPFvTrgSurxhHmu1D92h0cAyRr4/1m1scL8dB8gXmW1/vr2pAgVCU1MRrd6zgZH6N1SsNbWLIhHyZb0E98od4WOCnmTRQqsORH8z1cvIQdMrauzf4o6fszZ32OMWEJEX7Zj4o/UkgZg9otbV4HQP+RP57fjqAMxiz9ZYA7WTtZ5hTtdFugrLXsTvOhoPIpFlkgR3F4CoOFryQXtPApZbos9DlORjUhJaddI3neDMHhq9GM5Xl1MsUezyGhyvQWNjAUYA7PplgKLuNA0x9J0ZBIimZF7HSiDa0IuIF/xEpPkbI7aYQ7WkPP3WVTymcSk8UWDd+Nf5NAdWRYR7z9ZLco4+qwRqdhVaP7X+TapMWFMYcQy7VTkMRbdeZ7QdCCD7dn21hTaTKtq53tPSBMu5vkvdZ6CRTBlkTgJqN16M6cG2RtYQ5Sqjk5SMczl6owGelsjWdYCGPWsCZ6vg0cZ72VpJNBITdoau2S9vQtc60wO3xmyDsFzCeE7ogG7eYuUx5Ab5vTKXrNA/vf0FjELsgIYlA4krIGIK+dG/WgdZtrE8c4AEZkf7gHOgeQZwF/cWmIXTyZiDv7tETf6Ql59OU1J87IKRzGDoGFAeP1cYHVKyPpkg9D/0Ji7ppmEqSNwqqmtOWaCg5xUBhCkMoBrfJv3rZ/8mjFm4IrlQ0afDtYxkPAogYnZ3/Mtxix9WXFNt/h0SGhixEKb3lBeIoh91ktStD3nr9IUcOrZnppcGm5y4F9zbqYqQ4JdF4K4OLlGxzGf1uCtUcYAipu7mf7MTE+Av0SWDjpF9o9Cp4ht3aa8k24drm9Sbvd3EuD++LyKL6tcB812f115odn+fdynEkNZ+WUWm+jKIAAcTxj2rvbhIdUGB94gb/0KH3keUmbwKOOmOxQaNXfXWSkmY5o1aJkML2cfY0B7eT4XBg/iLjryWudC1fQyUQ1B5w/L0fEg/Vk5Wg4UgV0ka1Fc6EJL5ctubhgqod0TqeykwESHNyhMInmNdtEcSqt08miwoWjkx1CVeMyLh3UopSgQdUZnEhX98OFmly8j/Dj8Z4lpGn9RyfvOi5YnSCNfaQ4mONVW1IO1pMZynaWb2+gvwgmsejHHgOi9TukF+wRdnkk/zJg9N3zYXAVnytWE89vBZA1yhnKUsveGISUpxdc5mfLfZfJfC+QqyZGv6qGxgYut++9yKx3vh/iGbcAiYn1f5NzDc/2NkCHi5sVpmLE7XLhWR594MZXDA1z+5twshNAx1WFURoB+B+BqId014/hmperEY5aoCUcd9KMuBZGA;" parent="1" vertex="1">
          <mxGeometry x="1220" y="320" width="170" height="170" as="geometry" />
        </mxCell>
        <mxCell id="sL5bWm0NDH6Qrq-3R1cP-41" value="" style="image;aspect=fixed;html=1;points=[];align=center;fontSize=12;image=img/lib/azure2/general/Folder_Blank.svg;" parent="1" vertex="1">
          <mxGeometry x="-618.93" y="600" width="147.86" height="120" as="geometry" />
        </mxCell>
        <mxCell id="sL5bWm0NDH6Qrq-3R1cP-40" value="&lt;div&gt;&lt;b&gt;lokalizacja na dysku sieciowym&lt;/b&gt;&lt;/div&gt;&lt;div&gt;&lt;b&gt;do przechowywania plików&lt;/b&gt;&lt;/div&gt;" style="text;html=1;align=center;verticalAlign=middle;whiteSpace=wrap;rounded=0;" parent="1" vertex="1">
          <mxGeometry x="-610" y="650" width="130" height="30" as="geometry" />
        </mxCell>
        <mxCell id="sL5bWm0NDH6Qrq-3R1cP-43" value="&lt;b&gt;API z dostępem do bazy danych produktów&lt;/b&gt;" style="text;html=1;align=center;verticalAlign=middle;whiteSpace=wrap;rounded=0;" parent="1" vertex="1">
          <mxGeometry x="-430" y="-120" width="145.18" height="30" as="geometry" />
        </mxCell>
        <mxCell id="sL5bWm0NDH6Qrq-3R1cP-44" value="" style="shape=image;verticalLabelPosition=bottom;labelBackgroundColor=default;verticalAlign=top;aspect=fixed;imageAspect=0;image=data:image/avif,AAAAHGZ0eXBhdmlmAAAAAGF2aWZtaWYxbWlhZgAAAYRtZXRhAAAAAAAAACFoZGxyAAAAAAAAAABwaWN0AAAAAAAAAAAAAAAAAAAAAA5waXRtAAAAAAABAAAANGlsb2MAAAAAREAAAgACAAAAAAGoAAEAAAAAAAAIcAABAAAAAAoYAAEAAAAAAAAvvQAAADhpaW5mAAAAAAACAAAAFWluZmUCAAAAAAEAAGF2MDEAAAAAFWluZmUCAAAAAAIAAGF2MDEAAAAAw2lwcnAAAACdaXBjbwAAABNjb2xybmNseAABAA0ABoAAAAAMYXYxQ4EAHAAAAAAUaXNwZQAAAAAAAAFCAAABQgAAAA5waXhpAAAAAAEIAAAAOGF1eEMAAAAAdXJuOm1wZWc6bXBlZ0I6Y2ljcDpzeXN0ZW1zOmF1eGlsaWFyeTphbHBoYQAAAAAMYXYxQ4EgAgAAAAAQcGl4aQAAAAADCAgIAAAAHmlwbWEAAAAAAAAAAgABBAGGAwcAAgSCAwSFAAAAGmlyZWYAAAAAAAAADmF1eGwAAgABAAEAADg1bWRhdBIACgYYIig0FhUy4xARAAMMQN1L2InGswLifrIx5yrnH3vIiQP/Vye6+Rlx+VOnJs7OECVAlhKiorAIXHCHeVwmtuu+wYGfvwQunpcliLXu6tWEolZSH6+LYkBcMChVS6iPR0C5MQjNOIKLoI3OsCde6VL0wgAicsqcC5LeB7dLoqarWqx/GUsFQJEkQQDvjZ8HIa+QF5ByZfct+gW5qTHI6HOEwbMzZ0hVuYaIjiGGME+AEtRT16lpaKzm0g7XRKpmZ55SSMQeS0sXi5T/hzM2XKDda9ZdqDr49JOHCMK/INuohfpm/MzQpwVBhT0N3E9QP8BmaWM6q2hSpYtplZ2y3TfOex7Lf7gd1cCm4UTjtAbQg/zBFdI2VOItJ+aybdp4R+DuO0fXJ9bM9as8g8a/85O5Fc8OUszM9z19F1RpV+jAOXQAAQIYjEODnm4cH5dzocFijBvAJwx0ZOeveXYQofBUlBQv3TG6YibwaWDfVs2dvHQbQg1gHp0wEFQYOcifS1XLMbxiVHzwCdtrEAhPsFSHrfgz/p/SXXhrgVNS8vg7MgnyiEaX08ktOJY8iek1myCZtAZulmDuqLFjLLhb2rqFLUoiL+6ZZTU+/OhXtsYDc52osmN6kzcwCqUKcY9QTWNPFlLj2fF6sT5Mt+w2gJGhbrOynyd4UMMd/6vQNVOiSZYjVNgpBoqigf6GeGNya3vbIYBn3SiNtd8/////2UKmWqOxn+mBkpWAJQC4d0z5VgndP7wvJE6abtwZICT4FEBbSV1YQ+CQqlgMbobLhv4AMCDBPOlPdQtnXZmmQybXPuNmivZoIuNDb+ahsNpShUUEOvnqVfVZCqYKHsQrypASU1Cfx6/2D/0Uma1bZFbFrTXdvrJnDCqNGaPZ+cA+JY4gpaxkJGNC9LSX9sqw8S+iyGEPrUnXVGNJ4UmbIniqd3rFuDZAWPSYcWQMgITjsi9NKy2n85h4oNdLyIVXOtR2mBoDnkhLD8rbcSaXRQ+j45fYcWHS+4vPqZRu6paEW9Y6VZ6Te+E7HnOq3p/mA8bMTRJ4gGHA1+CwD/Xtnd7kBGXce6lns9x3mizNcKE83io1QDkm3UHMVQS9QOK+zII1Cw8ow/k/JRRSCzqSiwlieNNRclm4HNUz3ADW2Ql2WVROiBpiyrlelkxHXZWxesHFTZWp3BjXZLBVgXa5S6/16WddTRoGD7ZAflaN0+PsG8xcgDYbAzfcxNTj4sXti6Bq4q2kiWbaeHJeesfQiCeq/DZfmY/00bI/fNxpfr+JkogOWnPBr01zOGcAWJbcEEfHTzXV98li+Yc+wGue7AYZUbE8u8wlUA8mVTvoULVDGW5opUtqiQO8TirNk25wYzKlKcJJ/85llmcTiPhBFYNIhEN6RFjpQJBEI8G/nVIWsfATguou8x35KbUoBQsnUFdaltPJBZUw/V6M9QdQrZP9LAmJoaJlpMHY+RNYx1hqE3jQinuKmU9uJg3enDKYfCt4VoCCRe21ei23zG32Ho6Qbxu39NYvmZVBEOzbCcEd3ldkTS8A0kSTpyGgT2UnlppB87VPEl1vNodoEA+9lvsnrPkZlklC1gVxmTeMAAAAYQxKbZCTf2e8RBK9ix4LooCEbLVS1T61EQnYVUDevO1DToLWqvM0nnRPMrFehhpkTVa4zWgFgOXf5wg9OvSFTWAMZSQvWvvQdMPjfuYShDHn4uiqGXpskJpmiOTHnyOjRoGb7/Sb4SAQeACAVBtoMlrIbGzS7/Vro4WqDccRoHKaOKXNS3SouPFEh3EntgrqOqxT8ZHD6WntV4ZAPXhVMrRzN8jFW7Xi6pMWqXsR2rzzIwsnn3hVy/gjCDLpTS+8Fubkk2NHyzLlIdzV3ZfuWrc5N3RvE7xWnTbm7zr7a1Dr720gf7Yb6eHAa3S2+Nx0Yr3jN17IMVAlNASSe4WG4q/rQ5tYV5lwcE2gm6jmOBGYYmAWR3rb3aBytgMx4j7OMjpomaoektPe9f/hA6kPOKfHHnNr7FeUqlbCrR9qRDUtnekyRSfFO4qBHWAgiyIvAS5BQX/o5VJ6KX69PJtAtYcp15jO+Ks86BSWBIMvLuh17P3UKHF75YwkddIEGGLzBWYNfLVmpH3q5HDN3TkSFhLv//bgWKInSNxk80cAE+YECNhWMDIJWCHrwUcPV5G97DkH71Uihtk630rFjHzV4UgHr/DIwPwhEbQK+Ux9skKxqZYgxtKtfTcd/SFn9A952DNhjNU7TOV+XuAs8g2zJo8CtaU2MG/TwqwlFJxA9nOlVgFCNZzSMcACAZXxPFCtSVc+dIytQXtCWf8GO611fZ39VK1EfiooHu2JDENAohfIISNHcgiyDpn/IkLZsexAV5Tkv+WjFvBnoamfM20WqAb9EkLyN/Dv6wr8NTTZaAgEmkTMRxYKApV6s7i8TnyZA+8xKRP5uAeQJQ626GeIIjcUf0aw6Aqw3phI8FDh/Z22DkncCgIzFdbV3BABBrQRWXwHGC2vSNs+cUkH+X47OeqtFHn72soXduL0hPYo31osUXynuH8kXhrXieGahDnk/PiZaSRh1EkLwTAHOIMoqpLEH5CL0KQAY/0bW41322RMJBfNC/WgU6GCiV8zLPrQkQAPHuOydNAg+VRn8HRUWNZu5xZN1/vGPd9QzQ4Wni2/tuO0rqg/qHB4c4aSgzeA5GyxxlMSbolZcOd0fMMdOaWWncoTh00EHjf05Uxkks3AA69YJGKj5z9RlLD60Nf365BLzLOiJVl+CgQK+PBKSpiB8CNOLZ9738Sx5PX+aUP9hVcC/csklrNzu9YoZkLZSQGPqcRlLaLnV3ZQzGjo3hIc8O8fcGn6LnTR51t9BjM0m58PnVZ5MqP4LHpPWRIACgk4Iig0FhAQ0GkyrV8RAADDDDEA3UuTFKLeinW4WizN4yL3CvKvUw/ieU6Etpi5mTDGg6X6d2cIocqaqE4wxlg2xnM+aah7ReZaX83WF9utoxzgD8dagZWOKp2DJ4r+HZXGGvdOM2q81ULY7u3Lc5NMJ2uOxS2ku5oMe2htiVNAePn44vvisTA9Fsmgl96tWZiX499/NpyWyHCghr31dgjjNN12RQlXZ73YgjfuB4ESYtr9rRArY6BzThE1hegkhyVfFairPJLj4sTkoitZnAOgOR3op41KXrxNZXG/lTstqmicA4A/d0BlpGZMPS0JLDJoZqHmUoT+md2aleioKrf9NbB+lcN7SipHettMv6BKfhkGcp9lQgrFsB2LH0Ptjwjkeui5OXQz0ftCH/hED9j9TijmITU3RC9qmcFyqZwwF+5S9DtWmkaxvhmNaZltL3EdTDC+PtXFJkLAprjizdGXo2ELw9nY8C85DzEy0D6+LT6hyAeGjUw6mnZoOWzXZ1E/SpaWQxtASPvPTOk6Cf72c+Ogqp14sDd5WzUocVrfLXcVSmz8OnlnJfUpHx/fFrlJrYpPY4WvP4H+ww9FLee3qTCCEoS1y36w0nvmkv43KfuYZo9WfX+JimUid60mfGG4UDdIA4V6JMxKWMHeV/FX8zQKnNAWWxoiBZf25cVvouL/3ZuVOfOkFKITyNZXjO/oHvtP1aIgU38vmrp2QaUy9ILh7ab/YaNtIFRx+QKQpBjZQxRx4xIQSzB9JdGo22cEDVrcUVlUICMDe+8IWVWqHrbU62+xEkmFhdV/2BwBHC9HCG9c1H1twuD2A8CeJQE7+g+NVoXxVw5qg3etCk2C0pyisoxkOTjdr3agLdWOVk47AqxjIMLd6fF0aAtj0QiKiXFVsNbibRhtigG+MBEUyMde+XaXQG1UU5hUR3EJFpuDqtbj2XdLRV1SsaVNyVrA0ghAGzDDyw0sEkaUIFeYsBjgjZU7UQp5zjqufCnC0pS4x5w0lkPu8KAcfZ3eO7V5IE1/VK4Ju5RkFPEfTzE+Fl76QHzy9WglX3C5GzGlVh81z9a3wbZjrNWYcO+LxbEV/sV/w/7eJC7LKeqItTd+uKtwSUT/lyZAFQ4eTIzt1G9GL4bfKahMqcPL7hyZi3Ilgm8dpDTnPLaVlIZH5qysLNy/Puqz7zYz/Ku5igkwwyJs2e5ywjdlu1LR5iAcTJLMgj6sp+ebLklPVI87T6nMh3vG/ZA2KTmquYFBCcurClSg7z7zTmF5nhPNoO0EJyyPE4WIVKpD1ISUnQRe7dTWAX6pEPaa5dpAABupRdLuo3PUGy7OF0tvplGGsfQ53+yvciJdEaxI62lMT+fiN8/MJfBGu2k7bC3rfT/uYWUP30mRnM3kiiGcxfA4uvveaWzK1cFPfXHdBwKIUX2JDW2552J9qX+++zPPKMjXu9GfihmjLQWgBAsEytFENccWO8GI/HeDaZ8LhNcag6B8hWxJ0hTa0Bt3Ct5Ncne7OvCELdRkQy0/IqyrrsxqQFkO0O1wnjAmkBg5rtDcZjdOhJYQrJN0DrflytDK3nsz5Que+JntizKdPOyrbzdBUuRwSHSSPP4QF6VRjWWwDyryR4yKg1gDu+mku/k4TEQY8kK9cjiBZ3YcoYhjBVFSHzg/U9L6n1xetK8BMX1SgsUIfWEuui4g0LE9BfmKcbGYK8hc/m4gL/REAM2Mo5xmb0SAIPRwXLEg4mOYIDMf3QVYi3aFOx/b/dxG1tQ4XPj677ccEQQkz41s/ly7lXa+5iER1J8eBsvPcsuEvTADS/23Rc+GF0khFZ0wh7EtobSQdhXS77czIXK5MDcatSrbkPQ4S960a/bMie61r4o0o1aIxzIUIK9a2vc9t+b1JZffbRNy6EvQHnuKHE8IhMugtyAoVM2lnHm2Dyz2eoe3/+QbX1/4s4wX7NASJKc/BPy1t4JdLjBgFn6Tz7HhJ1DcURacKN8/HjSZR5p1UKSGu4thmCQiyeC1SZuHTPgGFHQp22n5y4YhDqRzKf3I0S44G+wK7wqAyLdSXgUsHsSIUh6vO072WTYF+OnXHZu2Du4y7/ClWc4xYRDidjYtwOXKP3/Faw1VLTYZgy2oGw9TDB+rb6+jrH/CI2OAaWdbOKprE2bN8c3F2VFMxn7VGyo0aTPoKWvWQ0+i4J9RF80OjCg3twjpbTyOig19qPMW2u6cqc4Al2u8/SqYJNJwkQzlkSDn190qd/nWf017OVFnDj3pq9arXdlreX+9AoiEOcAwlQfiXO8hno5ETkwvFgz9dF/HUq93VneyhSDaW8hFxXLbwFS7i66BptKeFCp0Ji17xW5kw/ruICM34dVUw9GCeoXxbtMIeBHJOzdkN5mD6vi8x4XxzRjKTU8ujky4flH6IyBm+4ItRSFh28WuCX5yeUZqSYwdZbgTkARKvl3G1utwXHNppV0hBt88sJSeQtNnfMfhdlwAJMRjYW7u53PukFKHEd/fYSE5LVTp4vLsHg6o1B+KdFO1s/J0jYYF7mxCCQgf66JhJFLsq8s12U+vmICiyctqDBG9IlTzhjfiMK+MOv9ZAU++TKSi4WULqRLHIYWppk6RlaUv4JhWun5wyn9Xfpzcph/znMfyPI/JlW6nErhOzvUl3jWq3CwbSyOmbnT10ypL5cCTBsIVRny6H+IQoPU7rIgT42qB/nMZy8V74fEi8KcjV0TJb+4Q2aOxHz1tHrpi3kIPKesYGhtacaNWqwkrCgyJ2kxd0h5lqtxKzeMAAKeEDLhbx+Pc4OWl1hMeMQmxtGqCdNmfdfMaT+VTd7XXLt+Qt8KQ5XSWBrYAhraTU9tkQffNwsSlEexxV9OiczH/zAlTcsox3DYSRfqzfYJwppmizkNC22F8ddxPi/cONX5y+t7g3uk0iEZ4KyJH4Li/N/5U8uJzb00qBuS1gZQ7PRVcrF72ZvR0AtwX/nTy4HIeVRz5XCSZ9HYG+40DLY/qbmUd9EfZ4L8F3dPFbivlwIakpVG9ZmtyzLv6Gxh2MVFZruekS7RRimtlGJoVDklfMFuaRDs7JGml9T2suwzfAqPQLJtnJx3M7HIM+FSYoJM4+54E5bhUMhTkv3sSThPRispByQVbQUT/fqTLa5GuQuDCuTU2OYzStIKDX4BgWpTa5s1SK8tqVLBDTimubi8eHbeQuq/6FnITQC9wcua4W/2U7Tk6m3giv5xNL0vuWxOk2+BWSt8bzdj1fyI/Ke3L0TqFZPeOJSnEyZXsQ/yuG4guth4om6Qf56fYMwNnS2FKBZ+69V5K/us+OEwUGC9FFO203qT/V3vVDGpe6cs4F8fNbvLOfdgNzT82YIPMMYgRqTwj4LLF8wNGYWaaKCFq4AzpfUt/WMV37UPUHHWSf/zp67lLg2+zFk6bbJBzIZkWTQ3VrlhyjPPaXJEkjxGYvwCaOApAz3OGglFUAmu5NMeglRU29R67tlxK9y3xOtQ5v6wt5K99HIiD38TkVb84j9K3EBUx51Rd/IpTby8qzHrQNryJyW8i4HtLbiFmLNIVll5F+RLLT5m2111W0PfjLnKdOmrFrNVXUO+ay0eNXWajd4jDonDjHsexalqxTUG8X8JP1GtQssC29vJOXtkQmpJAQReECqkgOdd03JO667qG1vrPHOcKBpPIZHTsSivfZiRHyJBvL/OO1zJ4vwCjAcuWuYBZHahfJKA6vvAzRkSn41aq2iHoAY52TaC/d6wlVVsa8kvZmFRLhqSS47bA6GYzVWtP8Evw2cvGzNi0sY10W5Ycd62q0nsbH/Eb8qhHSeBJH9jnA5R73OqOhVQ/e69qSf/vpX6oFQF3P+O1mSnUe3qjiVBhnMV3ArtfrnBj1UErtyA8X6nYRJdUIM+yaJG6XbF5iAfIQMzs6xFUYo7UaOV52hTI3bWf+cqGrEm+w9VZlHCXCmSu0nbWTMyUm+M76M1HOmlqtHDNBZxS1WTognGDA4SusYeSbUOPHII2k8cQoez7+rvbq1ecuWk+MoP5masJoGBdMWelFHLQviFMf3he/WCljbvrjE0L18Ej44gkXx6V4t1SCJPeYLBD67qLMQZPMzUKR6/iA0VBf38kO6p1NqsSFzVejTEpI3ro1PRYIzw0SEvYYJ2nDTZ95aIGT5yVhvRDrDF6Ti+9aqxizLs93ufBKrABz+WNeBRrgg2L/weYZ+b0Jg5RX9mW8kuvwmnnbIkhx0IWkzdw6CAGZvZL+Ne2QSswIr/3wNWd8k600dEyiWD4g9V6cb5r8okMEtsVarb4yCNtgK01myckTxDKVehSxXUeIIu7GidzfMp1zNOpUssQ6HUrLmf76ZQavZgmIdJmXny56iQcnFjwauTyd8xRyY1raeuANq8gd2oF11B22Wfe/C/a9f+YvwSdUN6Uf+2Y6jb+3N9RWaP6YXF1P7MY/NoGUqCMbiQtHla58LfLAIy+6fZEGc8xDvWD0goY3lwJOBei/Kx3GTBDJ+zHKTJXeggUw7IxfazumJQn5q+KAmTxXlbxwqsk5eYX4zAuiUiFaaLx58V745gRmeiuzrP8s9172yf2xHA9zZUGkOYNV7HEP+zpZFrV6q4zyvS5bMkWBWgydlxBQiwcECRXfQNqL0AjlmyHpYJQpwNR8du9jwtMX/K/yM66DEFfI+ZjyLySmkSH1osGA1YC+qz9WhA8RgZ+8JY5DJU+qoz1TQ2YYoGpaI3+e2XkLteRtXBwVbzXZBhw2hjfyazaF29tnvh7FIWYTk4glUVogWwXBaxAT9mch8BdGxPDm0iGSkQjmZ2qwmkRZR5KC05+GQdKirrWhgQMOUNrjzLCYzGCtQcQiNKAVJCCp2rVSVpBG98rja5o83V6DqXUhj4zsseKisHSolxWpnJcveGIEV0e6LS/LbdE1HKjCh95XGmW4d3GDTamzpLP7uUAqtKBSkMzWr2vsrlb4jxY3ZYQ/40F//2g3GAystHmyVvzM5MaSDk24smJkHo3Ps3eM9L7JW6kUm0+N0tR09PEmwelLWDxI7an9WCKZTtYxp+C7Cy3Htqy/3lV5Sw7dnE9uKvIUcvAZw2vMIJ0cUbIwLxgMEi40bZVbZPJIeAHRO595qJmms8br4sFNAh0plFzNjBqR/+XnXLhXw28ZVF9kScswun34wSZSYCAI+eZ2hOOOZV5GFdshX7O2jnuSE9b1khvtpfc6vNiqUJEGD4XpTLvPBr8Hi0VsT689YBkVQAvaWBME2Gtsz3jIeqNJpl45iOAKdZZ+M+TybsD5du1cUQmkWHBoGBz7kUEOMQnM9n5oHIOiIz9hF/LHoS+earhHnN+hY1s4eRgOkjkQFdsgMgc8P2T4uNMsW5+3V2I67MnIRM2pTuybG2nf2bUFrvHD8OTkC40Mg9ryNLjHugACjr1y25GzcM+0wqP/36/ngbdyAH6ZCBqKbqOkyafqq7Uqj8qpGcTJqR8cHOfcjZGJw3/kXX5/HObLENgZKLYapeN8RJgKp8P/Vl4vdma6uo4t+KHZ15SSm2Qsu9aSaowT0V5IN71L2KnmjWLzfXhzroNH1T6mUHrehP5Q5sA2OcEeJ4HPVFwkN+xKpbig6KupFKGSwPRXWqKtfOrhCjKrKIa/hG9Ag+rPejKQRHgimwJpewF3FYFtUbSQc60T0sBj+a5AImhI/wdTE/rK3VMyhr/ph23LdWRNdgcxtDwxPasdwg8g/1a3OTmRlSqYccel5o4tG2pcH4BB16llWudTcDqchwgY/FYaTgrhVoIpvy5ZKSu6E600Pj6WxdfR1eX/dU0j1+/c/J8ytUv/ulRqX3/jElqrmOa4I7E7QjBSvQYbJ8EhjLQlE2B175iuUWg3nCMUzP0yKqMVxxWCwxDhzYlQUyNX+OZrAMmsblI4byJSEr0SwM7d1Xkwe5tOIT28x/nGDhrGKpmPY1LIhJfNBoVt5Yj3FihbTIAQGZTuz5Gpb6eFjWAEUC/RKyWkRkASejcx0hZ+jq2sOYZm8XoTA87ZkqDy8R5ULlYd7nUfF5ju4nqhlf9Vq7GIQ1MJp+7X2rXr7Btp7ZZuFxRhf/O9WDHcdzOkV2D4smvXhWwfrvkmIs/Pg5fBuZ0/vDBfJLvECoQBuGcE4tDt5k+xA8F5cj7Fq2DFjwtDS6KfcYpHB34fNqveRrF7pSUilTxM76wwnzaNTTl2J7Sf75nKPdTPzrK9d/NuugD6O1/utrQSu4An74i2PbwYhI0wTPbu7pzbBii+gdO+a0qmocS6gyMW7zB1ivMzCRVFZEXPJK6V6Me8zwo7oegUMDs+gNUWjmlydSVcui34c0rcNnnhQ9n7LnT3ELaMVL6zgqaVRFAbe9RaDGe8Z5OxR7RRxXIkig20iEmLGCepaSXo4mdOhc/SNikrvQLD3ZCk9riQWLP2GOq9rVT/D/rMDG7JV/CWOZSrFcpRHshH+B8wiQq1LE9h3PEnuEZUYO6LegkvgHQ3qC4SDa/JKmLfmSmA9uzcHFp4VVDwOKnxnU4mlp19ihskIpz0Wsr+s69C1M8xAnFRnpZdNIW9gTYKDQ0meDRJaeOfEKn/9h/pMGY0F2ZXAtBXfCM3k9o4/Ubm8gQb2crxlvuOpILq3Wraoq+VNtZA3IHxRvpkpF6YY5UE5VJYtBHB+ftv1waG4Ga7Sd3Nm1hBjjfT59m5qtCrby37hsa0XeqnDVGYMvf5bYzjsUQgpkokLZn6EdUpH1uEfJY5Kx5qHfUCNccL1vXzfHeUQbFb+RAl//vk/DIdqmpL53fAOSoVlfCRSXWEr/7mFWEt5eLMaQ9hwLTsaTA1RpYuVCP9rZ44jmxFybK+YaekgtemrDnPSdwCWSF/5D/cKq8NgbhiMN4lbUhkHi0Z+wKGX97pZH1Ovzvws+ARBV6Bp7riNwRWuc9A2J3oH/F9cMOowmiA63vT0tyfcH5yavsgUr6II0DbxtgAiUDxW6VCDCXh/YQfXMCQviLLOPOGGiZZ1M8QABLHnm92UV/X67fX5ISoZgEusQAADNaNnTwx8I3d+HdVYA7TLHsO2ToX0vQP0kkDZ5UuVGi0paeR/sG/GdVXwpZsCUvvkU7UFs/hAsHNep+kWJUvvxAyZnJMbH82ARqvWTX812xbsdMOf8DyTeBSdVjDZMr3dDmE4U80fSDuLF01fQ6eAgAFZ8cuLwqQWYw0N4b9+CJt211WgK7wLEdooMWa1TTeBhx+tWArYZUAs/1cmvf+lG0Jebr5u93jpTVyk17aPL+eIUwEz/snQVm72VR6Z93rN3fsCCD0OBGfjYEt6l6ogfZJXOo6g6dMAHgbkAnLDr0YBXf/7VzEo2QO/rQa6iOs/8k6wYfZze1hH9JoMKF3ze1pOFGAShUA8bN3gKm+0giPxMyo589CA9+necpxm5pQFrzgDCJCJLHS0xBKve7ytO8milW1cRvbAENB/O4+q1ym5Sib+g/V3VJI8M2kSDRUgmGMP6yonHjVk/KvZZG+haF/zq4AcMlahkOlZW0CjCdR0Ug4gIRFZUaWuHnao0ybo/KdbEbfuCzfo+P70/bjpWB0u8qxz3VP4Rx20TC9/wKG+3PnU0fbJozXzJBULcLy3o3tMLBImTp6B/pUDAEFl+ZtSRxjhhC0gaYlBgDIWsx9ODdPCcKqJi/4neuju+DKsLlke4i+VfXEHlhnji3eVP52QnNR0zk865VdHyFjfh2AlUsNOIGvIRe90iaIminswIMgq0AWfvSflWVkz3J2o8NUKEFFIYNjK+lJppzbXCp+8lkC4YaUNZAjy1gNyoaMp26iYeyS3N6v6nelAiGdY/Rvm+p83P3/MNsDfEaLsLjB08e/LClY1ZjyDM6E0TiJvfmn2Cv8UyzRb/zAzF9ryAeq+luxS1rkAom+NKZM6KUjvJtMn6Lk1MquBcx3YvdmWkFk3gqWk+GZ2pnylKUA9xujmeI7ecuogIpQbAXbOYAW64zflr8N3y/G7HC5qsX7rbvNgXW/ONY3dUpcZbvgVFmh1ZOBZsjpFhPFJ7f2339UCKtr101rUXB2+ShX0PeBmZCfBxRr3yWXQtdiudPUaATOd9Xi6ckCMslcYDH8bl/hleWSpNuO+7xXbqZexF+j64jQZ2tXBq0TJY3CSPlkrJE/zrFd2ExEqcE2qiaRnWTQGdNrxzsFTAOpgl1VQvdPx8KDzJuVLMoKYklV/5QrQL/tQkJ9c3LidIpdBzcft+d5W3zoODXiDinwHI8eZafxoGmpqxAagOlbP3IRxk5rirWFid6cEgR4wxPwoYeF//KaEBijCsp2Kkp4jgtckXPAR+WR26WXpvBPxysrpFrPLZyuIziWGpamVr/kVCPi4LPjYJGaVq6IGcjuwRCTjj09yLR3af3Ed14bifmFPUzXpC0KxYYs/IeQWxLqUBAR6B5CLnIx9ADq0itHMxolzr17QHE3SpByy3DSXvcbnp1WuSCn/wOMpdiyMho9qVzQWl7GWQBUFRs2I7tGlzZkskFt1avCKBj+XrfqlB3SqCb6JZUZdn5gQTi2M76O12y2FfdUCz7BAaifq5TXFrWfh0crwG6zcUJfuCoQhOmntaHnBYL0PRUnlCegd6X37G18b/EO32qeFUcavZSqeVhX+yP/t69Cc9Qws//VSHkMOQdhyiJfMvMNJBOTAPXFApIpGy7SiPBZ/CVpEh4aH8RmxTztS57dzwkfB9Xzena+lCh9FyaCnPzZhqRWagw1r7u9ijZ2vI+g4nIrYPG8BIfNE8TATVkB1hFg/ChSUbkTH44olD64HaULXEps3aSljCVPrAe0cHYqMQegCoSztNHtp7xaB4f/lRBpR8qAyCihF9QOId3wY5xV6DWG99dhT0YRfktqxY1cxXvHvBy/jMAuyuC9VWuRCegupJh209HpVt3VjUDJ34qYwk4ZTDLSMLLpfgm/+YOZZhrF4kxHn9VNyMBDRebhrr8BhN4BbZ8qndYMaiRhYOyusq5wlFIVeO00wk+L4iqMhWSvSWtE4mrEYqKAB+9iwLu8QC+Dd6/wDCGp2UGSSr0F7une0Fiviw0F+gE9Qu4BmVdgG8OspWtL3TeG6kI2QMfkADVmvzHAuI4tSKt+sGBxz/Mk6zVtD/wy6f6iz9YbdWfX/pqk4NGBioOmr0AIDfq+NQPv+FOh/0+IqMTiIlQOarvRj0mIcCg0mTmaobdly/pcEVpRnBnJma2kSbw4jKq7hZcQYWuL4kErR9lMkxzOjN1Bq7FwuUugWblgwtnWvXQZDoyDPGxxas0GJNa6UWnIz2EhqnkozLEfvqBWoBmzs2FvUpxgzjpv6PfII6tTDq3d7sTjhpEDDG2BMRpRxF2DtAXyi+3RdaLD0aJ+I1rdmE51HF1+XG50CqVKBe4jQf3Avy9owLG58YKDBp5Arh3YuW3Qwaw0evfOE28GzlR0GQR6gpx/uvQ2H23za95Ev13Rkr7EaUjiEjy6jayK1eqHo+mTyrURUCuk2JdBzsQ8/pFQL7BL+69ylSUHbvt4U9wQXUWLnsi7J3fevmcDS0Pcvev5g1ql9CXeJgsWSRyWBo7JZmnCLYkUqnjtO7auZtkeAHxdQ0HMyR/2XjsDelW5mQwgTNQS6nLbmy9ryWMX+cX3yGpSOeOh9T3cD52osKhn+WPEIMuQPN6W/tQe9WnIZeEHbXGZlzPKMGqcBINy3SfvR51PyZ7KXKpogUWBqzwwyxILdbFWfUQ+9pvAoRmDuvYAZhTBolmdfiH/FgBCrjwWTK23jitOcTdkzGJ3OaoyJf59Xx5y1KRxK6Q6K2WQiBCgmf6AIL8pPOtQo7+aBGZEi9aCbYFXlOjvYAiSSOQN1K5/lmFLx3sBnuT995n6CHPHwuiVY+gCQozoxzhFz/N/Kig7OdnTh2/Hgv9iMNnT/vgi1sEfMg+mS+72+kR8aVq731KNh+iUDTv2zn6Gbldx8A/BAPRJ7qEqdZIvPJu8LoQB0V/EcUbVQWTtapZsSAAhQjVpCbEcXBx0mP4rSEMOPJcaVqRHvPq5kqqT/GHATKHXxL+xRVUjxqxYjy+9gVMA41nve1XLf1y0m6iroOnZx7TETqvGQLEflaqwnmrhKoKgPRhDeoyzzp3CwqZ89um/Z7q1AKlAf3mVHomPRLJGDIcCrlgyYxVHr4Dk9w+VeopxDYafGZmcpzrcwopyEPEsuB4ecABQ8VsNxQ2P8YowLOdK3P/+1TB/7Ge0/fIHQdyaSPm4zbThXxufJPxAAvLwpFJNHS4bB9My5OHPsCGY0sH7YMCu6kBijGS1durKxhSaM6iNnpTznMBu6GxAXwE70TlcTo49/96Ux04OsLElszKOMwvMBJmZEWYYa8sc/uup287F17N3pdDPmo6zwO/M4OkDAitFlqPUuJT2Tela62eyQChySvEPBZ9kCyPFWjaA9V1Fu+Yn+0LXgFgBHE/ve4OM2cZaoYrF77cYmF/fih7fy9GdkBhQOEYJt8oxfA0EJcycDW7NkwT+5ocXOjUqDgOkJp9XKfZCZWUGpyt1mcFPe9Gs3xivYzh+nmABS/uRYyXYMH2Ep/+ZfBv1VOXyVQOnniSqeVr2NqGuS9rfFD8uYDFbbXihAFtmcQET/kKHDWAqx4r3jUq2a5U5RjQUIIR4vuafpODDa3TMGzydhylbwhWs8luA5DkZkti4H7HDQNxF2XpkM9h/prtzK6GDtQlolY18WMgzfOJ4zZKHaXCqJGzFGstkO+wKysslgYBTLCxfhC3FUbbpgOV90EzHhF6xrTjgzx45KDxqA3iwRfg7B+nOWzSMRHmC/muNUK9U9sVTmh/qfoo8iGF8m2cdt2oSp7o55wxJttfza8m8AzZe9Dsby8af+a5r3p69Rs1Ll+g77PIYoMAoMvIOoDIZrZB1mcVwbuT7RxTFlajevNmFuIMcBbcwwiHndDLc2nbZf3I89nNAPkFz29IJbxMAfqNXqG4BkQ4Jbsm3od12YehIKMaEiRjwIVMUle4RB4o2Mi1miP3o1dwnXJflKDQr8bQvJfIU4ybla0yYtihh106r3rQ+MnDFjrnd3upsOFnTiF6AUx6PeFV28VgyAOD+Ni1aSwptVzCGTU4T/jE+9GMXhJ6kaTb33hTam8E6M3TNgq8qdEl/ziKiR3d04xkQ9mRDIW+I6K1CRah7BKjYu1OlLAqEZNch9tf1MeYbOTedKYDHls/nEdRI8o3LkXJD7SpGBmq6nW6+pw2gAKeXcaz8TXAT9XLrPqyGgd/YHp7cZ4uD72YWY6KCQfTYSArJU0bXft0vSnmYo1cvA1tjTzi5rTCkVH7J6l52+yweg4/ec6UteD2TtHL0oMFfGtRmB7lcy1pTepgHLPLeQ8FzdVCnB8WPtHUmY65HcLG0bzJIoKlCvR4PqlNe0XUB+u3GsYCjSQHqhr8bER12lqKGqp0MxAFkPLxlXVqmw0fXfhkVyIzu5WoiXrz7Y8MTQdlC8752rmIc1jpQvAAGBxWCxbrulpxIJVbtdM43oZaiPhn6uLWxoXPF/IRJZnbd4X7QMImfTomPBngvVo9i9Hz9uB2GLYlnbiHiw9uU1S3geYBXs5R3Wkx16etVlfTcb8Jla7s3QNscQPLu/0Rvu4ruIbHsGvAoCRYrOM6t8wK4XIztdIg3Qzsm3r3EDgeilcbud2yECP8RydNId114pQrEVuOjJyv3pxYIaaTiEDYHGtwXjYOeL/p8OrlJBZ5qe72o12C5nW88nOdD43WcdxVwljl98B6dHdAXzaUhUf/HeF5Mqit3so+T05FEHzUDdNcQMEyiIoi6v3w2lqm/yZTuFj7D0Yvv/7LP1tCoJ76r4Jy9wR3iqf0SZHPzzwJACodx8AS8x1XjbhtvQlUi9bgjgRlX/Tv6vKJMHaEQQSx4OJg8g1Oim6gSfiOFOcQpkLM8THx1leuLZ9lLTs/lJ/XOvAcKD4qpagzwmNojVabDZm9+2IxBUZ58GnW7Wsh/i/7gRpWxjVBoNWYfK7Q3TRbv5xtS+mZ8piD/XrZfc+h93FI2YCTI0M9Ig/3iHVObWu7dEGDOO/K5o+FHKAHP3plkrdadZjzUstz1mQ+iQud0cTACSIZ2jvb/OJepXP6yzp2cDK2cO7IR2xc7tMIhzr7e4y+zloD9mj0WPvyN2Vd3OzcmpMAyxsAohaICu0iVdTSVsHd7WclMwQOZcZzTSB9nXUpQRRcVoFLeOWpH1IVPNvDjQAqH6my7dPvRYhgx7dz8qMFqOc115E35YFPygqJy20fZKgrv/5RxhVlx3+vCUVaVHwA90vZBkbsGAndmthBwfQy/bQmldSp65TZUjK5xS849CYKKsyZ115xL6iIwEOwkx44ewNzo8TcpR5/c+dsmqU0G4UbxKttt2YjtEVJmWo2fgoec9yWvrdaPi+KpeHR39O3jC+vB7Xhq2XBU2+W2C92oemrzSBaECWRk1I2ACqNPffVZC54lHAX6oK6P1y9QMCvfqZ8YMRuIMRQEyt1zrXxTWvpJSMBXr+n6rWl7qni8PE6etmq4Cy7EWUCIjOBi2IzYZ+dUvAPmG1PQgH+Tzg4Swbf0v5DUW1TTFbQHvEer1cxIHwSiD2TBhCGV2agRp7u3AqIYEJklcviGnn9FJ52By6OASksMQTUJsr/DhRufThd1XukiLNIJFtuCf2NC/3fNmCg/36L5WISkKgIXiW9GZdRW8uzvDmB0XyNrjzbbfnqTYd8penjiTB4Ilm2PGDcpNdIW2F31e0k69aHU8eqZtgiBIYxZsAdK+0sJC3Avmm3PfGrjKp0nJJ9tKHT+xlLGwdCN9bMIrJxMUEKEBy6vHVwE2JImFPTrR51NyEffeq/V0Kzhmw974r3YOSZwQD9ksp1DCdgvYDI0G3rT3ETtFSS6W2B08/I/Vg2glAEfXH+3ZXT2r7XcWkTQJpfO0GRTySFQ6E9tYpHuhg6RG7/NlCNiHeHB2DfncQVQCFr8QQNlOGlMgvou7UpE99RvJMr0MN/Qhfqq08CZML1Rfl1M61yaGsLxSyO9WPHalUMJAF1OoWBDwv4M1DQ1caTqWetAr44Dmksgs4A+unbsXXlL9vRckl1KZ8cI9n+MaHzT+taECVYuHGzQbC3eZaMFbA9JDk6wlcuH/uBVPCiC6Juy9ZhdXWlt2qM07rsJ2h6fZ2S+S6bmHfQCLuS/vhLDNtESA4WQUUCCDrNd6MqjoeKKLtxhHX6YSlOsQKQjYnumNa1Eg2TDZ2PBFsy8MIthQJjtSZEwAc7KZPexLBcJfxWAbiJwEbPD0ayAAAUtsh8PUsHPQChvdoDh5AckBHwkf/qSzfrJOKba8VvD0gP59XigOajFIr6ULADV6kVM9h5/UeKz0Ev8jDGCtH8SaF6ZZOD7ttonG4TwwXEFLlgnJjmDZt3+kosktogvhYSUrG1LufPvcYMKxJ2gHAh7pKQ32YgBYtTIg19GiUcN6COTFqigkLjaTdCoEk5+1JLNd8lmcQErGNlye9uaThV+gLQdxO8Nfc6VQ7iBJPNuOxaQi62NM03nMuyZV9OKBaGbIylU65hH4FOoRzSfdnAB1fvowhVUxGpbXqvpGAnwh8MnaY5N0ZtwwYT3tDWjhjYf95x+A8IdFHAFB5j531QLYJf5oGTUXZcZWi7HLFSmWVUOruiaiLwDNmYZDX7t0S4SoVXwOwqajoVLb1FPrske6mRWf7IhOr96yjfsG3DxQ6l4LCEsnih0Mp00Q2QV9a7qBH62WkoFPG10KpGFWYg/G6i5+vPQ1INTViojUnmETVqFIlz10EyDWhnSrYrA0VzS3VjTRB2o+8cVVARIbUqiIVNvJxz64rWfvIDr16ef9A1NkNFAsXjl6RNszsqfzwuQnu8LETkTAiTvOZfIuJN1zKtc/aZfkVWAlO3SD/bYLYZkL/H4NvFGT1jb5RdRb9kr8iNirDUPJQKzdvxuCaRkhTnj6c/C4bsVODWoyH9qjD38YvMQf8PySmtwB7WKq/frvIVeAsoIRcdbVvgP2y5XT3B3cfQ0/9f6oL9JVsZoG0txfNO8lxjG6K+1qZ8XF3imcJT6XhMe1f5sYKUHPsyl0lyy2tock2Kjl+U3TprP6jz63ki70F3PxzYOQEKbdYcmgtNnylbKLYp367ieVmxenkn/rLuD3OWm2DTjPQOmQP/4IvrS6XU429JNWiwjSbAuarS/07ra6kBfaX+ARinuXBk1/QPsXsWSATPi6k0ewBRlKJlI8O14XciDD4pmC7uw+HyLEtF6EFcMVs/o0kqhRWWJ7ExXry0yANQJOQYWJovcDTHNt9FeplUm2/Gbfk4PAbONHmxxLotP+SH3tfLfefz7RonKeUWAToX5bBDRkecA7fTC33wc5vdoB2CUEDQeUeIQNxXQ3GHqQGpqY3K6wpADKPBk5LbUfcCbAZ/2b7lgnkTAZz3pXIVOcrFO8/zwLECRbVTRSdv1MPmOc0V8tw9xK5cE78SM81kkjtpzCPkrMfBkxyes3GPaufAUXp5bu0DIXilp1rkz/zbcPI0ENPNQWcUunPnFneYN8gOLK80ehwI/BJxF7VK3dcEoiyCuxh0zTeDl5sC7CS453zb1EC/rkgN2iE9mTYKwPrTCtydWJlW8zfN/KSdIkxQiiVx8LuBl+TGCNW+XaIOUFBP7OCwtzzBAKTBJKUQCo+g6sMUKTZ1XRwmUVob+7updpuKId9aAtZLTEYCt9AqFoH2Dh+4JwbW5+qsOLJljpwPFj0Dj3aeULgL+N4cDflds0Ntr+RaY2rZrzmNFel2b5ftQfSsR5YlF79YYcGrRzZ2biByaBCAopNcU31aXmkHlyXTZvL2HDiPaaKvFrGMtI5WhQY5pxu9wu2wUQJWyUDADl8771K3sQ/YljLUhtibY3nI8PubUrWWC2MIudP+Q2ZZO6Lp9SnIZEPm9PYQWQ3DSotqDTLXLidDhHUAA5dLSa75M8n3dDpt/kCy2UInSYJwoaEp4FZIzabsRrHWYA46P5tx8dfjd00Q4iRJTQ2tcyYkI3ONcAOHd2Wfeg1/vlev8wzB+RPFvTrgSurxhHmu1D92h0cAyRr4/1m1scL8dB8gXmW1/vr2pAgVCU1MRrd6zgZH6N1SsNbWLIhHyZb0E98od4WOCnmTRQqsORH8z1cvIQdMrauzf4o6fszZ32OMWEJEX7Zj4o/UkgZg9otbV4HQP+RP57fjqAMxiz9ZYA7WTtZ5hTtdFugrLXsTvOhoPIpFlkgR3F4CoOFryQXtPApZbos9DlORjUhJaddI3neDMHhq9GM5Xl1MsUezyGhyvQWNjAUYA7PplgKLuNA0x9J0ZBIimZF7HSiDa0IuIF/xEpPkbI7aYQ7WkPP3WVTymcSk8UWDd+Nf5NAdWRYR7z9ZLco4+qwRqdhVaP7X+TapMWFMYcQy7VTkMRbdeZ7QdCCD7dn21hTaTKtq53tPSBMu5vkvdZ6CRTBlkTgJqN16M6cG2RtYQ5Sqjk5SMczl6owGelsjWdYCGPWsCZ6vg0cZ72VpJNBITdoau2S9vQtc60wO3xmyDsFzCeE7ogG7eYuUx5Ab5vTKXrNA/vf0FjELsgIYlA4krIGIK+dG/WgdZtrE8c4AEZkf7gHOgeQZwF/cWmIXTyZiDv7tETf6Ql59OU1J87IKRzGDoGFAeP1cYHVKyPpkg9D/0Ji7ppmEqSNwqqmtOWaCg5xUBhCkMoBrfJv3rZ/8mjFm4IrlQ0afDtYxkPAogYnZ3/Mtxix9WXFNt/h0SGhixEKb3lBeIoh91ktStD3nr9IUcOrZnppcGm5y4F9zbqYqQ4JdF4K4OLlGxzGf1uCtUcYAipu7mf7MTE+Av0SWDjpF9o9Cp4ht3aa8k24drm9Sbvd3EuD++LyKL6tcB812f115odn+fdynEkNZ+WUWm+jKIAAcTxj2rvbhIdUGB94gb/0KH3keUmbwKOOmOxQaNXfXWSkmY5o1aJkML2cfY0B7eT4XBg/iLjryWudC1fQyUQ1B5w/L0fEg/Vk5Wg4UgV0ka1Fc6EJL5ctubhgqod0TqeykwESHNyhMInmNdtEcSqt08miwoWjkx1CVeMyLh3UopSgQdUZnEhX98OFmly8j/Dj8Z4lpGn9RyfvOi5YnSCNfaQ4mONVW1IO1pMZynaWb2+gvwgmsejHHgOi9TukF+wRdnkk/zJg9N3zYXAVnytWE89vBZA1yhnKUsveGISUpxdc5mfLfZfJfC+QqyZGv6qGxgYut++9yKx3vh/iGbcAiYn1f5NzDc/2NkCHi5sVpmLE7XLhWR594MZXDA1z+5twshNAx1WFURoB+B+BqId014/hmperEY5aoCUcd9KMuBZGA;" parent="1" vertex="1">
          <mxGeometry x="-429.82" y="-90" width="170" height="170" as="geometry" />
        </mxCell>
        <mxCell id="sL5bWm0NDH6Qrq-3R1cP-45" value="" style="endArrow=classic;html=1;rounded=0;exitX=0.5;exitY=1;exitDx=0;exitDy=0;entryX=0.5;entryY=0;entryDx=0;entryDy=0;" parent="1" source="sL5bWm0NDH6Qrq-3R1cP-44" target="sL5bWm0NDH6Qrq-3R1cP-9" edge="1">
          <mxGeometry width="50" height="50" relative="1" as="geometry">
            <mxPoint x="30" y="130" as="sourcePoint" />
            <mxPoint x="80" y="80" as="targetPoint" />
          </mxGeometry>
        </mxCell>
        <mxCell id="sL5bWm0NDH6Qrq-3R1cP-47" value="" style="endArrow=classic;html=1;rounded=0;exitX=-0.015;exitY=0.097;exitDx=0;exitDy=0;entryX=1;entryY=0.5;entryDx=0;entryDy=0;exitPerimeter=0;strokeColor=#3333FF;" parent="1" source="sL5bWm0NDH6Qrq-3R1cP-11" target="sL5bWm0NDH6Qrq-3R1cP-44" edge="1">
          <mxGeometry width="50" height="50" relative="1" as="geometry">
            <mxPoint x="60" y="500" as="sourcePoint" />
            <mxPoint x="110" y="450" as="targetPoint" />
            <Array as="points">
              <mxPoint x="-40" y="325" />
              <mxPoint x="-40" y="-5" />
            </Array>
          </mxGeometry>
        </mxCell>
        <mxCell id="sL5bWm0NDH6Qrq-3R1cP-48" value="1" style="edgeLabel;html=1;align=center;verticalAlign=middle;resizable=0;points=[];" parent="sL5bWm0NDH6Qrq-3R1cP-47" vertex="1" connectable="0">
          <mxGeometry x="0.0072" relative="1" as="geometry">
            <mxPoint as="offset" />
          </mxGeometry>
        </mxCell>
        <mxCell id="sL5bWm0NDH6Qrq-3R1cP-49" value="Zd_1" style="edgeLabel;html=1;align=center;verticalAlign=middle;resizable=0;points=[];" parent="sL5bWm0NDH6Qrq-3R1cP-47" vertex="1" connectable="0">
          <mxGeometry x="-0.0031" relative="1" as="geometry">
            <mxPoint as="offset" />
          </mxGeometry>
        </mxCell>
        <mxCell id="sL5bWm0NDH6Qrq-3R1cP-50" value="" style="endArrow=classic;html=1;rounded=0;entryX=-0.026;entryY=0.19;entryDx=0;entryDy=0;exitX=1;exitY=0.75;exitDx=0;exitDy=0;strokeColor=#3333FF;entryPerimeter=0;" parent="1" source="sL5bWm0NDH6Qrq-3R1cP-44" target="sL5bWm0NDH6Qrq-3R1cP-11" edge="1">
          <mxGeometry width="50" height="50" relative="1" as="geometry">
            <mxPoint x="-200" y="355" as="sourcePoint" />
            <mxPoint x="110" y="450" as="targetPoint" />
            <Array as="points">
              <mxPoint x="-140" y="38" />
              <mxPoint x="-140" y="340" />
            </Array>
          </mxGeometry>
        </mxCell>
        <mxCell id="sL5bWm0NDH6Qrq-3R1cP-51" value="Zd_2" style="edgeLabel;html=1;align=center;verticalAlign=middle;resizable=0;points=[];" parent="sL5bWm0NDH6Qrq-3R1cP-50" vertex="1" connectable="0">
          <mxGeometry x="0.0133" y="1" relative="1" as="geometry">
            <mxPoint as="offset" />
          </mxGeometry>
        </mxCell>
        <mxCell id="sL5bWm0NDH6Qrq-3R1cP-53" value="" style="sketch=0;pointerEvents=1;shadow=0;dashed=0;html=1;strokeColor=none;fillColor=#505050;labelPosition=center;verticalLabelPosition=bottom;verticalAlign=top;outlineConnect=0;align=center;shape=mxgraph.office.concepts.clock;" parent="1" vertex="1">
          <mxGeometry x="107.5" y="-155" width="45" height="45" as="geometry" />
        </mxCell>
        <mxCell id="sL5bWm0NDH6Qrq-3R1cP-54" value="" style="endArrow=classic;html=1;rounded=0;entryX=0.5;entryY=0;entryDx=0;entryDy=0;" parent="1" source="sL5bWm0NDH6Qrq-3R1cP-53" target="sL5bWm0NDH6Qrq-3R1cP-11" edge="1">
          <mxGeometry width="50" height="50" relative="1" as="geometry">
            <mxPoint x="60" y="500" as="sourcePoint" />
            <mxPoint x="110" y="450" as="targetPoint" />
            <Array as="points">
              <mxPoint x="130" y="270" />
            </Array>
          </mxGeometry>
        </mxCell>
        <mxCell id="fvFGOb_BA9dX7lHyyvXW-51" value="Start" style="edgeLabel;html=1;align=center;verticalAlign=middle;resizable=0;points=[];" parent="sL5bWm0NDH6Qrq-3R1cP-54" vertex="1" connectable="0">
          <mxGeometry x="0.0095" y="1" relative="1" as="geometry">
            <mxPoint as="offset" />
          </mxGeometry>
        </mxCell>
        <mxCell id="sL5bWm0NDH6Qrq-3R1cP-55" value="&lt;b&gt;interface użytkownika&lt;/b&gt;" style="text;html=1;align=center;verticalAlign=middle;whiteSpace=wrap;rounded=0;" parent="1" vertex="1">
          <mxGeometry x="-414.82" y="-310" width="130" height="30" as="geometry" />
        </mxCell>
        <mxCell id="sL5bWm0NDH6Qrq-3R1cP-60" value="" style="endArrow=classic;html=1;rounded=0;exitX=0.25;exitY=1;exitDx=0;exitDy=0;entryX=0.5;entryY=0;entryDx=0;entryDy=0;strokeColor=#3333FF;" parent="1" source="sL5bWm0NDH6Qrq-3R1cP-11" target="sL5bWm0NDH6Qrq-3R1cP-14" edge="1">
          <mxGeometry width="50" height="50" relative="1" as="geometry">
            <mxPoint x="-30" y="370" as="sourcePoint" />
            <mxPoint x="20" y="320" as="targetPoint" />
          </mxGeometry>
        </mxCell>
        <mxCell id="sL5bWm0NDH6Qrq-3R1cP-68" value="Zd_5" style="edgeLabel;html=1;align=center;verticalAlign=middle;resizable=0;points=[];" parent="sL5bWm0NDH6Qrq-3R1cP-60" vertex="1" connectable="0">
          <mxGeometry x="-0.0949" relative="1" as="geometry">
            <mxPoint as="offset" />
          </mxGeometry>
        </mxCell>
        <mxCell id="sL5bWm0NDH6Qrq-3R1cP-62" value="" style="endArrow=classic;startArrow=classic;html=1;rounded=0;entryX=0.5;entryY=1;entryDx=0;entryDy=0;exitX=0.488;exitY=-0.005;exitDx=0;exitDy=0;exitPerimeter=0;" parent="1" source="sL5bWm0NDH6Qrq-3R1cP-41" target="sL5bWm0NDH6Qrq-3R1cP-29" edge="1">
          <mxGeometry width="50" height="50" relative="1" as="geometry">
            <mxPoint x="-30" y="370" as="sourcePoint" />
            <mxPoint x="20" y="320" as="targetPoint" />
            <Array as="points">
              <mxPoint x="-540" y="570" />
              <mxPoint x="-370" y="570" />
            </Array>
          </mxGeometry>
        </mxCell>
        <mxCell id="sL5bWm0NDH6Qrq-3R1cP-63" value="" style="endArrow=classic;html=1;rounded=0;exitX=0.75;exitY=1;exitDx=0;exitDy=0;entryX=0.5;entryY=0;entryDx=0;entryDy=0;strokeColor=#3333FF;" parent="1" source="sL5bWm0NDH6Qrq-3R1cP-11" target="sL5bWm0NDH6Qrq-3R1cP-15" edge="1">
          <mxGeometry width="50" height="50" relative="1" as="geometry">
            <mxPoint x="-30" y="370" as="sourcePoint" />
            <mxPoint x="20" y="320" as="targetPoint" />
          </mxGeometry>
        </mxCell>
        <mxCell id="sL5bWm0NDH6Qrq-3R1cP-64" value="Zd_6" style="edgeLabel;html=1;align=center;verticalAlign=middle;resizable=0;points=[];" parent="sL5bWm0NDH6Qrq-3R1cP-63" vertex="1" connectable="0">
          <mxGeometry x="0.0376" relative="1" as="geometry">
            <mxPoint as="offset" />
          </mxGeometry>
        </mxCell>
        <mxCell id="sL5bWm0NDH6Qrq-3R1cP-70" value="" style="endArrow=classic;html=1;rounded=0;exitX=-0.021;exitY=0.287;exitDx=0;exitDy=0;exitPerimeter=0;entryX=0.991;entryY=0.079;entryDx=0;entryDy=0;strokeColor=#3333FF;entryPerimeter=0;" parent="1" source="sL5bWm0NDH6Qrq-3R1cP-11" target="sL5bWm0NDH6Qrq-3R1cP-29" edge="1">
          <mxGeometry width="50" height="50" relative="1" as="geometry">
            <mxPoint x="-30" y="370" as="sourcePoint" />
            <mxPoint x="20" y="320" as="targetPoint" />
            <Array as="points">
              <mxPoint x="-230" y="355" />
              <mxPoint x="-230" y="373" />
            </Array>
          </mxGeometry>
        </mxCell>
        <mxCell id="sL5bWm0NDH6Qrq-3R1cP-71" value="Zd_3" style="edgeLabel;html=1;align=center;verticalAlign=middle;resizable=0;points=[];" parent="sL5bWm0NDH6Qrq-3R1cP-70" vertex="1" connectable="0">
          <mxGeometry x="-0.2759" y="3" relative="1" as="geometry">
            <mxPoint as="offset" />
          </mxGeometry>
        </mxCell>
        <mxCell id="sL5bWm0NDH6Qrq-3R1cP-72" value="" style="endArrow=classic;html=1;rounded=0;exitX=0.995;exitY=0.176;exitDx=0;exitDy=0;entryX=-0.021;entryY=0.376;entryDx=0;entryDy=0;entryPerimeter=0;strokeColor=#3333FF;exitPerimeter=0;" parent="1" source="sL5bWm0NDH6Qrq-3R1cP-29" target="sL5bWm0NDH6Qrq-3R1cP-11" edge="1">
          <mxGeometry width="50" height="50" relative="1" as="geometry">
            <mxPoint x="-30" y="350" as="sourcePoint" />
            <mxPoint x="30" y="380" as="targetPoint" />
            <Array as="points">
              <mxPoint x="-40" y="390" />
              <mxPoint x="-40" y="370" />
            </Array>
          </mxGeometry>
        </mxCell>
        <mxCell id="sL5bWm0NDH6Qrq-3R1cP-73" value="Zd_4" style="edgeLabel;html=1;align=center;verticalAlign=middle;resizable=0;points=[];" parent="sL5bWm0NDH6Qrq-3R1cP-72" vertex="1" connectable="0">
          <mxGeometry x="-0.5281" y="1" relative="1" as="geometry">
            <mxPoint as="offset" />
          </mxGeometry>
        </mxCell>
        <mxCell id="sL5bWm0NDH6Qrq-3R1cP-74" value="" style="dashed=0;outlineConnect=0;html=1;align=center;labelPosition=center;verticalLabelPosition=bottom;verticalAlign=top;shape=mxgraph.weblogos.json" parent="1" vertex="1">
          <mxGeometry x="-190" y="220" width="32.32" height="35" as="geometry" />
        </mxCell>
        <mxCell id="sL5bWm0NDH6Qrq-3R1cP-75" value="" style="dashed=0;outlineConnect=0;html=1;align=center;labelPosition=center;verticalLabelPosition=bottom;verticalAlign=top;shape=mxgraph.weblogos.json;fillColor=#0000FF;strokeColor=#0000FF;" parent="1" vertex="1">
          <mxGeometry x="-200" y="397.5" width="32.32" height="35" as="geometry" />
        </mxCell>
        <mxCell id="fvFGOb_BA9dX7lHyyvXW-42" value="" style="dashed=0;outlineConnect=0;html=1;align=center;labelPosition=center;verticalLabelPosition=bottom;verticalAlign=top;shape=mxgraph.weblogos.json" parent="1" vertex="1">
          <mxGeometry x="10" y="482" width="32.32" height="35" as="geometry" />
        </mxCell>
        <mxCell id="fvFGOb_BA9dX7lHyyvXW-43" value="" style="dashed=0;outlineConnect=0;html=1;align=center;labelPosition=center;verticalLabelPosition=bottom;verticalAlign=top;shape=mxgraph.weblogos.json" parent="1" vertex="1">
          <mxGeometry x="220" y="482" width="32.32" height="35" as="geometry" />
        </mxCell>
        <mxCell id="fvFGOb_BA9dX7lHyyvXW-47" value="" style="endArrow=classic;html=1;rounded=0;exitX=1;exitY=0.5;exitDx=0;exitDy=0;entryX=0.998;entryY=0.308;entryDx=0;entryDy=0;entryPerimeter=0;strokeColor=#3333FF;" parent="1" source="sL5bWm0NDH6Qrq-3R1cP-15" target="sL5bWm0NDH6Qrq-3R1cP-11" edge="1">
          <mxGeometry width="50" height="50" relative="1" as="geometry">
            <mxPoint x="170" y="530" as="sourcePoint" />
            <mxPoint x="220" y="480" as="targetPoint" />
            <Array as="points">
              <mxPoint x="300" y="610" />
              <mxPoint x="300" y="470" />
              <mxPoint x="300" y="360" />
            </Array>
          </mxGeometry>
        </mxCell>
        <mxCell id="fvFGOb_BA9dX7lHyyvXW-48" value="Zd_9" style="edgeLabel;html=1;align=center;verticalAlign=middle;resizable=0;points=[];" parent="fvFGOb_BA9dX7lHyyvXW-47" vertex="1" connectable="0">
          <mxGeometry x="-0.3528" y="-1" relative="1" as="geometry">
            <mxPoint as="offset" />
          </mxGeometry>
        </mxCell>
        <mxCell id="fvFGOb_BA9dX7lHyyvXW-49" value="" style="endArrow=classic;html=1;rounded=0;exitX=0.5;exitY=1;exitDx=0;exitDy=0;entryX=0.993;entryY=0.187;entryDx=0;entryDy=0;entryPerimeter=0;strokeColor=#3333FF;" parent="1" source="sL5bWm0NDH6Qrq-3R1cP-14" target="sL5bWm0NDH6Qrq-3R1cP-11" edge="1">
          <mxGeometry width="50" height="50" relative="1" as="geometry">
            <mxPoint x="180" y="410" as="sourcePoint" />
            <mxPoint x="230" y="360" as="targetPoint" />
            <Array as="points">
              <mxPoint x="46" y="710" />
              <mxPoint x="370" y="710" />
              <mxPoint x="370" y="340" />
            </Array>
          </mxGeometry>
        </mxCell>
        <mxCell id="fvFGOb_BA9dX7lHyyvXW-50" value="Zd_9" style="edgeLabel;html=1;align=center;verticalAlign=middle;resizable=0;points=[];" parent="fvFGOb_BA9dX7lHyyvXW-49" vertex="1" connectable="0">
          <mxGeometry x="0.2768" y="-2" relative="1" as="geometry">
            <mxPoint as="offset" />
          </mxGeometry>
        </mxCell>
        <mxCell id="fvFGOb_BA9dX7lHyyvXW-53" value="" style="shape=mxgraph.bpmn.data;labelPosition=center;verticalLabelPosition=bottom;align=center;verticalAlign=top;size=8;html=1;bpmnTransferType=none;isCollection=1;" parent="1" vertex="1">
          <mxGeometry x="300" y="275.94" width="27.68" height="38.06" as="geometry" />
        </mxCell>
        <mxCell id="fvFGOb_BA9dX7lHyyvXW-56" value="" style="rounded=1;whiteSpace=wrap;html=1;points=[[0,0,0,0,0],[0,0.25,0,0,0],[0,0.5,0,0,0],[0,0.75,0,0,0],[0,1,0,0,0],[0.25,0,0,0,0],[0.25,1,0,0,0],[0.5,0,0,0,0],[0.5,1,0,0,0],[0.75,0,0,0,0],[0.75,1,0,0,0],[1,0,0,0,0],[1,0.25,0,0,0],[1,0.5,0,0,0],[1,0.75,0,0,0],[1,1,0,0,0]];strokeColor=#009900;" parent="1" vertex="1">
          <mxGeometry x="430" y="310" width="120" height="160" as="geometry" />
        </mxCell>
        <mxCell id="fvFGOb_BA9dX7lHyyvXW-57" value="" style="endArrow=classic;html=1;rounded=0;exitX=1.001;exitY=0.089;exitDx=0;exitDy=0;exitPerimeter=0;entryX=0.018;entryY=0.093;entryDx=0;entryDy=0;entryPerimeter=0;strokeColor=#009900;" parent="1" source="sL5bWm0NDH6Qrq-3R1cP-11" target="fvFGOb_BA9dX7lHyyvXW-56" edge="1">
          <mxGeometry width="50" height="50" relative="1" as="geometry">
            <mxPoint x="280" y="370" as="sourcePoint" />
            <mxPoint x="330" y="320" as="targetPoint" />
          </mxGeometry>
        </mxCell>
        <mxCell id="fvFGOb_BA9dX7lHyyvXW-58" value="An_1" style="edgeLabel;html=1;align=center;verticalAlign=middle;resizable=0;points=[];" parent="fvFGOb_BA9dX7lHyyvXW-57" vertex="1" connectable="0">
          <mxGeometry x="0.0042" y="1" relative="1" as="geometry">
            <mxPoint as="offset" />
          </mxGeometry>
        </mxCell>
        <mxCell id="fvFGOb_BA9dX7lHyyvXW-62" value="" style="endArrow=classic;html=1;rounded=0;exitX=0.25;exitY=1;exitDx=0;exitDy=0;exitPerimeter=0;entryX=0.999;entryY=0.655;entryDx=0;entryDy=0;strokeColor=#009900;entryPerimeter=0;" parent="1" source="fvFGOb_BA9dX7lHyyvXW-56" target="sL5bWm0NDH6Qrq-3R1cP-29" edge="1">
          <mxGeometry width="50" height="50" relative="1" as="geometry">
            <mxPoint x="20" y="270" as="sourcePoint" />
            <mxPoint x="70" y="220" as="targetPoint" />
            <Array as="points">
              <mxPoint x="460" y="740" />
              <mxPoint x="-120" y="740" />
              <mxPoint x="-120" y="471" />
            </Array>
          </mxGeometry>
        </mxCell>
        <mxCell id="fvFGOb_BA9dX7lHyyvXW-63" value="An_2" style="edgeLabel;html=1;align=center;verticalAlign=middle;resizable=0;points=[];" parent="fvFGOb_BA9dX7lHyyvXW-62" vertex="1" connectable="0">
          <mxGeometry x="0.0338" relative="1" as="geometry">
            <mxPoint as="offset" />
          </mxGeometry>
        </mxCell>
        <mxCell id="fvFGOb_BA9dX7lHyyvXW-64" value="" style="endArrow=classic;html=1;rounded=0;exitX=0.997;exitY=0.765;exitDx=0;exitDy=0;entryX=0.5;entryY=1;entryDx=0;entryDy=0;entryPerimeter=0;strokeColor=#009900;exitPerimeter=0;" parent="1" source="sL5bWm0NDH6Qrq-3R1cP-29" target="fvFGOb_BA9dX7lHyyvXW-56" edge="1">
          <mxGeometry width="50" height="50" relative="1" as="geometry">
            <mxPoint x="20" y="320" as="sourcePoint" />
            <mxPoint x="70" y="270" as="targetPoint" />
            <Array as="points">
              <mxPoint x="-160" y="490" />
              <mxPoint x="-160" y="790" />
              <mxPoint x="490" y="790" />
            </Array>
          </mxGeometry>
        </mxCell>
        <mxCell id="fvFGOb_BA9dX7lHyyvXW-66" value="An_3" style="edgeLabel;html=1;align=center;verticalAlign=middle;resizable=0;points=[];" parent="fvFGOb_BA9dX7lHyyvXW-64" vertex="1" connectable="0">
          <mxGeometry x="-0.1167" y="1" relative="1" as="geometry">
            <mxPoint as="offset" />
          </mxGeometry>
        </mxCell>
        <mxCell id="fvFGOb_BA9dX7lHyyvXW-67" value="" style="dashed=0;outlineConnect=0;html=1;align=center;labelPosition=center;verticalLabelPosition=bottom;verticalAlign=top;shape=mxgraph.weblogos.json" parent="1" vertex="1">
          <mxGeometry x="30" y="800" width="32.32" height="35" as="geometry" />
        </mxCell>
        <mxCell id="fvFGOb_BA9dX7lHyyvXW-68" value="&lt;b&gt;Agent do analizy danych&lt;/b&gt;" style="text;html=1;align=center;verticalAlign=middle;whiteSpace=wrap;rounded=0;" parent="1" vertex="1">
          <mxGeometry x="440" y="320" width="100" height="30" as="geometry" />
        </mxCell>
        <mxCell id="fvFGOb_BA9dX7lHyyvXW-72" value="An_4" style="text;html=1;align=center;verticalAlign=middle;whiteSpace=wrap;rounded=0;" parent="1" vertex="1">
          <mxGeometry x="454.32" y="352.31" width="60" height="30" as="geometry" />
        </mxCell>
        <mxCell id="fvFGOb_BA9dX7lHyyvXW-73" value="" style="endArrow=classic;html=1;rounded=0;exitX=0.75;exitY=1;exitDx=0;exitDy=0;exitPerimeter=0;entryX=0.995;entryY=0.841;entryDx=0;entryDy=0;fillColor=#009900;strokeColor=#009900;entryPerimeter=0;" parent="1" source="fvFGOb_BA9dX7lHyyvXW-56" target="sL5bWm0NDH6Qrq-3R1cP-29" edge="1">
          <mxGeometry width="50" height="50" relative="1" as="geometry">
            <mxPoint x="-730" y="650" as="sourcePoint" />
            <mxPoint x="-680" y="600" as="targetPoint" />
            <Array as="points">
              <mxPoint x="520" y="850" />
              <mxPoint x="-180" y="850" />
              <mxPoint x="-180" y="520" />
            </Array>
          </mxGeometry>
        </mxCell>
        <mxCell id="fvFGOb_BA9dX7lHyyvXW-74" value="An5" style="edgeLabel;html=1;align=center;verticalAlign=middle;resizable=0;points=[];" parent="fvFGOb_BA9dX7lHyyvXW-73" vertex="1" connectable="0">
          <mxGeometry x="0.0481" y="2" relative="1" as="geometry">
            <mxPoint as="offset" />
          </mxGeometry>
        </mxCell>
        <mxCell id="fvFGOb_BA9dX7lHyyvXW-75" value="" style="dashed=0;outlineConnect=0;html=1;align=center;labelPosition=center;verticalLabelPosition=bottom;verticalAlign=top;shape=mxgraph.weblogos.json" parent="1" vertex="1">
          <mxGeometry x="100" y="860" width="32.32" height="35" as="geometry" />
        </mxCell>
        <mxCell id="fvFGOb_BA9dX7lHyyvXW-76" value="" style="endArrow=classic;html=1;rounded=0;entryX=0.014;entryY=0.093;entryDx=0;entryDy=0;entryPerimeter=0;strokeColor=#FF8000;fillColor=#FF8000;" parent="1" target="sL5bWm0NDH6Qrq-3R1cP-36" edge="1">
          <mxGeometry width="50" height="50" relative="1" as="geometry">
            <mxPoint x="550" y="324" as="sourcePoint" />
            <mxPoint x="50" y="480" as="targetPoint" />
          </mxGeometry>
        </mxCell>
        <mxCell id="fvFGOb_BA9dX7lHyyvXW-77" value="Rp_1" style="edgeLabel;html=1;align=center;verticalAlign=middle;resizable=0;points=[];" parent="fvFGOb_BA9dX7lHyyvXW-76" vertex="1" connectable="0">
          <mxGeometry x="-0.0372" y="-2" relative="1" as="geometry">
            <mxPoint as="offset" />
          </mxGeometry>
        </mxCell>
        <mxCell id="fvFGOb_BA9dX7lHyyvXW-85" value="" style="rounded=1;whiteSpace=wrap;html=1;strokeColor=#FF8000;" parent="1" vertex="1">
          <mxGeometry x="741.2" y="530" width="120" height="160" as="geometry" />
        </mxCell>
        <mxCell id="fvFGOb_BA9dX7lHyyvXW-86" value="" style="rounded=1;whiteSpace=wrap;html=1;strokeColor=#FF8000;" parent="1" vertex="1">
          <mxGeometry x="971.2" y="530" width="120" height="160" as="geometry" />
        </mxCell>
        <mxCell id="fvFGOb_BA9dX7lHyyvXW-88" value="" style="endArrow=classic;html=1;rounded=0;exitX=0.5;exitY=1;exitDx=0;exitDy=0;entryX=0.485;entryY=-0.002;entryDx=0;entryDy=0;fillColor=#FF8000;strokeColor=#FF8000;entryPerimeter=0;" parent="1" source="sL5bWm0NDH6Qrq-3R1cP-36" target="fvFGOb_BA9dX7lHyyvXW-85" edge="1">
          <mxGeometry width="50" height="50" relative="1" as="geometry">
            <mxPoint x="20" y="460" as="sourcePoint" />
            <mxPoint x="70" y="410" as="targetPoint" />
          </mxGeometry>
        </mxCell>
        <mxCell id="fvFGOb_BA9dX7lHyyvXW-92" value="Rp_2" style="edgeLabel;html=1;align=center;verticalAlign=middle;resizable=0;points=[];" parent="fvFGOb_BA9dX7lHyyvXW-88" vertex="1" connectable="0">
          <mxGeometry x="0.1392" y="1" relative="1" as="geometry">
            <mxPoint as="offset" />
          </mxGeometry>
        </mxCell>
        <mxCell id="fvFGOb_BA9dX7lHyyvXW-89" value="" style="endArrow=classic;html=1;rounded=0;exitX=1;exitY=0.25;exitDx=0;exitDy=0;entryX=0;entryY=0.25;entryDx=0;entryDy=0;strokeColor=#FF9933;" parent="1" source="fvFGOb_BA9dX7lHyyvXW-85" target="fvFGOb_BA9dX7lHyyvXW-86" edge="1">
          <mxGeometry width="50" height="50" relative="1" as="geometry">
            <mxPoint x="681.2" y="728" as="sourcePoint" />
            <mxPoint x="731.2" y="678" as="targetPoint" />
          </mxGeometry>
        </mxCell>
        <mxCell id="fvFGOb_BA9dX7lHyyvXW-94" value="Rp_5" style="edgeLabel;html=1;align=center;verticalAlign=middle;resizable=0;points=[];" parent="fvFGOb_BA9dX7lHyyvXW-89" vertex="1" connectable="0">
          <mxGeometry x="-0.0333" y="1" relative="1" as="geometry">
            <mxPoint as="offset" />
          </mxGeometry>
        </mxCell>
        <mxCell id="fvFGOb_BA9dX7lHyyvXW-90" value="" style="endArrow=classic;html=1;rounded=0;exitX=0;exitY=0.75;exitDx=0;exitDy=0;entryX=1;entryY=0.75;entryDx=0;entryDy=0;strokeColor=#FF9933;" parent="1" source="fvFGOb_BA9dX7lHyyvXW-86" target="fvFGOb_BA9dX7lHyyvXW-85" edge="1">
          <mxGeometry width="50" height="50" relative="1" as="geometry">
            <mxPoint x="681.2" y="728" as="sourcePoint" />
            <mxPoint x="731.2" y="678" as="targetPoint" />
          </mxGeometry>
        </mxCell>
        <mxCell id="fvFGOb_BA9dX7lHyyvXW-95" value="Rp_7" style="edgeLabel;html=1;align=center;verticalAlign=middle;resizable=0;points=[];" parent="fvFGOb_BA9dX7lHyyvXW-90" vertex="1" connectable="0">
          <mxGeometry x="-0.0678" y="-1" relative="1" as="geometry">
            <mxPoint as="offset" />
          </mxGeometry>
        </mxCell>
        <mxCell id="fvFGOb_BA9dX7lHyyvXW-97" value="" style="endArrow=classic;html=1;rounded=0;entryX=-0.003;entryY=0.188;entryDx=0;entryDy=0;strokeColor=#FF9933;entryPerimeter=0;" parent="1" target="sL5bWm0NDH6Qrq-3R1cP-36" edge="1">
          <mxGeometry width="50" height="50" relative="1" as="geometry">
            <mxPoint x="800" y="710" as="sourcePoint" />
            <mxPoint x="1030" y="580" as="targetPoint" />
            <Array as="points">
              <mxPoint x="800" y="690" />
              <mxPoint x="800" y="710" />
              <mxPoint x="700" y="710" />
              <mxPoint x="700" y="500" />
              <mxPoint x="700" y="340" />
            </Array>
          </mxGeometry>
        </mxCell>
        <mxCell id="fvFGOb_BA9dX7lHyyvXW-98" value="Rp_8" style="edgeLabel;html=1;align=center;verticalAlign=middle;resizable=0;points=[];" parent="fvFGOb_BA9dX7lHyyvXW-97" vertex="1" connectable="0">
          <mxGeometry x="0.2537" y="-1" relative="1" as="geometry">
            <mxPoint as="offset" />
          </mxGeometry>
        </mxCell>
        <mxCell id="fvFGOb_BA9dX7lHyyvXW-101" value="" style="endArrow=classic;html=1;rounded=0;exitX=1;exitY=0.75;exitDx=0;exitDy=0;entryX=0.964;entryY=0.988;entryDx=0;entryDy=0;entryPerimeter=0;strokeColor=#FF9933;" parent="1" source="sL5bWm0NDH6Qrq-3R1cP-36" target="sL5bWm0NDH6Qrq-3R1cP-29" edge="1">
          <mxGeometry width="50" height="50" relative="1" as="geometry">
            <mxPoint x="280" y="260" as="sourcePoint" />
            <mxPoint x="330" y="210" as="targetPoint" />
            <Array as="points">
              <mxPoint x="1170" y="430" />
              <mxPoint x="1170" y="970" />
              <mxPoint x="-250" y="970" />
              <mxPoint x="-250" y="550" />
            </Array>
          </mxGeometry>
        </mxCell>
        <mxCell id="fvFGOb_BA9dX7lHyyvXW-102" value="Rp_10" style="edgeLabel;html=1;align=center;verticalAlign=middle;resizable=0;points=[];" parent="fvFGOb_BA9dX7lHyyvXW-101" vertex="1" connectable="0">
          <mxGeometry x="0.2038" y="-2" relative="1" as="geometry">
            <mxPoint as="offset" />
          </mxGeometry>
        </mxCell>
        <mxCell id="fvFGOb_BA9dX7lHyyvXW-103" value="" style="dashed=0;outlineConnect=0;html=1;align=center;labelPosition=center;verticalLabelPosition=bottom;verticalAlign=top;shape=mxgraph.weblogos.json" parent="1" vertex="1">
          <mxGeometry x="370" y="980" width="32.32" height="35" as="geometry" />
        </mxCell>
        <mxCell id="fvFGOb_BA9dX7lHyyvXW-104" value="" style="endArrow=classic;html=1;rounded=0;exitX=1;exitY=0.25;exitDx=0;exitDy=0;strokeColor=#FF8000;entryX=0;entryY=0.176;entryDx=0;entryDy=0;entryPerimeter=0;" parent="1" source="sL5bWm0NDH6Qrq-3R1cP-36" edge="1" target="sL5bWm0NDH6Qrq-3R1cP-38">
          <mxGeometry width="50" height="50" relative="1" as="geometry">
            <mxPoint x="20" y="320" as="sourcePoint" />
            <mxPoint x="1210" y="325" as="targetPoint" />
          </mxGeometry>
        </mxCell>
        <mxCell id="S9dilDW7TyfF1VimtBwa-1" value="Rp_11" style="edgeLabel;html=1;align=center;verticalAlign=middle;resizable=0;points=[];" vertex="1" connectable="0" parent="fvFGOb_BA9dX7lHyyvXW-104">
          <mxGeometry x="0.0057" y="1" relative="1" as="geometry">
            <mxPoint as="offset" />
          </mxGeometry>
        </mxCell>
        <mxCell id="S9dilDW7TyfF1VimtBwa-3" value="" style="sketch=0;outlineConnect=0;fontColor=#232F3E;gradientColor=none;fillColor=#232F3D;strokeColor=none;dashed=0;verticalLabelPosition=bottom;verticalAlign=top;align=center;html=1;fontSize=12;fontStyle=0;aspect=fixed;pointerEvents=1;shape=mxgraph.aws4.user;" vertex="1" parent="1">
          <mxGeometry x="-679.9999999999999" y="-270" width="78" height="78" as="geometry" />
        </mxCell>
        <mxCell id="S9dilDW7TyfF1VimtBwa-4" value="&lt;b&gt;użytkownik&lt;/b&gt;" style="text;html=1;align=center;verticalAlign=middle;whiteSpace=wrap;rounded=0;" vertex="1" parent="1">
          <mxGeometry x="-670.9999999999999" y="-310" width="60" height="30" as="geometry" />
        </mxCell>
        <mxCell id="S9dilDW7TyfF1VimtBwa-5" value="" style="endArrow=classic;startArrow=classic;html=1;rounded=0;" edge="1" parent="1" source="S9dilDW7TyfF1VimtBwa-3">
          <mxGeometry width="50" height="50" relative="1" as="geometry">
            <mxPoint x="-199.82" y="320" as="sourcePoint" />
            <mxPoint x="-429.82" y="-231" as="targetPoint" />
          </mxGeometry>
        </mxCell>
        <mxCell id="S9dilDW7TyfF1VimtBwa-6" value="" style="endArrow=classic;startArrow=classic;html=1;rounded=0;exitX=0.003;exitY=0.454;exitDx=0;exitDy=0;exitPerimeter=0;entryX=0.033;entryY=0.413;entryDx=0;entryDy=0;entryPerimeter=0;" edge="1" parent="1" source="sL5bWm0NDH6Qrq-3R1cP-29" target="sL5bWm0NDH6Qrq-3R1cP-1">
          <mxGeometry width="50" height="50" relative="1" as="geometry">
            <mxPoint x="270" y="320" as="sourcePoint" />
            <mxPoint x="320" y="270" as="targetPoint" />
            <Array as="points">
              <mxPoint x="-520" y="437" />
              <mxPoint x="-520" y="-170" />
            </Array>
          </mxGeometry>
        </mxCell>
        <mxCell id="S9dilDW7TyfF1VimtBwa-7" value="" style="sketch=0;outlineConnect=0;fontColor=#232F3E;gradientColor=none;fillColor=#232F3D;strokeColor=#FF8000;dashed=0;verticalLabelPosition=bottom;verticalAlign=top;align=center;html=1;fontSize=12;fontStyle=0;aspect=fixed;pointerEvents=1;shape=mxgraph.aws4.email_2;" vertex="1" parent="1">
          <mxGeometry x="1020" y="310" width="38.2" height="24" as="geometry" />
        </mxCell>
        <mxCell id="S9dilDW7TyfF1VimtBwa-9" value="&lt;b&gt;Agent do scrapowania&lt;/b&gt;" style="text;html=1;align=center;verticalAlign=middle;whiteSpace=wrap;rounded=0;" vertex="1" parent="1">
          <mxGeometry x="100" y="320" width="60" height="30" as="geometry" />
        </mxCell>
        <mxCell id="S9dilDW7TyfF1VimtBwa-10" value="" style="shape=mxgraph.bpmn.data;labelPosition=center;verticalLabelPosition=bottom;align=center;verticalAlign=top;size=16;html=1;bpmnTransferType=none;isCollection=1;strokeColor=#0000FF;" vertex="1" parent="1">
          <mxGeometry x="111" y="389.62" width="49" height="67.38" as="geometry" />
        </mxCell>
        <mxCell id="S9dilDW7TyfF1VimtBwa-11" value="" style="sketch=0;pointerEvents=1;shadow=0;dashed=0;html=1;strokeColor=#0000FF;fillColor=#0000FF;labelPosition=center;verticalLabelPosition=bottom;verticalAlign=top;outlineConnect=0;align=center;shape=mxgraph.office.concepts.writing_pencil;" vertex="1" parent="1">
          <mxGeometry x="120.5" y="382.31" width="30" height="30" as="geometry" />
        </mxCell>
        <mxCell id="S9dilDW7TyfF1VimtBwa-12" value="&lt;b&gt;Scraper SM&lt;/b&gt;" style="text;html=1;align=center;verticalAlign=middle;whiteSpace=wrap;rounded=0;" vertex="1" parent="1">
          <mxGeometry x="13.28" y="540" width="70" height="30" as="geometry" />
        </mxCell>
        <mxCell id="S9dilDW7TyfF1VimtBwa-13" value="&lt;b&gt;Scraper www&lt;/b&gt;" style="text;html=1;align=center;verticalAlign=middle;whiteSpace=wrap;rounded=0;" vertex="1" parent="1">
          <mxGeometry x="181.16" y="540" width="90" height="30" as="geometry" />
        </mxCell>
        <mxCell id="S9dilDW7TyfF1VimtBwa-14" value="" style="dashed=0;outlineConnect=0;html=1;align=center;labelPosition=center;verticalLabelPosition=bottom;verticalAlign=top;shape=mxgraph.webicons.linkedin;fillColor=#0095DB;gradientColor=#006391" vertex="1" parent="1">
          <mxGeometry x="20.93" y="614.94" width="21.39" height="20" as="geometry" />
        </mxCell>
        <mxCell id="S9dilDW7TyfF1VimtBwa-15" value="" style="sketch=0;html=1;aspect=fixed;strokeColor=none;shadow=0;fillColor=#3B8DF1;verticalAlign=top;labelPosition=center;verticalLabelPosition=bottom;shape=mxgraph.gcp2.search" vertex="1" parent="1">
          <mxGeometry x="10" y="599.69" width="74.25" height="75" as="geometry" />
        </mxCell>
        <mxCell id="S9dilDW7TyfF1VimtBwa-16" value="" style="image;html=1;image=img/lib/clip_art/computers/Network_128x128.png" vertex="1" parent="1">
          <mxGeometry x="210" y="614.94" width="20" height="20" as="geometry" />
        </mxCell>
        <mxCell id="S9dilDW7TyfF1VimtBwa-17" value="" style="sketch=0;html=1;aspect=fixed;strokeColor=none;shadow=0;fillColor=#3B8DF1;verticalAlign=top;labelPosition=center;verticalLabelPosition=bottom;shape=mxgraph.gcp2.search" vertex="1" parent="1">
          <mxGeometry x="196.91" y="599.69" width="74.25" height="75" as="geometry" />
        </mxCell>
        <mxCell id="S9dilDW7TyfF1VimtBwa-20" value="&lt;b&gt;Agent do tworzenia raportów&lt;/b&gt;" style="text;html=1;align=center;verticalAlign=middle;whiteSpace=wrap;rounded=0;" vertex="1" parent="1">
          <mxGeometry x="750" y="321" width="100" height="39" as="geometry" />
        </mxCell>
        <mxCell id="S9dilDW7TyfF1VimtBwa-21" value="&lt;b&gt;Agent raportujący&lt;/b&gt;" style="text;html=1;align=center;verticalAlign=middle;whiteSpace=wrap;rounded=0;" vertex="1" parent="1">
          <mxGeometry x="751.2" y="540" width="100" height="30" as="geometry" />
        </mxCell>
        <mxCell id="S9dilDW7TyfF1VimtBwa-22" value="&lt;b&gt;Agent recenzujący&lt;/b&gt;" style="text;html=1;align=center;verticalAlign=middle;whiteSpace=wrap;rounded=0;" vertex="1" parent="1">
          <mxGeometry x="981.2" y="540" width="100" height="30" as="geometry" />
        </mxCell>
        <mxCell id="S9dilDW7TyfF1VimtBwa-23" value="" style="shape=mxgraph.bpmn.data;labelPosition=center;verticalLabelPosition=bottom;align=center;verticalAlign=top;size=16;html=1;bpmnTransferType=none;isCollection=1;strokeColor=#FF8000;" vertex="1" parent="1">
          <mxGeometry x="778" y="607.3100000000001" width="49" height="67.38" as="geometry" />
        </mxCell>
        <mxCell id="S9dilDW7TyfF1VimtBwa-24" value="" style="sketch=0;pointerEvents=1;shadow=0;dashed=0;html=1;strokeColor=#FF8000;fillColor=#FF8000;labelPosition=center;verticalLabelPosition=bottom;verticalAlign=top;outlineConnect=0;align=center;shape=mxgraph.office.concepts.writing_pencil;" vertex="1" parent="1">
          <mxGeometry x="787.5" y="600" width="30" height="30" as="geometry" />
        </mxCell>
        <mxCell id="S9dilDW7TyfF1VimtBwa-26" value="" style="sketch=0;pointerEvents=1;shadow=0;dashed=0;html=1;strokeColor=none;fillColor=#FF8000;labelPosition=center;verticalLabelPosition=bottom;verticalAlign=top;align=center;outlineConnect=0;shape=mxgraph.veeam2.veeam_one_reporter;" vertex="1" parent="1">
          <mxGeometry x="790.25" y="634.94" width="24.5" height="24.5" as="geometry" />
        </mxCell>
        <mxCell id="S9dilDW7TyfF1VimtBwa-27" value="" style="shape=mxgraph.bpmn.data;labelPosition=center;verticalLabelPosition=bottom;align=center;verticalAlign=top;size=9;html=1;bpmnTransferType=none;isCollection=1;strokeColor=#FF8000;" vertex="1" parent="1">
          <mxGeometry x="1018.9499999999999" y="611.43" width="19.11" height="28.69" as="geometry" />
        </mxCell>
        <mxCell id="S9dilDW7TyfF1VimtBwa-28" value="" style="sketch=0;pointerEvents=1;shadow=0;dashed=0;html=1;strokeColor=none;fillColor=#FF8000;labelPosition=center;verticalLabelPosition=bottom;verticalAlign=top;align=center;outlineConnect=0;shape=mxgraph.veeam2.veeam_one_reporter;" vertex="1" parent="1">
          <mxGeometry x="1022.98" y="625.1899999999999" width="11.05" height="9.75" as="geometry" />
        </mxCell>
        <mxCell id="S9dilDW7TyfF1VimtBwa-29" value="" style="sketch=0;html=1;aspect=fixed;strokeColor=none;shadow=0;fillColor=#FF8000;verticalAlign=top;labelPosition=center;verticalLabelPosition=bottom;shape=mxgraph.gcp2.search" vertex="1" parent="1">
          <mxGeometry x="1001.98" y="600" width="74.25" height="75" as="geometry" />
        </mxCell>
        <mxCell id="S9dilDW7TyfF1VimtBwa-36" value="" style="shape=image;verticalLabelPosition=bottom;labelBackgroundColor=default;verticalAlign=top;aspect=fixed;imageAspect=0;image=data:image/png,iVBORw0KGgoAAAANSUhEUgAAAgAAAAIACAYAAAD0eNT6AAAABHNCSVQICAgIfAhkiAAAAAlwSFlzAAALEwAACxMBAJqcGAAAIABJREFUeJzs3Xm4ZmV15v/vWqeoYhKKQUXiwOA8AEaNA8aYjnNiNBqMRg3EVhKGOqcA5+5YlnY0GKE4dRCnxASjJspPbU0nGpOonUQTjdoW4CwFEgdUhgIRiqp61/r9Uecw13j2u9fe+70/19VXWsHz3CVlrft99rOfF0REREREREREREREREREREREREREREREREREREREREREREREREREREREREREREREREREREREREREREREREREREREREREREREREREREREREREREREREREREREREREREREusuqA4jIeCQYx7OMQ1iWN7AUWGZTLGULSxOW4SwlmcJJkjCIDLYwxSaczWxhI8GNLOUGX8ON1b8eEWmWCoBIh+WJ7J1LuCtLOYgRB+McRHKQGQcHHAQcDBxEcBDOwcBdgGXAMoeppnJEEMDPcX5GcC3OtcDVwFXAlQY/BX4M/IjkB7aEH9rZXNnU+iLSPBUAkUJ5InvnMg5jisOBwzK3/l9i6/9158DiiLst4AbgcuAyYL0l38X5NiO+aQdyqa0mahOKTDYVAJExy+OYykO5P3BUJg8juS82P+CNu1XnqxCwEfiGw4UJFxp8JYOv+BzXVWcTmRQqACINimnuDhwFHGXGw2Lr//9BDnsWR+u8gCT4Js5/mPF528K/2bl8szqXyFCpAIjspjiFQ20Jx0byGIyjSR42qZ/oxyW2niv4jAV/4XN8qjqPyJAsqQ4g0ge5Cs9reCjGsZkcS3KsOYcB+EKNVp1unMPdgeeH8W1QARBpkgqAyJ2IM9iHEY8m5gf+NTzGjP0BzNCwb5nBhdUZRIZGBUCEre/M50oeTvC0NJ6em3iMO0uw+YEv1VQARBqmAiATK07jQEY8JZOnh/MUTw7B5j/ce3U6WRDBz/1ALqnOITI0KgAyMXIVntfxSIKnJTw9g0e5MaVP+J13se4MEGmeCoAMWh7HFL/Ar8aI58UGnu1wV9Aj/J7R9r/IGKgAyODkKpwNPCHgdyJ5jid3c23p95aZCoDIOKgAyCDMH+J7fCbPiw38tsMhDvqoPwQqACJjoQIgvRYzPDrhBRH8tie/oHk/PHoFUGQ8VACkd+I0DiT4vQxeavAQndofrgj+a2qODdU5RIZIBUB6IcFyBU9M42UZPMdhmWnoD5+2/0XGRgVAOi2muTvGCRG81J37aot/4qgAiIyJCoB0Tq7C82qeksbL0nimwx76tD+Z9PxfZHxUAKQz4jT2IjghNnCaO/fTp30hVQBExkUFQMrFGdwtt3BqbuEkdw7W4BeAgJv8Cr5VnUNkqFQApEyeygPDOSO38CKHPXWSX27n63YBo+oQIkOlAiCtyxmeGMnLw3iG66oe2QbX83+RsVIBkFbM39T3XEteDTzCNfZlB1IFQGSsVABk7HKGZwes9uSo6izSH/oOAJHxUgGQsYlpnmHGG4BH6PG+7Kocsa46g8iQqQBI43IlT4oRbzDjsdVZpJ8Cfjw1x0+rc4gMmQqANCZmeEIGbyR5gr5+VxZJ2/8iY6YCIIsW0zwq4U0GT9KNfdIQFQCRMVMBkN0Wp3BoOm9O48V6nU+apCuARcZPBUB2WR7PnrmcMzJ4jTv7VOeR4VEBEBk/FQDZJTnDcRG8xeEwbffLOESwxQ/k69U5RIZOBUB2Ss5wTASzoAN+MnbfstVsqg4hMnQqALJdcQZ3y838cQQvcddt/dICXQAk0goVALlT81f3npxbeJMb++mIn7RF3wEg0g4VALmDWMGDw3m3J4/T3Je2pekGQJE2qADIzXIVS/MaXpPJax2WVueRCeXaARBpgz7gCQAxw2MzeLc7D6nOIpMr4KqpWQ6uzrEYMe2r0vJuhl1i2Pr00SU46/0sfl6dTeTWtAMw4fJk9o09eHMGJ+uQn5QLLqqOsFhpub9jJ8//KywcAkYz/JhgPZ6XkKw3s0ssY306l9g5XGGQtcll0qgATLCY5hmRvMPhXhr90gkDeAPA0tbd2d6qw91x7g722Jv/ujmWECu4cQTrsVwPXGJp6zG7xGK0Po1LfY6b2vw1yGRQAZhAsYL90jnX4MWmh0DSIUO4AdAs1rGLjdqdvYCHgG19BGcACVNOQo5m+IHDJUGuN+wSYD0el5ixnrO5SrsHsjtUACZMrOTYHPE+h8Oqs4jcid4XgAy+kbDFvZk/X+e/Z+OewD0d+5Wb/0JsLRkxw3Wj2z1aIG09OVpvN3G5vYvNTeSQ4dHnvwmRq1gSG3gd8FqHqeo8IrcXQdgS9vU13FidZbFG036hGw+rzhEwAi4n8xKM9ZZ2CW7rGY0usb1Zb2dybXVGqaMdgAkQKzgyrub97jy6OovINhnfHcLwB8ByHVh5AZgv+4djdjiw9SNfJrjDRhjNcBWwHvISYP3Nby5MjS6xu/ADW00UxpcxUwEYuJzhhIA5h32rs4jsQO+3/xdY2DqcF1Xn2BGHg4CDwB51y7+b2MiJq9k0WsGlWK7HbjmYSI7W20bW27u4oSy4NEIFYKDyJA5gKe8EjtMBf+mDIRwAvJnZur6fy3NnKfAAsAcAtxxMNIe9YDTDFSSXYLn10UKynqlYb5u4hPP4sQ4mdp8KwADFDE8IeL9vPTgk0g85oAKwx2gdW4ZdvR0OwTgE7FiM+ccLDntAzHDDCNYTuR6/1e4Bo/UEl+m1xm7QIcCBiWnOSONMHfSTvskRR/i5XFqdoymjGf+RwyHVObomIAm+D/MHExdeayQuYcR6extXa/egHSoAAzF/o9+fOzyvOovIrgq4zmdZPqQ/+Ecr7JPu9tTqHL2TXBvG+oU3F3z+zYXcMrrEDuK/bDVbqiMOhR4BDECczv1jxEcdHlydRWpEsAXjaowrSa4iuQrjRjc2BdwEbCLZBNzkxqaEm0g2YYwASKYwlgDLMtkTY2+SfTD2A/YDlgPLCQ4GDhzDtdEXD2n4A+CsA1QAdpWxv8PDMXv4/L+GTGzKiQ2MRiv43u3vPDAbXZLBep/jutrw/aIC0HM5w7NjxPm+9Q9pGZgItgCXY1wGXGbGpcDlJFcyxZVs4SpzrvI5rm1rgOYqPK/nYDZzCMmhGL8A3DONe5Hch+QI4N67eBHOcJ7/z9vWlcCy+xymcI4AO+KW65QTcMxhtIIrsdu+1kjG1uuVD+SHeq3xtvTbs6dyFR7X8L8wXu3659hr85e1fMfhIuDrmVxKzg/7H/EDu2D+U3qP5CqW5HUcxoj7Yzwwt+5OPYTgIe7c5Q5/P5zss7y9IOrYxEoeYukXV+eQreZ3wi6F+e9b4FYHE431g7mDYhdocPRQnMJBuYQPODylOovsmkh+gnERcKHDhSQXcS1fs/PZWJ2tDQmWKziCKR6eySNIfonkUTbF0/0cPledr0lbb9/06x2WVWeRHYvgRziXELnefP61RoutjxrW8pPBPaJCBaB34lSOzik+5nCf6iyyfbH1OfuXMD5n8DmSL/haflydq2ty1dbzBEPcnh2t8C+784vVOWRxIvg5tzqYaG7rGdkl7DFab3fhMlvNpuqMu0MFoEdiBU9L+NCdbaFKvUh+QvJ5g8/hfM6W8+W+/sEgzRhN25+72Uuqc8j4RBD4/GuN3Oq1RotL5h8tXF2dcVt0CLAnYoY/yODcpr5hTBYv4AaSzxh8kiV8aupsvl2dSbrFzNZVZ5Dxmn8j5t5g9wZ+9ea/kA4JoxVsANb7/JsLeas3F1jO9ytfa9QOQMclWExzphuvqM4iEME3cD5pySdI/kU3msn2xAp+xdw/W51Dumn+LZ/L8FxPzt+YiF3sc6NPtrG+Pk12WB7PnrGc83W5T50INuF8yuD/sJlPTp3H96ozSX/YFi5kaXUK6ar5Hd37gt0XgzA2WvCsttbXDkBH5ekcHCM+5vC46iyTJmAzyT+58SHgf9ssG6ozSX+NZvx7DveuziHdFrDRwp7lc6NPtbWmdgA6KKa5X2zm7925b3WWSRHBFpzPWPJBm+KjXT64Iz2TuQ4zFQDZporhDyoAnRMrOTaTj7lxUHWWSRDBF8z5C9+DD9vZXFmdRwZpHfDM6hDSTVXDH1QAOiVmeGqO+Kg7e1VnGbKAa4D3mfPuqVkuqs4jw2bu68jB3SEjDagc/qAC0Bk5w7Mj+KC7jgyNSwT/Ysa7/Vr+v0m5eU86IEbrsKa/O0n6rnr4gwpAJ8Q0vxvB+XrHv3kRXI3zHoM/m5rjW9V5ZPLYAVwSV/Nzd/apziLd0IXhD3oLoFys5KU54p1j+HrViRbBd81YYxv5S3sXN1Tnkck2mvF/d3hMdQ6p15XhD9oBKBXTzGSyxl1FrCmRfM7gLD+Qjw3xbnnpqa1vAqgATLguDX9QASgTM/wPg/+lyb94ASOSj1py1tQc/1GdR+T2dCWwdG34gwpAidE0bzJ4TXWOvpu/sOc97rzFZllfnUdkmyLW4XrKN6m6OPxBBaB1o2nWuLGyOkefRbAF471uvNHWcll1HpEd2pOL9L2Qk6mrwx90CLBVo2ne5KZP/rtr/ms3P2DOal/Dd6vziOyK0Yx/1+HI6hzSni4Pf9AOQGvmn/lr+O+GgAQuMOf1Pss3qvOI7JatBwFVACZE14c/qAC0IqaZMfhf1Tn6KOCTlrzK13JhdRaRxZg/CPic6hwyfn0Y/qACMHaxkpdmskbPWnZNBN8y4/Sptfx9dRaRRoStw3Ul8ND1ZfgDunxmnGKa380R73SdtdhpEWxIOM1v4mGu4S8DYj7Sq4AD16fhDxpMYzN/t/8Fut5358y/y/8uX8Lr9K18MkQJxrRfg7F/dRZpXt+GP+gRwFjEDE+d/2If/fe7EyL5tE2x0tfom/lkuAxyBBc6/HJ1FmlWH4c/qAA0LlZy7PxX+upb/XYg4CqD06fW8t7qLCKtsFwHpgIwIH0d/qAC0KiY5n6ZfMydvaqzdF0kf23JjM/x0+osIm2xtK/qwetw9Hn4gwpAY/J0Do7N/L0bB1Vn6bKAyy05Saf7ZSJ5rCN19noI+j78QW8BNCKPZ88Y8TF37ludpasiiIA538xDdLpfJpbxtQh9S2XfDWH4gwrAoiVYLOd8h8dVZ+mqCL5lzuOnZpm287i+Oo9IFV/DjcC3qnPI7hvK8AcVgEWLGf7E4XnVOboqknf6Tfyiz/Lv1VlEOsFT9wH01JCGP+gMwKLEDH9g8MrqHF0UwZXm/PeptXy8OotIl3jaOoznV+eQXTO04Q/aAdhtsYKnJbytOkcXRfAPNsVRPqvhL3J7ufU7AaRHhjj8QTsAuyVO5eiEDzlMVWfpkoCbDF7tc8za1m/wE5Hb2zJaxxJ99uqLoQ5/0FXAuyxO4aBcwpcd7lOdpUsCvm7O83Wbn8j2JVis8J+4c3B1Ftm+IQ9/0COAXZKr8FzCX2v438EFvplHa/iL7JhB6iBg9w19+IMeAeyS2MAbHZ5cnaMrAkaWvMrXclZ1FpFeSdZh/Fp1DLlzkzD8QQVgp8UKnpXwmuocXRHwUwt+x+f4THUWkb4xHQTsrEkZ/qBHADslTuf+6bzXdWYCgAi+YMEvaviL7KZRqAB00CQNf1AB2KE8mX1zMx9x2K86SxdE8k4/kCf4HN+vziLSV3YQ3wjYXJ1DbjFpwx9UAHZsD97jzkOqY1QLGGVyytRa/tBWs6k6j0ifzf9v6BvVOWSrSRz+oAKwXTHNGcBx1TmqRfBzM57lazmvOovIcOhNgC6Y1OEPKgDbFDM8IY0zq3NUi+BHNsUT/Bz+rjqLyJBY6iBgtUke/qACcKfyJA5IeP+k3/QXcLHtwaP9HL5SnUVkaMxVACpN+vAHFYA7t5R3OtyzOkalgH+04Fg/m/+qziIyRDkaqQAU0fDfSgXgdnKGE5jw5/6RvMeX8wyf47rqLCJD5XP8NIIfVeeYNBr+t9BFQLcSKzgygrU+wbUo4Kyptby8OofIRPBcB3aP6hiTImCk4X+LCR51t5WrWJLO+9y5S3WWQqunZjX8RdriiR4DtMjJKaZGutNlngrAvNjA6xweU52jSgavsFleX51DZJKkrgRuUQJJjnhnnMKh1Wm6QAUAiJUcC7y2OkeFgEw42ed4a3UWkckTX61OMBly/v+BOwfmEv4ydbW7CkCsYL8c8b5JfOUvYGRwgs/y9uosIpPIlvOdgI3VOYbtluG/wOHJOcMf1uTpjokvAOmc685h1TnaFrDZ4QU+y3urs4hMKlvNFpKLq3MM1x2H/63+yltyZvL+7L+1iS4AsZJfd3hxdY62bT0Jy4tslguqs4hMPNOVwOOx7eEP4LBvwHsm+VHAxBaAPJl9czR5W98B6fBSn+ND1VlEBCx0ELB52x/+Cxx+Nac5afx5umliC0DswZvduVd1jrZZcqrN8pfVOURknocKQKN2bvjf/HcbZ+Y09x5fnu6ayAIQMzyW4OTqHG1LeKW+0U+kWwwurM4wHLs2/OHmRwET+efixBWAXMXShD9zn6xfe8AbfZY/rc4hIrdls2wI+F51jv7b9eG/wI1fj2me32ye7puoIQiQ1/AahwdX52hTJGdPzfK66hwisg2hg4CLs/vD/1Y/YTZO48Bm8vTDRBWAmOFBmRN34c/5U2s5ozqEiGyH60rg3bf44Q/gxt0yeMvi8/THxBSABJvf+l9anaUtkXyaG3lZdQ4R2T5LVwHYLc0M/1t5Sczw2CZ/YJdNTgFYyckOj6vO0ZYIvuZ78Rx7F5urs4jIDkyNVAB2WePDH9/6QfHtedxk3Aw7EQUgzuBumbypOkdbAq6wEb9uZ3JtdRYR2THbj/UB11fn6I/mh/8Ch6PzUFaM5Yd3zEQUgNzMHztMxFdABtxgxjP9PJ0qFukLW00QXFSdox/GN/xvXiF4Q57MIWNdpAMGXwByhmNIXlKdow0RhMEL/By+VJ1FRHaR602AHRv/8Adw5y6xhDePfaFigy8AEcxOyjv/5pzms3y8OoeI7DpLXQm8fe0M/5sZx8c0j2pvwfYNejDGSn7bnSdU52hDwF/4LGurc4jIbjJdCbxtLQ9/5g8EGmuH/GVBgy0AeTx75mhibr77sm+YvKuNRYbENnNRtD3leqH94b/A4TE5zQtLFm/BcAvAcs5wH/53PQdclZt5rp3PxuosIrL77DyuJ7ikOke31A3/mxMYf5zHs2dpiDEZZAGIUzg0g9dU5xi3CMKSF+jEv8hA6CDgrdQPfwCHe+dyZqpzjMMgC0A6b3Znn+oc42bGH/la/rE6h4g0QwcBF3Rj+C+w5DV5OgdX52ja4ApATPMonBdX5xi3gI/Z2uG/piIyUUwFoGvDHwBj/9jCH1XHaNrgCkDCm3zApzYBAr5jwe9Z5/5XIiKLsnnSrwTu4PBfkPxhzgzrXNmgCkDM8AQ3nlSdY5wCNpvxuz7HddVZRKRZdh6XR7ChOkeNDg9/YP6L5F5fnaNJgyoAGbyxOsO4GazSTX8iw2SQPpFfDdzt4b8g4EUxw4OqczRlMAUgV/KkoV/6E8G/2HLOrM4hIuMTOWlvAvRj+AM4TCXD+aA5mAIQOZx/KHcmgg1uvNhWE9VZRGR8bKIOAvZn+N/Kc2IFD68O0YRBFICY5hkOj6nOMU7m/KGt5fLqHCIyXpaTciVwL4f/1iuC4XXVOZowiAJgxhuqM4xTwF/5LB+sziEiLbiWrwWMqmOMVz+H/82cZ8WpHF0dY7F6XwBiBc8CHlGdY1wCLrWlnFKdQ0TaMX+t97eqc4xPz4c/87sA3v9dgF4XgNz6D2HQn/7NeKn/KT+rziEiLRrsQcD+D/+bGb8Vp/Gw6hiL0e8CsJLnOhxVnWNcAv7Cz+HT1TlEpF3DPAg4oOHP/C7AqN/fOdPrAmDJq6szjEvAj30TZ1TnEJECMZwCEMmmoQ3/mxnPy5UcUR1jd/W2AOQMT2TAz/4tmLa3c011DhEpMDWMK4EDNlraM4P8m+os4+AwFckrqnPsrt4WgEheXp1hXCL4uM/xoeocIlLDzuGKgJ9W51iMgI0W9iyfG33KljATDPYDzQkxzd2rQ+yOXhaAPJUHYjyjOsc4BFxnSzi5OoeI1DHIPh8EvPXwB/Cz+Ikl/7M61zg47JkwU51jd/SyAIRzxlC/8c/g1b6GH1TnEJFi1s/vBLj98F9gB/COCL5SlWuskj/IE9m7Osau6l0BiDO4G8aLq3OMQwRfsFneUZ1DROpZDw8Cbmv4A9hqwpyTY4CnAd05MPfkhOocu6p3BSC3cKrDsuocTQtIc2ZsgP/jEJHdYP26Enh7w3+Bz/IFkvPbzNWWhJns2c50rwpAnMZeBCdV5xiT9/ssX6gOISLdYAfwzYDN1Tl2xs4M/wW+hddEDO9yMzfunyv5jeocu6JXBYDgBHcOro7RtAh+bj7cOw1EZNfZajYBX6/OsSO7MvwB7DyucONN485VIZMV1Rl2RW8KQK7CE06rzjEOZpypg38icgfR7TcBdnX4L8hkTcCl48pV6ElxOvevDrGz+lMAruYpDverztG0gMuZ4q3VOUSke8y7exBwd4c/gM9x0xBfC3Sw3NKfL2/rTwEwXladYRwMXulruLE6h4h0UHazACxm+C+wtfw18OUGY3WCw/FxBvtU59gZvSgAMc3dMZ5ZnaNpAf/ms3ywOoeIdJMt6d6VwE0Mf9h62VEar2wqV2cY+9tmXlgdY2f0ogBgnOCwR3WMplnwquoMItJddjZXBvywOseCpob/Aj+HTwf8cxM/q0uCfuxYd74AJFgGL63O0bQI/sHn+Hx1DhHpuvxqdQJofvgvMOe1Tf68LnDjkTnDMdU5dqT7BWAFT3TnvtU5mmbGH1VnEJEeyPorgcc1/AF8DV+M4ONN/9xqkd3/4Nr9AjDAw3+R/K2v5T+rc4hI95nVHgQc5/BfYMnrhnZFsMOL4jT2qs6xPZ0uAHEaB2I8pzpHkwLSjddV5xCRfrBR3ZXAbQx/AD+XdQR/O841Wmfsz4jfqo6xPZ0uAIx48QDv/f+IzdKJZ3oi0gM/5jsR7b8q3NbwX+DGG9pYp01pHF+dYXs6XQAyh7X9H0GYsao6h4j0h13ACOfiNtdse/gD2Fq+HMnftbVeK4InxWn8QnWMbelsAYgZHu3OQ6pzNOwCP4evVYcQkZ7J9q4Erhj+C8x5c9trjpM7TvCi6hzb0tkCkMnzqzM0zXJYv7lFpB1GOwcBK4c/gJ/D5yL5XMXa45Lwe9UZtqWTBSDBSI6rztGkgH/2c+tf5xGRHvLxHwSsHv4LDP6kcv2mOTw4pjmqOsed6WYBWMnj3bv73GR3GJxVnUFE+smWceE4f35Xhj+AreXvIob1qDSNF1RnuDPdLADJ86ozNCmCr/ksn6jOISL9ZGdybQSXjeNnd2n4w9bvCLApzqnO0bDfqQ5wZzpXAHIVDvx2dY4mmXN2dQYR6Tlv/iBg14b/AruG9wX8tDpHUxwOjxkeXZ3j9jpXANjAExwOqY7RlIArbDnvq84hIj3X8JXAXR3+AHY+G4F3VOdoUnZwF6BzBSA6+F/SYhica6vZVJ1DRPrNzBsrAF0e/gtsC++IYEt1jsZE924F7FQByOOYIodz9W/ADThvr84hIgMQo0YKQB+GP4C/jR9i/O/qHE1x57BYyS9W57i1ThUAfoFfdeNu1TEak/yNr+Hq6hgi0n92IJcGXL+Yn9GX4b/AjbdVZ2hSJs+tznBrnSoAMRrW6X9L3l2dQUSGwVYTsPuvA/Zt+APYLJ8N+Hp1jgZ1aoe7MwUgwXCeXZ2jKQEX+xz/UZ1DRAZkN68E7uPwX2DJn1VnaIrDA2Oa+1XnWNCdAjDNIx3uWp2jKYY+/YtIs8x2/UrgPg9/AEa8N2JAB6mNZ1ZHWNCZAoDx9OoITQnYaJv4q+ocIjIwsWtXAvd++AP+Nq4CPlqdoykZKgB3kAynAJB82N7ONdUxRGRglnJRQO7M3zqE4b/A4D3VGRr0+JxheXUI6EgBiNM4kOCXqnM0RYf/RGQc/Cx+Dnx3R3/fkIY/gB3IPwX8sDpHE9xZksnTqnNARwoAI57i3pEsixTJt32O/1udQ0QGagcHAYc2/GH+DYjk/dU5mpLw1OoM0JECkDmc7X8z3ludQUSGy8y+uq2/NsThv8Cc86szNMZ4SnUE6EABmH/9rxNtqBHOB6sjiMiA5Z2/CTDk4Q/g5/C1SC6qztEEh0Njmod2IEetXMnDHe5enaMJAf/P1+z4+ZyIyG5bcscrgYc+/BcY/E11hgaVf/AtLwBENw5DNMHQp38RGS87m+8Ht7xlNCnDH4Aczp+xmTy5OkN5AcgBvf/PiA9VRxCRYTNIYutBwIka/oDPcUkkX6rO0ZDH54nsURmgtADEGexD8JjKDE0J+E8/l0urc4jIBHDWTdrwX2DGR6ozNMGdfXIZjyrNULk4Ix7tzpLSDA2x0Kd/EWmHpf3HJA5/AKb4cHWExhhPrFy+tgAEx5au35CANFMBEJF22Nr44EQOf8DP5ttD+YbAhF+tXL+0AGQOowAQfNHWcnl1DBGZDLaT1wEPVg7kuwGMx+Wqul3wsgKQq3Ccx1at3yRz/k91BhGRSWE5jD9zHfbOazmmcP0aeQ0Pddivav1GGZ+sjiAiMinsQL4YyU+qczSi8FF43SMAG8b2fyQ/sXP4cnUOEZFJYasJ4O+rczQh4fFVa9ftAAzl+b/xqYl/Hici0jIbys5r4Sys2wEYSAGw5BPVGUREJs4W/imCqI6xWO7cI07nXiVrVywap3CoO4dVrN2kCMKWMJGv4oiIVPK3cRXGV6pzNGJUcyFQSQGwJcP49I/zZTubK6tjiIhMqH+oDtAES36pYt2aHYAcxvW/aPtfRKSMwWeqMzQhmKAdAIyjS9ZtmMM/VmcQEZlYU3w+gk3VMRbNeGSCtb1s1SHAo4rWbUzATZn8Z3UOEZFJ5Wu4EeML1TkWy2G/XMERBeu2K6a5u8Nd2153DL7sc9xUHUJEZKIZn62O0Ahr/0bAih2A3n/6n/f56gAiIpPO4HPVGZppx8/fAAAgAElEQVSQTEIBMB7W+ppj4AP5TSci0mvBvw/hPoCJ2AGwgewA5BLtAIiIVPM5rsO5uDpHA1r/cNz+GYABFICA7/hZA/kiChGR/hvCB7J758ns2+aCrRaAPI4p4EFtrjkWqe1/EZGuMPr/RpaD5ZJ252O7BeBQ7u+wZ5trjoPZINqmiMgweP8LwLwHt7lY248Aer/9D8CIL1ZHEBGRrez7fD3ghuoci5U24AKQ2f83AAI220F8ozqHiIhsZRcwAr5anaMBD2hzsXZ3AJL7trreeHzLVg/g6kkRkSFJ1lVHWLRod0a2WwCMw1tdbxySi6ojiIjIbZkNoAA4R7b5nQBtnwE4rOX1GudwYXUGERG5g94/AnDYM0/nni2u1448kb3duFtb641LqgCIiHSObeZrAVmdY9GC+7W1VHsFYFn/P/0DsESPAEREusbO43qC71fnWLRsb1a29whgqv/P/wOu8bP5r+ocIiJyp75eHWCxMrlPW2u1eQbgsBbXGo/Qp38Rkc7y/hcAtwEWgMz+7wBgev9fRKSrDL5TnWGxIgZYABjADoDDZdUZRERkG5LvVkdowL3bWqi9AhD93wFI49LqDCIicufM+r8DgHNoe0u157AW1xqXy6oDiIjINizn8oh+39TqsGeexAEtrTV+eSJ7u3NgG2uNVaoAiIh0la0moP+vAuYS7tHGOu0UgCXctY11xingBl/Lj6tziIjIdjjfq46wWDbVzmOAdh4BLOWgVtYZp+j/byoRkaFzuLw6w2JlcEgb67RTAEYc3Mo642Ta/hcR6boYQAHA2pmZ7RQAH8AOgN4AEBHpPEt+WJ1hsTLbmZntFICWfjHj5KkrgEVEOi/5UXWERRvSDoC19IsZp3SurM4gIiI7sGQABSAHVACC/u8AEFxVHUFERHbABlAAbED3AED/dwDQDoCISOfZ9QP4sJbs38YybRWA/u8AjAbwm0pEZODsXdwQsLE6xyLt18Yi7RSAGEABWKodABGRXuj7I1sbUgHw/j8CsH25ujqDiIjsBOv9n9cDKgBwl5bWGY/kWlvNluoYIiKyU66rDrAYDnsnWAvrtGJZS+uMRZi2/0VEesP4WXWERTt+/HNTBWDn9H07SURkkvR6BwCAvdlr3EuMvQDkKtxhatzrjFVwY3UEERHZScn11REWK30ABYDLWDr2NcbN2FQdQUREdpL1/jVAbA/2HPca4y8Ah/R++18FQESkX3q/a5vOknGvMf5HADcMYAcAbqoOICIiOyn7XwDYPIACQP8PAEJoB0BEpC/M2FydYdGWjP/s3NgLgE0NYAfAVQBERHpkVB1gsSwGUADYMoACkHoEICLSF5b9LwBp45/P4z8DMIRHADoEKCLSG2n9LwC08Bhj/DsAPogdABUAEZH+GPsBurGz8e88j78AtLCN0YKoDiAiIjvHBrDzbKPxf/BsowD0fyumvSuTRURkkSL7v/Ocg9gBGA2gAFjPrzIWEZkk1v8CwOYh7ADkILbPVQBERPqj/48AWnj7rI1DgP3fAQj2qI4gIiI7rf87AHcdwg7AEG5k8vF/KYOIiDTDe74DEJC2egAFwIZwj36O/2sZRUSkGb0/BBjtfHAe/0VAQ/hSBtMOgIhIj/R6B4CWPjiPfwdgr/5/LzOwT3UAERHZScbe1REWaRgFgD37vwPgsF91BhER2UnJwdURFsXb+eA8/h2A1WyKnn8zU6gAiIj0R98LAFzdxiKt3HDnyfVtrDNGKgAiIv1xUHWARUmubGOZVgpAJNe1sc4YLa8OICIiO5arWOrOXapzLIYbV7WyThuLQL8LgMOyPJl9q3OIiMj25bU9//QPBEMqAM7PWllnnPbo/TMlEZHhswH8WT2kRwAE17ayzhhlctfqDCIisn0W/d8BsEE9ArB2TjSOmQqAiEjHpXYAdlpbBaCVX8yY3aM6gIiI7MAQdmuHtANg2c4vZswOrQ4gIiLbZ8l9qjMsmg+oAOD93wFI7QCIiHReGIdXZ1gsG9QjgJZ+MWOV/EJ1BBER2YHksOoIi7ZsQDsABj9uY52x8gFsK4mIDF3PdwAiuNHObOfNuVYKQMKP2lhnrEIFQESky+IM9vG+v7HlfK+9pdoQ/S8A7izPV7F/dQ4REdmG0QC2/+GythZq58uA5rgu4IY21hqn/PkgfnOJiAzVYdUBFi25tK2l2vouABjCYwDnvtURRERkG6Lfz/8BbGg7APMLfb+ttcbF4H7VGURE5M4lAygANsAdgIj2DjaMS6gAiIh0V/KQ6giLlTnAHYA2TzaO0QOqA4iIyDYdVR1gsWzJAHcALAdQAIwHV0cQEZE7ilM4yL3fN7YGXG9nt3dxXnsFYAA7AA4HxCn6TgARkc7x/n/6p8UDgNBiAchRe9saYzXV/2dMIiKD4zysOkIDLmtzsfZ2AA7kexFsaWu9MXpodQAREbmtHMDzf2j3g3J7BWA1W/D+7wJkckx1BhERuYPeFwBLvt7mem1eBATwnZbXa57x8OoIIiJyi1yFwwAezzoXtbtcm5LvtrreOCQPihUsq44hIiJb5TUc6bB3dY7FCEhGAy4ABt9qc71xcGcJU4M4bCIiMgzGY6sjLFrwPZ/jujaXbLcAWLvPN8Ym+KXqCCIislXCsdUZFs3a/fQPLReADL7W5nrjksmjqzOIiMi8GEABgAvbXrDVAuBz/DSivVuOxkgFQESkA/IkDsD7f0urDX0HAMB9ALsAzv3zJA6ojiEiMulyDx7rYNU5GjDsHQCASC5ue82mOVgu43HVOUREJl1a/7f/AzbaD/l22+u2XgDMWNf2muOQyeOrM4iITLwYxJ/F37ALGLW9aOsFgOSrra85DskvV0cQEZlkeSJ7AI+qzrFYXrD9P79uu+xaLgrabzqNMx6Zx7NndQwRkUmVe/FId/aqzrFYCV+pWLf9AnA+GxnChUCwLPfv/7MnEZG+MnhqdYYmWPK5inXbfwSwVUnbaVrCr1VnEBGZVJE8vTrDYgVcz49qHo2XFACD/6xYt3HJf6uOICIyifJ0DiZ5ZHWOBnyh4gAgVO0ABF8sWbdpziNzhuXVMUREJk1u4SnuZbvYzSna/oe6RwD/L4JNRWs3xmEKeHJ1DhGRSZPW/+1/qHv+D0UFwOe4Cat57aFpkTytOoOIyCRJMJKnVOdYrAgC+I+q9eu2T6zuF90oUwEQEWlTruQRbtytOseiORe1/RXAt12+iMHnq9ZuksOhOcMx1TlERCbGcHZey7b/oXIHIPjXsrUblsmzqjOIiEyKhN+sztCEyuf/UFgAfI7vB1xetX6TMofxm1FEpOviVA73AVz/C8CWCS0A8/6teP1GuPOLcTr3qs5RJYfxVZwi0gdTPK86QhMCLvfz+F5lhtICYPAvles3ajPPro5QIaanfiNX+HHVOURkMmQMowAAn6wOULsDMMVnStdvUBoTNwRjeuo3MvPD6flL1VlEZPjiNO7rzi9W52iC5YQXAD+bbwd8vzJDY5Jj82QOqY7RloXh785SkqOr84jIBBgN49N/wGaW8U/VOarPAEDw6eoITXDHcynPrc7RhtsMf4C0Y3QOQETGLY3fqc7QBIfP+5/ysw7kqGXOP1dnaEomz6/OMG53GP6AOwfnKdyjMpeIDFvM8ACHo6pzNCHhE9UZoAMFgAEVAODYOJn7VIcYlzsb/jdbMqXHACIyToP49A9AqgBsDbCGHwRcXJ2jCQ7GEl5YnWMctjv8ActUARCRsUiwhBOqczQh4Ie+thvfhVNeAOaVn4ZsStrwCsCOhj9AmAqAiIxHTvMkh8OrczSiA6f/F3SiAHThdYimODw4VvLI6hxN2Znhv5Xp+xBEZCzMeFl1hqa4dWfedaMAHMC/BlxfnaMpmfx+dYYm7PzwB4L7x2ns1UIsEZkgeToHRwzj+1YCRsA/VudY0I0CsJpNMKjDgC+IFSyrDrEYuzT82foaJCMeOu5cIjJZcgvH7+yfQ13n8G82y4bqHAs6UQAALPnb6gxNcTgA47eqc+yuXR3+N3PXOQARaVQaL63O0JRMPlSd4dY6UwDYg7+NIKpjNCWTP6jOsDt2e/gDGalzACLSmJzm8Q4PrM7RhPnt/w9X57i1zhQAP4ufAF+oztEUd54YMzygOseuWMzwB8BMOwAi0pjI4Rz+I/m/vpYfV8e4tc4UAABzPladoUlJf3YBFj38tzpKVwKLSBNimrvjw7n8x6xb2//QsQLAFB+tjtCwE/pwMr6h4Y/DfnkqhzUUS0QmWMKpTr8PUy+IYItNdWv7HzpWAPxsvh3JRdU5muJwAMGLqnNsT1PDf4FN6UpgEVmcPJG9MU6qztEY5zN2NldWx7i9ThUAAIMLqjM0KWG6OsO2ND3853+qDgKKyKLknpzgcFB1jqZY8sHqDHemewUghlUAHB4aK/lv1TlubzzDHyLQDoCI7LZchWdyWnWOpgRs7urj7e4VgHP55lC+HGhB134zj2v4A+B6E0BEdl9u4Nnu3Lc6R2OSf/I1XF0d4850rgAAGPxNdYaG/XrM8KDqEDDm4Q84HJ6vYv9x/GwRGb6EM6ozNMk7ePp/QScLACM+UB2hSb71qyxfUZ1j3MN/Qd7EUeP8+SIyTLGCxzg8rjpHUwJuyOAj1Tm2pZMFwM/l0oDPV+doVPDCOIVDy5ZvafhvXUxXAovIrkvnj6ozNOyDPsd11SG2pZMFAMCS91dnaJI7S3MJL69Yu9XhDySpAiAiu2T+0/8zqnM0yeDd1Rm2p7MFgBEfDNhcHaNhf5Cnc3CbC7Y9/AFdCSwiuyydN1RnaFIEX/NZ/r06x/Z0tgD427iK4O+qczTJYe8YtfdGQMnw3+phuYolLa8pIj0VK/llhydX52iSOX9WnWFHOlsAAMz5i+oMY3BqnsQB416kcPjjsGdu4H5trysi/WTJG6szNCngJrbwV9U5dqTbBWA5fx9069uTFsthv9hjvK+5VA7/m6UOAorIjsU0vwb8SnWORiUf8bdxVXWMHel2AVjNFuh+i9plxkycMp5rLjsx/IE0HQQUkR3LgX36B7Ds9uG/BZ0uAAAG76nO0DSHfXMJr2z653Zl+AOQuhJYRLYvZni6O4+tztGkCL5rc3y2OsfO6HwB8Fm+Ecm/VudoXLCiyXsBOjX8QW8CiMh25XFMJbylOkfT3Phzg6zOsTM6XwAAzHh7dYamubNXOq9v4md1bvgDDofGCu5anUNEuikP5USHh1bnaFLAZrbwl9U5dlY/CsByPhzJT6pzNM55SczwgMX8iC4O/wU2NaVdABG5g5xhecaw3vsHIPhrO48rqmPsrH4UgNVscob3SqDDVAZ/srv/+S4Pf4AMHQQUkTuKZJV7u5eitcGW8NbqDLuiFwUAAOMdEUR1jKa58+yc4Ym7+p/r+vAHvQkgIncUMzwA45TqHE0L+JSv4aLqHLuiNwXAZrkM+Hh1jnEIODtX7fw/iz4MfwDSjqmOICLdkskahz2qczTNsl+f/qFHBQDAndnqDOPg8PC8huN35u/tzfAHSB4UK1hWHUNEuiFmeLobT6/O0bSAdb6Wf6zOsat6VQBsls8GrKvOMQ5pvDlfxf7b+3t6NfwBd5aY86DqHCJSL1exNOHs6hzjYMFZ1Rl2R68KAIDB2uoM4+Bw99jI6m399b4N/wWpK4FFBGADr3V4YHWMpkXwA7uJv6nOsTt6VwAI3h/05zWLXRKcEtN3fC+2r8MfdBBQRCBW8OAIXlOdYxzMWGvv6udX1/euAPgcNw12F8BZknBegi38e30e/vN0EFBkgiVYOu/u8Z9h2xTBz2wv3lmdY3f1rgAAGLw9gp9V5xgHN345Z/h9GMTwh7Cjb11oRGSy5EpOdnhcdY6xcP7MzuTa6hi7q7d/MI9meKsz3q/VrRLB1YZPJ7yn18N/Xkbcy+f4fnUOEWlXrOCeCV935y7VWZoWwY0+4og+3fx3e73cAQAwZ00Em6pzjIO7HZjw3iEMfwB0JbDIRErjvCEOfwCc8/o8/KHHBcDX8APg/OoczTPAcO/vP5s70JXAIhMnZzjOjWdW5xiHgOstOLM6x2L1eshY8uYItlTnaI7R46cy22SWOggoMkFiJfeI4LzqHGOTzPkcP62OsVi9LgB+LpdivK86RzOGOfwBIk07ACITIsEy+cshftkPQMB1NtW/a3/vTK8LAIDBmwJG1TkWZ7jDHwDjfnEG+1THEJHxy2lWOjylOse4OKzxNVxdnaMJvS8AvpbvAB+ozrH7Bj78AQdjyx0vOBKRYYlpjkrjzdU5xiXgGvZkTXWOpvS+AAC48fqgjzcxDX/438J1DkBkwPJ49szkA85wvwDMkrf2+b3/2xtEAbBzWE/ynuocu2aShj9k6k0AkSGL5fypOw+pzjEuEVxpW4Z1C+0gCgCATfHGgI3VOXbOZA1/AEwHAUWGKmZ4usOp1TnGyeBMO4/rq3M0aTAFYP5egLdX59ixCRz+Wx2Vq4bz+01Etpq/7W+Ad7LcIuBSYK46R9MG9QeyT/EmssvPZyZ2+OOwb17N4dU5RKQ5sYJlaXzY4a7VWcbJklf4HDdV52jaoAqAnc2VaV29nWlyh//NbEoHAUUGJJ21bvxSdY4x+7++lg9XhxiHQRUAAJxzgq598YyGP0Ba6ByAyEDEDC9xOLE6xzhFEMDK6hzjMrgC4Gu40eGPqnPcQsP/ZoEKgMgA5DSPSHhbdY4W/LnN8tXqEOMyuAIAwHLeG9GFf2ga/rfhehNApO/iFA6Krc/996zOMk4B19lS/md1jnEaZAGw1YQ5M8Up0PC/LYf75EkcUJ1DRHZPrsJzCX/tcJ/qLONmwRv9LH5SnWOcBlkAAHyWfwn4UM3qGv7bkks4qjqDiOye2MA5Dk+uzjFuEXzXDhzWpT93ZrAFAMCTV0RwY7uravhvl7seA4j0UEwz47CiOkcbzDnDVrOpOse4DboA2Foud+ctLa6Ihv/26Upgkf6JFTwrk7Orc7Qhgn/wWT5enaMNgy4AAGzgTyJYP/6FNPx3hutKYJFeiWkelc4H3Ic/LwJusOSk6hxtGfw/UDufjebjvqNaw39nBTw0V7GkOoeI7FjOcFgaf+uwd3WWNljyOj+XS6tztGXwBQDAZ/lEwEfH89M1/HeFw7K8lgdU5xCR7csZlgf8ncPdq7O0IZIv2Y84pzpHmyaiAADYFDMR/Lzhn4qG/24IHQQU6bJYwbKAjzg8uDpLGyLYYsFL7QJG1VnaNDEFwM/mv8x5XXM/UcN/d6XpIKBIV+UqliR8yOFXq7O0xnmrn8u66hhtm5gCAGA/ZDbgPxv4SWj4L4KuBBbppFyFxwb+yp3frM7SloDv+AZWV+eoMFkF4AJGlrw0gi2L+Clo+C+Sm74VUKRjEiw28C6H51dnaUtAOpxo57OxOkuFiSoAAL6WC9ntuwE0/JvgcPeYnoyDRSJ9ETOscfjv1Tla9h6b5bPVIapMXAEAsOANAd/cxf8UGv4Nyik9BhDpiNEMf+xUf39KuwKucHh5dY5KE1kAfI6bzDk+2NkTnxr+jXMdBBTpgpzm1Q6vrc7RpoA0eInNsqE6S6WJLAAAvoYvAmfu+O/U8B+HJHUOQKRYzPA/Md5cnaPAuT7LJ6pDVJvYAgDgy1kdcOG2/w4N/7EJXQksUmk0w5sN3lido20BF/sGXlmdowsmfrrlDMdE8AV3lt72r2j4j1PAyDfEvpN6+lakSoLFDGudcV+R3j0BN5nzKF/DRdVZumCidwAAbJavmvFHt/t30fAfL4epPGAybhkT6Yo8jqmY4c8ncfgDGLxaw/8WE18AAOwA3hrwmfl/hYZ/S3QlsEhr8kT2iEP5gMPvV2epEME/2Cyz1Tm6RAUAsNWEBb83wq7X8G+PDgKKtCOPZ8/Yi484PK86S4UIrvQRJxhkdZYu0deyLrCpYyxyT1Wi9rjZ0frfo8h4xSkcFFN8zOHY6ixVbIqX2BxXVOfoGhUAIKanfiMzP+yu/z7aFMHRCaZWLjIecRr3zeDvHe5XnaVKwDumzuFvq3N00cR/3r3V8F+6479bmuTOcqa5V3UOkSGKFTwut/DvEz38g6/4Bk6rztFVE10ANPzrpetKYJGmxQqel84/u3NwdZYqEVztznP1qvG2TWwB0PDviNBBQJEmxQyvSudvHPaszlIlgjB4gc1yWXWWLpvIZ94a/t2Rpu8EEGlCnsgesRfnGpw46e8ymfM6n+VT1Tm6buIKgIZ/x4TeBBBZrFjJPSK4YJJP+i+I4OM+x5uqc/TBRD0C0PDvIOfIeAV3qY4h0lexkl/O5CtuGv4B3/G9+T29WbRzJqYAaPh3k4OxkYdV5xDpo5hmJkd82uGQ6izVIvi5Gb9lZ3JtdZa+mIhHABr+Hed+NMTnq2OI9EWeyN6xF+82+F2b9Af+8wxe4ufwteocfTL4AqDh332ZOggosrPiNO4bIz7iaOdsQcBZU3N8qDpH3wz6EYCGf0+YqQCI7ISY5vk24ktuGv4LAj7my3lldY4+GuzmkYZ/f0Twc78i9rcLGFVnEemiWMF+6bzN4UXVWbokki/5Rn7F3sUN1Vn6aJA7ABr+/eLOPnkvjqzOIdJFsYLHpfNVDf/biuAyg9/Q8N99gzsDoOHfTzaaOhpG367OIdIVeRxTcQ9el8b/cJiqztMlEWww+HVfy4+rs/TZoHYANPz7KzJ0DkBkXpzK4XEI/+rG6zT8bytgs03xXJ/j69VZ+m4wBUDDv+cMFQCZeAkWM5yUxjp3Hludp4sseZmfw6ercwzBIB4BaPgPgR2jy7tkksUMD4rk3Q7H2mA+mjUrkjdMreX86hxD0fu3ADT8hyM9DvI1XF2dQ6RNuYqleQ2vyeS1+nNs2wL+amqW36vOMSS97pka/gOzZUqPAWSixAyPjav5ihmv159j2xbJJ3w5L63OMTS9fQSg4T9AnkcDn6mOITJu8Qrukjfx5gxOcu/3B7FxC/iMX8tzbC2bqrMMTS8LgIb/MOlKYBm6BGOG42Mjb3LnHv1/CDteAf/hm/lNO5+N1VmGqHcFQMN/wFIHAWW4YiXHRnCOwyNdn/l3KIKvuvN0O4/rq7MMVa/6p4b/sEWwyW+Kfe1dbK7OItKUOJ175Yi3ODy/OktfBHzTgif4HD+tzjJkvdkB0PAfPneW5j48ELioOovIYuWJ7B178qrczCvc2as6T19EsN6CX/O3afiPWy8KgIb/BBn50RAqANJbuYoleS0nRLLK4Z792metFfB9d37N5vhhdZZJ0PkCoOE/WdLyaOB91TlEdlUex1QeygtjA69zOFJzf9dE8hMznmSzXFadZVJ0ugBo+E+g5JjqCCK7IsFymt+J5PUOD9Dg33UBV5jzJD+Hb1VnmSSdLQAa/hPK7OgkzfQ6gHRcguUMvxWw2uGhpsm/WwIuN+fXfA3frc4yaTr5W1bDf7KlxaF+Dj+qziFyZ+a3+n874VUOD6/O02cB3/HkSbaWy6uzTKLO7QBo+AujqaNhpAIgnZIns2/uwUsjmHE4rJOfnnok4GLfzJPtPK6ozjKpOlUANPwFwCyPAT5ZnUMEIE7hUJtiOpI/cFiub+prxJdtC0+187iqOsgk60wB0PCXBWG6EljqxWk8LLfw8oTnm7HU9ZG/EZF8zpJn+Nu4rjrLpOtEAdDwl9sIO1pnAKVCnMZeBMdl8lILflmf9psVyT/5Rp5l7+KG6izSgUOAGv5yexGELYl9fQ03VmeRyRCncnQ6LyN5oTvLq/MMUQQfN3iez3FTdRbZqnQHQMNf7ow7nslDgC9VZ5HhildwF7uJFwS8zIxHGnTgI9EwRfI2v4IZu4BRdRa5RVkB0PCX7fNjIFQApFG5iqV5DU/J5LjcyHPN2Ue7/OMTQZjx8qm1rKnOIndUUgA0/GVHMnUQUJqRJ7JH7sWTMnleXM2z3VmuS3vGL4IbzXihr+Wj1VnkzrVeADT8ZaekDgLK7svjmMp78N/S+J0IfsvhQDO0xd+SSH5izm/6LF+oziLb1moB0PCXneVwVIKuBJadlqdzcAZPzeDpkTzVjYMNQHv8rQr4pgXP8HO5tDqLbF9rfVjDX3ZdHK5vBpNtyVV4buDRCU8HnkbwCHeN+0oRfNa38Bx7O9dUZ5Eda28HINlkxiuDPJLkCMyOBA53WNZaBumZqWNgdFl1CumOOJ37M+LxGTwlrubJ7hx486cYjf5SAe/zA/nvtppN1Vlk55Q+EctVeF7NoThHkH5kkkcAR5J2BHCkOwdX5pNambze18bq6hxSI1exNK/mkTjHJhwLPM7hrtW55LYCRgav8Vn+tDqL7JpOH4mJFexnzhHJ1BFEHpGeRwJHgB1JcB/3btxkKOMR5EenZvM51TmaNv8q2tF2AOv0aWmrXIXnNRyJ8bCER5Mci/FI7RB2W8BPzXi+n8Onq7PIrut0AdieXMWSvIp74VNHGHkk5BExv3vgxpEY+1dnlMWJYP3UXBxZnaNpOc0jML4UcBNwIcmXHL6axjqWcLGfxc+rM45TnMJBOEdhHJXGw4CjgIc47F2dTXZeJF+0Jfy2n81/VWeR3dPbArAjcRoHklsfLQBHJLfaPYB7+YB/7UOSEfv73LC+NCSm+X0z3nOnf23rWw+XAV8DvuXJt9P5rgXf5QC+b6uJNrPujgTLU7gHe3A4cBjJ4QmHAYcRPNidexRHlEUKeJcF07rWt98mcgjGCpaxB/dh89QRTOWRGXkENn/2IDnCnf+/vXuLlauq4zj+/a9dWk/LxdIKVuXSNgRMkPrmkw8+mfjqk/rggwajpFDwyURu70Dbc7gYUCPBBAGNYKIlKWAQCwErQhsUiNACCi2ellspvc1aPpw5lEMo9MDsWXP5fpLJ5Jx9mvklTWb/Zs36772kdkZ1lfzVmOSvtWP0Uudi1qdg3Xz/XYbDZF4CXiTxUiq8XOAVgl0Bu0vwP2AvHfb2+o25QJRLWUqwnA7LCJZHYVnJLMTd7ngAAAdYSURBVC+JZRSWE5xJ4WyCs1y6H00ZDgRclDZ+cIHVcBnL79C7b47PQufZuUfKzBvdxZxGdFcPglUll9WkWEVmtZ9e+quktAbySBUAZpa85y3BCSRWAasAiLkNPsrRP+xcwgHgDWAf8DaZt0kcAA5SOEyhQ5ApJIJFBAuBRRQWEiwid3+eGdudyPDplGnefbHua8XsUtpskLH8SDEeMryQCt+MSf5eO4t6YywLwIcJKEyyG9gN+ZGjR2be8cqFLC6LWcnsxsRwrLFNpTOClwQuXND2iTLBp5h5nD77i3e994p4788x+7MjdXqPDJvjCN+KG9hTO4t6x77eQ4419l4uPNZM5q/UztEreR0rovBy7RzS8chwOAo/jaVcMwz7TzQ/FoA+cqxx/nLmnbQrnzQqtxHNl/D1gHtr55A+Ss48Ew3fTht4vHYWtcMTTh91d7M/AZ0n5h4pjjUeQ0pMcDrnAE/XztIjH+v7f6mfMtycDnJp3Mz+2lnUHgvAgIirOQLsgM4O4P6jR2b2HozzWGNp0hrII1EAClwwsv9RGno5Mx3w/WaKe2pnUfssAEMirWcvsBfy1rlHysyV5d7i7DljjbMbE0dgrLGUsga4o3aOHnEFQAMpw+Zo+G7awCu1s6g//DAy4kZhrDGXsqmZLN+oneOTKhdyQl7EPu+IqUGS4WAUfhKTbPD22+PFFYARNxJjjRFrRuF9qSzhvJQ9+Wtw5MLWgO+lSbbVzqL+cwVAx/ShY42JVX29M1uTPxPXMd2312tBXsd3ovDr2jmkDPujcEW8woZRmbDR/LkCoGPqzv3+Z+aR/3L0SHdj4lpOprCSplnd9lhjOdKsgc79H/2Xg6sUNwCqvgybo8MP0vXsqJ1FdVkA9LF1xxqfhM6Tc4+0MNYYZQ1zpiOGkhsAVU3O7I3gsmaSW2tn0WCwAKgVvR5rLJQv9yt7iywAqiIXbo+FrEvX8mrtLBocFgBVcdxjjVFWFcrqBIerBO2RfBHLAj5XO4fGS4YXo/DDZpI/1c6iweNXklIf5LV8LRIP1M6h8ZAzh0hMpsNcHTeyr3YeDSZXAKR+CJf/1R8584dYwI/Tev5dO4sGmwVA6gMvAay25cxTqWFdM8V9tbNoOFgApP5wBUCtyLAngivTLn7mTL/mww8lUsvKlaS8l30pMVE7i0ZHzhwhuDEd5qq4iddq59HwcQVAall5nXM8+auXMtwbicvSRv5VO4uGlwVAaltmDal2CI2CXHgoCpc3UzxYO4uGnwVAalkJNwDqk8mZRyO4vJlkc+0sGh0WAKl9bgDUx5Izj0fDFc0Uf6ydRaPHAiC1zWsAaJ5yYXsKrmimuLt2Fo0uVyalFuW1nByJN2rn0HDI8HTAVbGRO2P2xhlSS1wBkFoUfvrXccjwcBSuSUu5p3sbbql1FgCpRV4BUMeSM5ng7giuaTbySO08Gj8WAKlFFgC9X4b9wK8CrkuTPFc7j8aXBUBqU+ECd9oIIMPugOvjCDelG9hTO49kAZBaUiAynF87h+rK8GQE10eH29IUB2vnkWZZAKS2rGNlKpxUO4b6L2feInF7BLc0G9haO4/0QSwAUluKEwDjpnvFvltiIb9J1/J27TzSh7EASC1xA+B4yPAahdui4efNRrbXziMdLwuA1BILwOjKmUziwQh+kV7jd3ErB2pnkubLAiC1x68ARkieuTLflijckTr8NqbYVTuT9En4AUVqQbmQxXkRb6XkjYCHWfek/2jAHSTuSuv5b+1MUq+4AiC1oCzh/JQ9+Q+rDH+LzJ0puDMmebF2HqkNFgCpDU4ADJWcOUTioShsisTvmw08XzuT1DYLgNSCUtwAOOhyZifBpkhsioU84Niexo0FQGpBcgPgwMlwgMyDkbgX2NRM8UztTFJNFgCpBTnzpeQOgKoyHKbwD4ItUbgvGv6cNvJO7VzSoLAASD2W1/KFSJxaO8e4yZnXSTwchS0UtsQCHkvrPeFLx2IBkHotXP7vh5x5nsSWYOaEn6Z4KmbG9iQdBwuA1GPh9/891f3u/p8psb3Atgi2lYZtzbW8WjubNMwsAFKPlRP4JYd4guCLJTgvwbkZzk3w2drZBlmGQuYFYBvB9ihsI7E9vcyzcRed2vmkUeOkktQn5UecWBKraVgNrC6wisxKEmcBZyZYXDtj2zLsA3Z2HzsCdlLYQWEn8Fya4s2K8aSxYgGQBkS+iGWxgDNKcAaZzxdYQWEFiRXA6cBpZJanxJLaWd8vw34ye0hMU9hDMA1MR+GlCHaUws5YwI64junaWSXNsABIQyZfygRHWEZwKoWlJE4hcwrBKQQnFTiRwmJggsJESkzkzCISCyksIGjINCRSgk6Gg8Ah4CCl+xzd5+7vAw5G4VCBNylME+whd58XsMfd9pIkSZIkSZIkSZIkSZIkSZIkSZIkSZIkSZIkSZIkSZIkSZIkSZIkSZIkSZIkSZIkSZIkSZIkSZIkSZIkSZIkSZIkSZIkSZIkSZIkSZIkSZIkSfoI/wd2zhyGTO5TMAAAAABJRU5ErkJggg==;" vertex="1" parent="1">
          <mxGeometry x="890" y="582.5" width="55" height="55" as="geometry" />
        </mxCell>
        <mxCell id="S9dilDW7TyfF1VimtBwa-37" value="" style="shape=mxgraph.bpmn.data;labelPosition=center;verticalLabelPosition=bottom;align=center;verticalAlign=top;size=8;html=1;bpmnTransferType=none;isCollection=1;" vertex="1" parent="1">
          <mxGeometry x="390" y="460" width="27.68" height="38.06" as="geometry" />
        </mxCell>
        <mxCell id="S9dilDW7TyfF1VimtBwa-38" value="" style="shape=mxgraph.bpmn.data;labelPosition=center;verticalLabelPosition=bottom;align=center;verticalAlign=top;size=8;html=1;bpmnTransferType=none;isCollection=1;" vertex="1" parent="1">
          <mxGeometry x="320" y="482" width="27.68" height="38.06" as="geometry" />
        </mxCell>
        <mxCell id="S9dilDW7TyfF1VimtBwa-39" value="" style="shape=mxgraph.bpmn.data;labelPosition=center;verticalLabelPosition=bottom;align=center;verticalAlign=top;size=8;html=1;bpmnTransferType=none;isCollection=1;" vertex="1" parent="1">
          <mxGeometry x="650" y="482" width="27.68" height="38.06" as="geometry" />
        </mxCell>
        <mxCell id="S9dilDW7TyfF1VimtBwa-40" value="" style="html=1;verticalLabelPosition=bottom;align=center;labelBackgroundColor=#ffffff;verticalAlign=top;strokeWidth=2;strokeColor=#FF8000;shadow=0;dashed=0;shape=mxgraph.ios7.icons.settings;fillColor=none;direction=south;" vertex="1" parent="1">
          <mxGeometry x="787.5" y="778.69" width="30" height="30" as="geometry" />
        </mxCell>
        <mxCell id="S9dilDW7TyfF1VimtBwa-49" value="" style="endArrow=classic;html=1;rounded=0;exitX=0.571;exitY=1.002;exitDx=0;exitDy=0;exitPerimeter=0;strokeColor=#FF8000;" edge="1" parent="1" source="fvFGOb_BA9dX7lHyyvXW-85" target="S9dilDW7TyfF1VimtBwa-48">
          <mxGeometry width="50" height="50" relative="1" as="geometry">
            <mxPoint x="780" y="720" as="sourcePoint" />
            <mxPoint x="830" y="670" as="targetPoint" />
            <Array as="points">
              <mxPoint x="810" y="750" />
              <mxPoint x="800" y="760" />
            </Array>
          </mxGeometry>
        </mxCell>
        <mxCell id="S9dilDW7TyfF1VimtBwa-87" value="Rp_3" style="edgeLabel;html=1;align=center;verticalAlign=middle;resizable=0;points=[];" vertex="1" connectable="0" parent="S9dilDW7TyfF1VimtBwa-49">
          <mxGeometry x="-0.1142" y="3" relative="1" as="geometry">
            <mxPoint as="offset" />
          </mxGeometry>
        </mxCell>
        <mxCell id="S9dilDW7TyfF1VimtBwa-50" value="" style="endArrow=classic;html=1;rounded=0;exitX=0.999;exitY=0.941;exitDx=0;exitDy=0;exitPerimeter=0;entryX=0.027;entryY=0.445;entryDx=0;entryDy=0;entryPerimeter=0;" edge="1" parent="1" source="sL5bWm0NDH6Qrq-3R1cP-29" target="S9dilDW7TyfF1VimtBwa-48">
          <mxGeometry width="50" height="50" relative="1" as="geometry">
            <mxPoint x="710" y="580" as="sourcePoint" />
            <mxPoint x="760" y="530" as="targetPoint" />
            <Array as="points">
              <mxPoint x="-220" y="560" />
              <mxPoint x="-220" y="910" />
              <mxPoint x="750" y="910" />
              <mxPoint x="750" y="790" />
            </Array>
          </mxGeometry>
        </mxCell>
        <mxCell id="S9dilDW7TyfF1VimtBwa-54" value="interface użytkownika" style="text;html=1;align=center;verticalAlign=middle;whiteSpace=wrap;rounded=0;" vertex="1" parent="1">
          <mxGeometry x="760" y="835" width="90" height="30" as="geometry" />
        </mxCell>
        <mxCell id="S9dilDW7TyfF1VimtBwa-56" value="" style="sketch=0;pointerEvents=1;shadow=0;dashed=0;html=1;strokeColor=#FF8000;fillColor=#FF8000;labelPosition=center;verticalLabelPosition=bottom;verticalAlign=top;outlineConnect=0;align=center;shape=mxgraph.office.concepts.email;" vertex="1" parent="1">
          <mxGeometry x="765.41" y="403.69" width="69.19" height="53" as="geometry" />
        </mxCell>
        <mxCell id="S9dilDW7TyfF1VimtBwa-58" value="" style="sketch=0;pointerEvents=1;shadow=0;dashed=0;html=1;strokeColor=#FF8000;fillColor=#FF8000;labelPosition=center;verticalLabelPosition=bottom;verticalAlign=top;outlineConnect=0;align=center;shape=mxgraph.office.concepts.writing_pencil;" vertex="1" parent="1">
          <mxGeometry x="795.7" y="397.49999999999994" width="30" height="30" as="geometry" />
        </mxCell>
        <mxCell id="S9dilDW7TyfF1VimtBwa-64" value="" style="ellipse;whiteSpace=wrap;html=1;aspect=fixed;fillColor=#009900;" vertex="1" parent="1">
          <mxGeometry x="-560" y="1080" width="20" height="20" as="geometry" />
        </mxCell>
        <mxCell id="S9dilDW7TyfF1VimtBwa-65" value="" style="ellipse;whiteSpace=wrap;html=1;aspect=fixed;fillColor=#0000FF;" vertex="1" parent="1">
          <mxGeometry x="-560" y="1050" width="20" height="20" as="geometry" />
        </mxCell>
        <mxCell id="S9dilDW7TyfF1VimtBwa-66" value="" style="ellipse;whiteSpace=wrap;html=1;aspect=fixed;fillColor=#FF8000;" vertex="1" parent="1">
          <mxGeometry x="-560" y="1110" width="20" height="20" as="geometry" />
        </mxCell>
        <mxCell id="S9dilDW7TyfF1VimtBwa-67" value="" style="ellipse;whiteSpace=wrap;html=1;aspect=fixed;fillColor=#000000;" vertex="1" parent="1">
          <mxGeometry x="-560" y="1140" width="20" height="20" as="geometry" />
        </mxCell>
        <mxCell id="S9dilDW7TyfF1VimtBwa-69" value="Proces raportowania" style="text;html=1;align=center;verticalAlign=middle;whiteSpace=wrap;rounded=0;" vertex="1" parent="1">
          <mxGeometry x="-535" y="1110" width="140" height="20" as="geometry" />
        </mxCell>
        <mxCell id="S9dilDW7TyfF1VimtBwa-70" value="Proces zbierania danych" style="text;html=1;align=center;verticalAlign=middle;whiteSpace=wrap;rounded=0;" vertex="1" parent="1">
          <mxGeometry x="-526.07" y="1050" width="141.07" height="20" as="geometry" />
        </mxCell>
        <mxCell id="S9dilDW7TyfF1VimtBwa-71" value="Proces analizy danych" style="text;html=1;align=center;verticalAlign=middle;whiteSpace=wrap;rounded=0;" vertex="1" parent="1">
          <mxGeometry x="-535" y="1080" width="150" height="20" as="geometry" />
        </mxCell>
        <mxCell id="S9dilDW7TyfF1VimtBwa-72" value="Operacje na danych i komunikacja z interfejsem użytkownika" style="text;html=1;align=center;verticalAlign=middle;whiteSpace=wrap;rounded=0;" vertex="1" parent="1">
          <mxGeometry x="-526.07" y="1140" width="340" height="20" as="geometry" />
        </mxCell>
        <mxCell id="S9dilDW7TyfF1VimtBwa-77" value="" style="image;sketch=0;aspect=fixed;html=1;points=[];align=center;fontSize=12;image=img/lib/mscae/Chart.svg;fillColor=#009900;strokeColor=#009900;" vertex="1" parent="1">
          <mxGeometry x="470" y="392.5" width="28.64" height="27.5" as="geometry" />
        </mxCell>
        <mxCell id="S9dilDW7TyfF1VimtBwa-78" value="" style="sketch=0;html=1;aspect=fixed;strokeColor=#009900;shadow=0;fillColor=#009900;verticalAlign=top;labelPosition=center;verticalLabelPosition=bottom;shape=mxgraph.gcp2.search" vertex="1" parent="1">
          <mxGeometry x="460" y="378.5" width="74.25" height="75" as="geometry" />
        </mxCell>
        <mxCell id="S9dilDW7TyfF1VimtBwa-82" value="Zd_10" style="text;html=1;align=center;verticalAlign=middle;whiteSpace=wrap;rounded=0;" vertex="1" parent="1">
          <mxGeometry x="100" y="358.5" width="60" height="30" as="geometry" />
        </mxCell>
        <mxCell id="S9dilDW7TyfF1VimtBwa-84" value="" style="shape=mxgraph.bpmn.data;labelPosition=center;verticalLabelPosition=bottom;align=center;verticalAlign=top;size=8;html=1;bpmnTransferType=none;isCollection=1;" vertex="1" parent="1">
          <mxGeometry x="900" y="520.06" width="27.68" height="38.06" as="geometry" />
        </mxCell>
        <mxCell id="S9dilDW7TyfF1VimtBwa-85" value="" style="shape=mxgraph.bpmn.data;labelPosition=center;verticalLabelPosition=bottom;align=center;verticalAlign=top;size=8;html=1;bpmnTransferType=none;isCollection=1;" vertex="1" parent="1">
          <mxGeometry x="910" y="660" width="27.68" height="38.06" as="geometry" />
        </mxCell>
        <mxCell id="S9dilDW7TyfF1VimtBwa-90" value="Rp_4" style="text;html=1;align=center;verticalAlign=middle;whiteSpace=wrap;rounded=0;" vertex="1" parent="1">
          <mxGeometry x="774.4" y="580" width="51.2" height="20" as="geometry" />
        </mxCell>
        <mxCell id="S9dilDW7TyfF1VimtBwa-91" value="Rp_6" style="text;html=1;align=center;verticalAlign=middle;whiteSpace=wrap;rounded=0;" vertex="1" parent="1">
          <mxGeometry x="1002.91" y="580" width="51.2" height="20" as="geometry" />
        </mxCell>
        <mxCell id="S9dilDW7TyfF1VimtBwa-94" value="Zd_7" style="text;html=1;align=center;verticalAlign=middle;whiteSpace=wrap;rounded=0;" vertex="1" parent="1">
          <mxGeometry x="13.28" y="575" width="60" height="30" as="geometry" />
        </mxCell>
        <mxCell id="S9dilDW7TyfF1VimtBwa-98" value="Zd_8" style="text;html=1;align=center;verticalAlign=middle;whiteSpace=wrap;rounded=0;" vertex="1" parent="1">
          <mxGeometry x="195" y="575" width="60" height="30" as="geometry" />
        </mxCell>
        <mxCell id="S9dilDW7TyfF1VimtBwa-102" value="Rp_9" style="text;html=1;align=center;verticalAlign=middle;whiteSpace=wrap;rounded=0;" vertex="1" parent="1">
          <mxGeometry x="774.4" y="377.5" width="51.2" height="20" as="geometry" />
        </mxCell>
      </root>
    </mxGraphModel>
  </diagram>
</mxfile>
